<svg width="32" height="41" viewBox="0 0 32 41" fill="none" xmlns="http://www.w3.org/2000/svg">
<g clip-path="url(#clip0_1_239)">
<g clip-path="url(#clip1_1_239)">
<path d="M2.35711 13.1332C2.66162 13.4377 3.15847 13.4377 3.46298 13.1332L8.34858 8.24759C8.6531 7.94307 8.6531 7.44623 8.34858 7.14172C8.04407 6.8372 7.54723 6.8372 7.24271 7.14172L2.35711 12.0273C2.05259 12.3318 2.05259 12.8287 2.35711 13.1332Z" fill="black"/>
<path d="M3.46298 18.3128L13.6375 8.13821C13.942 7.8337 13.942 7.33686 13.6375 7.03234C13.333 6.72783 12.8362 6.72783 12.5317 7.03234L2.35711 17.2069C2.05259 17.5114 2.05259 18.0082 2.35711 18.3128C2.66162 18.6173 3.15847 18.6173 3.46298 18.3128Z" fill="black"/>
<path d="M3.41495 23.5162L18.7102 8.22366C19.0147 7.91915 19.0147 7.42231 18.7102 7.11779C18.4056 6.81328 17.9088 6.81328 17.6043 7.11779L2.30907 22.4103C2.00456 22.7148 2.00456 23.2117 2.30907 23.5162C2.61359 23.8207 3.11043 23.8207 3.41495 23.5162Z" fill="black"/>
<path d="M3.41495 28.7303L24.0231 8.1221C24.3277 7.81758 24.3277 7.32074 24.0231 7.01623C23.7186 6.71171 23.2218 6.71171 22.9173 7.01623L2.30907 27.6244C2.00456 27.9289 2.00456 28.4258 2.30907 28.7303C2.61359 29.0348 3.11043 29.0348 3.41495 28.7303Z" fill="black"/>
<path d="M29.2693 28.1481C28.9648 27.8435 28.468 27.8435 28.1635 28.1481L23.2779 33.0337C22.9733 33.3382 22.9733 33.835 23.2779 34.1395C23.5824 34.4441 24.0792 34.4441 24.3837 34.1395L29.2693 29.2539C29.5738 28.9494 29.5738 28.4526 29.2693 28.1481Z" fill="black"/>
<path d="M29.2693 22.9686C28.9648 22.6641 28.468 22.6641 28.1635 22.9686L17.9889 33.1432C17.6844 33.4477 17.6844 33.9445 17.9889 34.249C18.2934 34.5536 18.7903 34.5536 19.0948 34.249L29.2693 24.0745C29.5738 23.77 29.5738 23.2731 29.2693 22.9686Z" fill="black"/>
<path d="M28.2115 17.7623L12.9163 33.0575C12.6118 33.3621 12.6118 33.8589 12.9163 34.1634C13.2208 34.4679 13.7177 34.4679 14.0222 34.1634L29.3174 18.8682C29.6219 18.5637 29.6219 18.0668 29.3174 17.7623C29.0129 17.4578 28.516 17.4578 28.2115 17.7623Z" fill="black"/>
<path d="M28.2115 12.5482L7.60333 33.1564C7.29881 33.4609 7.29881 33.9578 7.60333 34.2623C7.90784 34.5668 8.40468 34.5668 8.7092 34.2623L29.3174 13.6541C29.6219 13.3496 29.6219 12.8527 29.3174 12.5482C29.0129 12.2437 28.516 12.2437 28.2115 12.5482Z" fill="black"/>
<path d="M29.4109 6.91467C29.1064 6.61015 28.6095 6.61015 28.305 6.91467L2.33306 32.8866C2.02855 33.1911 2.02855 33.688 2.33306 33.9925C2.63758 34.297 3.13442 34.297 3.43893 33.9925L29.4109 8.02054C29.7154 7.71602 29.7154 7.21918 29.4109 6.91467Z" fill="black"/>
</g>
</g>
<defs>
<clipPath id="clip0_1_239">
<rect width="31.52" height="40" fill="white" transform="translate(0.0999756 0.26001)"/>
</clipPath>
<clipPath id="clip1_1_239">
<rect width="31.52" height="40" fill="white" transform="translate(0.0999756 0.26001)"/>
</clipPath>
</defs>
</svg>
