<svg width="32" height="41" viewBox="0 0 32 41" fill="none" xmlns="http://www.w3.org/2000/svg">
<g clip-path="url(#clip0_1_283)">
<g clip-path="url(#clip1_1_283)">
<path d="M7.64608 11.8728C7.62471 11.9263 7.61136 11.9824 7.61136 12.0438V12.0785C7.61136 12.0785 7.61136 12.0785 7.61136 12.0812C7.61136 12.0839 7.61136 12.0812 7.61136 12.0839L7.57663 16.673C7.57663 16.9695 7.84909 17.2152 8.18299 17.2179C8.51956 17.2179 8.79736 16.9802 8.79736 16.681L8.8214 13.5984L14.4042 19.1812C14.6419 19.4189 15.0319 19.4189 15.2696 19.1812C15.5074 18.9435 15.5074 18.5535 15.2696 18.3157L9.65748 12.7036L12.7748 12.7276C13.0713 12.7276 13.317 12.4552 13.3197 12.1213C13.3197 11.7847 13.0819 11.5069 12.7828 11.5069L8.15361 11.4722C7.92121 11.4722 7.72087 11.6378 7.64341 11.8728H7.64608Z" fill="black"/>
<path d="M24.4372 11.5416C24.3837 11.5202 24.3276 11.5069 24.2662 11.5069H24.2315C24.2315 11.5069 24.2315 11.5069 24.2288 11.5069C24.2261 11.5069 24.2288 11.5069 24.2261 11.5069L19.637 11.4722C19.3405 11.4722 19.0948 11.7446 19.0921 12.0785C19.0921 12.4151 19.3299 12.6929 19.629 12.6929L22.7116 12.7169L17.1288 18.2997C16.8911 18.5375 16.8911 18.9274 17.1288 19.1652C17.3665 19.4029 17.7565 19.4029 17.9943 19.1652L23.6064 13.553L23.5824 16.6703C23.5824 16.9668 23.8548 17.2125 24.1887 17.2152C24.5253 17.2152 24.8031 16.9775 24.8031 16.6783L24.8378 12.0491C24.8378 11.8168 24.6722 11.6164 24.4372 11.5389V11.5416Z" fill="black"/>
<path d="M7.64608 28.4823C7.62471 28.4288 7.61136 28.3728 7.61136 28.3113V28.2766C7.61136 28.2766 7.61136 28.2766 7.61136 28.2739C7.61136 28.2712 7.61136 28.2739 7.61136 28.2712L7.57663 23.6822C7.57663 23.3856 7.84909 23.1399 8.18299 23.1372C8.51956 23.1372 8.79736 23.375 8.79736 23.6741L8.8214 26.7567L14.4042 21.1739C14.6419 20.9362 15.0319 20.9362 15.2696 21.1739C15.5074 21.4116 15.5074 21.8016 15.2696 22.0394L9.65748 27.6515L12.7748 27.6275C13.0713 27.6275 13.317 27.9 13.3197 28.2339C13.3197 28.5704 13.0819 28.8482 12.7828 28.8482L8.15361 28.883C7.92121 28.883 7.72087 28.7173 7.64341 28.4823H7.64608Z" fill="black"/>
<path d="M24.4372 28.8136C24.3837 28.835 24.3276 28.8483 24.2662 28.8483H24.2315C24.2315 28.8483 24.2315 28.8483 24.2288 28.8483C24.2261 28.8483 24.2288 28.8483 24.2261 28.8483L19.637 28.883C19.3405 28.883 19.0948 28.6106 19.0921 28.2767C19.0921 27.9401 19.3299 27.6623 19.629 27.6623L22.7116 27.6383L17.1288 22.0555C16.8911 21.8177 16.8911 21.4278 17.1288 21.19C17.3665 20.9523 17.7565 20.9523 17.9943 21.19L23.6064 26.8022L23.5824 23.6849C23.5824 23.3884 23.8548 23.1427 24.1887 23.14C24.5253 23.14 24.8031 23.3777 24.8031 23.6769L24.8378 28.3061C24.8378 28.5385 24.6722 28.7388 24.4372 28.8163V28.8136Z" fill="black"/>
<path d="M29.9398 32.8897C29.8383 32.6599 29.7341 32.4302 29.6433 32.1951C28.8099 30.0261 28.0726 27.8278 27.664 25.5305C27.2045 22.9422 27.0816 20.3431 27.2686 17.7227C27.5117 14.2955 28.4947 11.0527 29.6513 7.84995C29.7448 7.59084 29.8463 7.33174 29.9451 7.07263C30.0333 6.92038 30.0653 6.73339 30.0146 6.54908C29.9131 6.19114 29.5391 5.98012 29.1812 6.08162L29.069 6.11368H29.061C28.9248 6.15107 28.7858 6.19114 28.6496 6.23121L27.0816 6.67196C26.9507 6.70668 26.8172 6.74141 26.6863 6.77079C24.6509 7.24092 22.6208 7.75646 20.5666 8.11707C18.3282 8.50973 16.055 8.48035 13.7845 8.36015C10.75 8.1972 7.84642 7.42256 4.94284 6.64791L2.92075 6.07895C2.56281 5.97745 2.18885 6.18847 2.08734 6.54641C2.03125 6.74675 2.07398 6.95243 2.18617 7.1127C2.45062 7.85529 2.71774 8.59521 2.97685 9.34047C3.70875 11.4374 4.32312 13.5609 4.63298 15.7673C4.92948 17.8696 4.98024 19.9745 4.86537 22.0954C4.66504 25.787 3.41759 29.4946 2.23158 32.9511C2.19152 33.0205 2.16748 33.098 2.15412 33.1781V33.1835C2.14076 33.2743 2.14344 33.3705 2.17015 33.4666C2.27165 33.8246 2.64562 34.0329 3.00356 33.9341L5.31146 33.285C6.92219 32.8843 8.53558 32.4863 10.1597 32.1524C12.6839 31.6342 15.2509 31.546 17.8286 31.6556C21.2024 31.7971 24.4372 32.6412 27.6746 33.4773L29.2052 33.9074C29.5632 34.0089 29.9371 33.7979 30.0386 33.4399C30.0921 33.2449 30.0547 33.0473 29.9505 32.8897H29.9398ZM16.047 30.3253C11.8666 30.3253 7.84375 31.2068 3.71409 32.3688C5.27407 28.3219 6.22768 24.2617 6.23035 20.0145C6.23035 15.762 5.28742 11.6965 3.71409 7.63091C7.83039 8.83295 11.8559 9.73581 16.047 9.73581C20.2407 9.73581 24.2742 8.8463 28.4092 7.62557C25.1317 15.8822 25.0221 24.056 28.3398 32.3474C24.2422 31.1988 20.222 30.3226 16.0496 30.3253H16.047Z" fill="black"/>
</g>
</g>
<defs>
<clipPath id="clip0_1_283">
<rect width="31.52" height="40" fill="white" transform="translate(0.0999756 0.0600586)"/>
</clipPath>
<clipPath id="clip1_1_283">
<rect width="31.52" height="40" fill="white" transform="translate(0.0999756 0.0600586)"/>
</clipPath>
</defs>
</svg>
