<svg width="391" height="57" viewBox="0 0 391 57" fill="none" xmlns="http://www.w3.org/2000/svg">
<rect width="390.4" height="56.8" transform="translate(0.299988)" fill="white"/>
<g clip-path="url(#clip0_1_6)">
<path d="M22.481 20.9648H37.7191V21.9171H22.481V20.9648ZM22.481 27.1552H37.7191V28.1076H22.481V27.1552ZM22.481 33.3457H37.7191V34.2981H22.481V33.3457Z" fill="black"/>
</g>
<g clip-path="url(#clip1_1_6)">
<path d="M54.7476 25.1362C54.7476 21.2543 57.8333 18.1076 61.6381 18.1076C65.4438 18.1076 68.5295 21.2543 68.5295 25.1362C68.5348 26.938 67.8529 28.6739 66.6228 29.9905C66.6647 30.0162 66.7047 30.0476 66.7409 30.0838L72.4714 35.8143C72.5325 35.872 72.5814 35.9414 72.6152 36.0183C72.6491 36.0953 72.6671 36.1782 72.6683 36.2623C72.6695 36.3463 72.6538 36.4298 72.6222 36.5077C72.5906 36.5855 72.5437 36.6563 72.4843 36.7157C72.4248 36.7752 72.3541 36.8221 72.2762 36.8537C72.1983 36.8853 72.1149 36.901 72.0308 36.8998C71.9468 36.8986 71.8638 36.8805 71.7869 36.8467C71.7099 36.8129 71.6405 36.764 71.5828 36.7029L65.8524 30.9714C65.8004 30.9199 65.7578 30.8596 65.7266 30.7933C64.5497 31.6838 63.114 32.1654 61.6381 32.1648C57.8333 32.1648 54.7476 29.0171 54.7476 25.1362ZM67.4771 25.1362C67.4771 21.8476 64.8628 19.181 61.639 19.181C58.4133 19.181 55.8 21.8476 55.8 25.1362C55.8 28.4257 58.4133 31.0924 61.6381 31.0924C64.8628 31.0924 67.4771 28.4257 67.4771 25.1362Z" fill="black"/>
</g>
<path d="M185.975 24.858H190.266V45.271H185.975V43.837C184.158 45.2389 181.928 45.9995 179.633 46C173.77 46 169 41.095 169 35.065C169 29.035 173.77 24.13 179.634 24.13C182.008 24.13 184.204 24.935 185.974 26.293L185.975 24.858ZM185.975 35.07C185.975 31.472 183.13 28.544 179.633 28.544C176.136 28.544 173.292 31.472 173.292 35.07C173.292 38.67 176.136 41.597 179.634 41.597C183.13 41.597 185.975 38.669 185.975 35.07ZM197.81 45.272H193.52V10H197.811L197.81 45.272ZM200.233 35.065C200.233 29.035 205.003 24.13 210.865 24.13C216.729 24.13 221.499 29.035 221.499 35.065C221.499 41.095 216.73 46 210.867 46C205.003 46 200.233 41.095 200.233 35.065ZM204.524 35.07C204.524 38.669 207.369 41.596 210.865 41.596C214.363 41.596 217.207 38.669 217.207 35.07C217.207 31.471 214.363 28.544 210.865 28.544C207.369 28.544 204.525 31.471 204.525 35.07H204.524Z" fill="black"/>
<g clip-path="url(#clip2_1_6)">
<g clip-path="url(#clip3_1_6)">
<path fill-rule="evenodd" clip-rule="evenodd" d="M286.7 25.5556C287.181 25.5556 287.658 25.4607 288.103 25.2764C288.548 25.0922 288.952 24.8221 289.293 24.4816C289.633 24.1411 289.903 23.7369 290.088 23.2921C290.272 22.8472 290.367 22.3704 290.367 21.8889C290.367 21.4074 290.272 20.9306 290.088 20.4857C289.903 20.0409 289.633 19.6366 289.293 19.2962C288.952 18.9557 288.548 18.6856 288.103 18.5013C287.658 18.3171 287.181 18.2222 286.7 18.2222C285.728 18.2222 284.795 18.6085 284.107 19.2962C283.42 19.9838 283.033 20.9164 283.033 21.8889C283.033 22.8613 283.42 23.794 284.107 24.4816C284.795 25.1692 285.728 25.5556 286.7 25.5556ZM286.7 26.7778C287.997 26.7778 289.24 26.2627 290.157 25.3459C291.074 24.429 291.589 23.1855 291.589 21.8889C291.589 20.5923 291.074 19.3488 290.157 18.4319C289.24 17.5151 287.997 17 286.7 17C285.403 17 284.16 17.5151 283.243 18.4319C282.326 19.3488 281.811 20.5923 281.811 21.8889C281.811 23.1855 282.326 24.429 283.243 25.3459C284.16 26.2627 285.403 26.7778 286.7 26.7778Z" fill="black"/>
<path d="M284.256 30.4445H289.144C292.519 30.4445 296.478 33.181 296.478 36.5556V37.7778H297.7V36.5556C297.7 32.5051 293.195 29.2222 289.144 29.2222H284.256C280.205 29.2222 275.7 32.5051 275.7 36.5556V37.7778H276.922V36.5556C276.922 33.181 280.881 30.4445 284.256 30.4445Z" fill="black"/>
</g>
</g>
<g clip-path="url(#clip4_1_6)">
<g clip-path="url(#clip5_1_6)">
<path fill-rule="evenodd" clip-rule="evenodd" d="M318.66 19.7971C316.714 20.13 314.753 21.9686 314.753 25.4314C314.753 26.6814 315.287 27.98 316.146 29.2514C317.003 30.5186 318.153 31.72 319.319 32.7629C320.483 33.8043 321.65 34.6771 322.526 35.2886C322.912 35.5585 323.303 35.8205 323.7 36.0743L323.817 35.9986C325.32 35.0312 326.745 33.9494 328.081 32.7629C329.247 31.72 330.399 30.52 331.253 29.2514C332.113 27.98 332.647 26.6814 332.647 25.4314C332.647 21.9671 330.686 20.1314 328.74 19.7971C328.255 19.7093 327.757 19.7194 327.275 19.8269C326.794 19.9343 326.339 20.137 325.937 20.4229C325.124 21.0071 324.464 21.9943 324.22 23.4514H323.18C322.937 21.9957 322.276 21.0071 321.463 20.4229C321.061 20.1369 320.606 19.9342 320.125 19.8267C319.643 19.7193 319.145 19.7092 318.66 19.7971ZM323.7 36.6829C323.608 36.8289 323.516 36.9746 323.423 37.12L323.421 37.1186L323.416 37.1143L323.393 37.1L323.311 37.05C323.208 36.986 323.105 36.9212 323.003 36.8557C322.635 36.6184 322.271 36.3741 321.913 36.1229C320.761 35.3208 319.657 34.4517 318.607 33.52C317.406 32.4429 316.187 31.18 315.267 29.8143C314.35 28.4586 313.7 26.9614 313.7 25.4314C313.7 21.5529 315.949 19.2186 318.477 18.7857C319.103 18.6734 319.744 18.6872 320.365 18.8263C320.985 18.9654 321.571 19.227 322.089 19.5957C322.787 20.1069 323.343 20.7899 323.7 21.5786C324.057 20.7899 324.613 20.1069 325.311 19.5957C325.829 19.227 326.415 18.9654 327.035 18.8263C327.656 18.6872 328.297 18.6734 328.923 18.7857C331.451 19.2186 333.7 21.5529 333.7 25.4314C333.7 26.96 333.05 28.4571 332.133 29.8171C331.213 31.18 329.994 32.4443 328.793 33.52C327.743 34.4516 326.639 35.3207 325.487 36.1229C325.129 36.3741 324.765 36.6184 324.397 36.8557C324.267 36.9389 324.137 37.0208 324.006 37.1014L323.984 37.1157L323.979 37.1186H323.977C323.884 36.9741 323.792 36.8294 323.7 36.6843M323.7 36.6843L323.976 37.1214L323.7 37.2857L323.423 37.12L323.7 36.6843Z" fill="black"/>
</g>
</g>
<g clip-path="url(#clip6_1_6)">
<g clip-path="url(#clip7_1_6)">
<path d="M367.24 21.424C367.364 21.4266 367.481 21.4778 367.567 21.5666C367.653 21.6553 367.701 21.7744 367.7 21.898V39.525C367.701 39.6488 367.654 39.7681 367.568 39.8571C367.482 39.946 367.364 39.9974 367.24 40H350.16C350.036 39.9974 349.918 39.946 349.832 39.8571C349.746 39.7681 349.699 39.6488 349.7 39.525V21.898C349.699 21.7744 349.747 21.6553 349.833 21.5666C349.919 21.4778 350.036 21.4266 350.16 21.424H354.955V19.864C354.955 17.733 356.635 16 358.7 16C360.765 16 362.445 17.733 362.445 19.864V21.424H367.24ZM355.875 21.424H361.515V19.864C361.515 18.256 360.251 16.949 358.695 16.949C357.14 16.949 355.875 18.256 355.875 19.864V21.424ZM366.78 22.373H362.445V24.61C362.446 24.7338 362.399 24.8531 362.313 24.9421C362.227 25.031 362.109 25.0824 361.985 25.085C361.861 25.0824 361.743 25.031 361.657 24.9421C361.571 24.8531 361.524 24.7338 361.525 24.61V22.373H355.875V24.61C355.876 24.7338 355.829 24.8531 355.743 24.9421C355.657 25.031 355.539 25.0824 355.415 25.085C355.291 25.0824 355.173 25.031 355.087 24.9421C355.001 24.8531 354.954 24.7338 354.955 24.61V22.373H350.62V39.05H366.78V22.373Z" fill="black"/>
</g>
</g>
<defs>
<clipPath id="clip0_1_6">
<rect width="20" height="20" fill="white" transform="translate(20.1 18)"/>
</clipPath>
<clipPath id="clip1_1_6">
<rect width="20" height="20" fill="white" transform="translate(53.7 18)"/>
</clipPath>
<clipPath id="clip2_1_6">
<rect width="22" height="22" fill="white" transform="translate(275.7 17)"/>
</clipPath>
<clipPath id="clip3_1_6">
<rect width="22" height="20.7778" fill="white" transform="translate(275.7 17)"/>
</clipPath>
<clipPath id="clip4_1_6">
<rect width="20" height="20" fill="white" transform="translate(313.7 18)"/>
</clipPath>
<clipPath id="clip5_1_6">
<rect width="20" height="20" fill="white" transform="translate(313.7 18)"/>
</clipPath>
<clipPath id="clip6_1_6">
<rect width="18" height="24" fill="white" transform="translate(349.7 16)"/>
</clipPath>
<clipPath id="clip7_1_6">
<rect width="18" height="24" fill="white" transform="translate(349.7 16)"/>
</clipPath>
</defs>
</svg>
