<svg width="30" height="34" viewBox="0 0 30 34" fill="none" xmlns="http://www.w3.org/2000/svg">
<g filter="url(#filter0_d_1_447)">
<rect x="5.00999" y="5.34033" width="20" height="20" rx="10" fill="white" fill-opacity="0.9" shape-rendering="crispEdges"/>
<g clip-path="url(#clip0_1_447)">
<g clip-path="url(#clip1_1_447)">
<path fill-rule="evenodd" clip-rule="evenodd" d="M15.6767 10.6261C15.6767 10.2579 15.3782 9.95947 15.01 9.95947C14.6418 9.95947 14.3433 10.2579 14.3433 10.6261V14.6262H10.3433C9.9751 14.6262 9.67662 14.9247 9.67662 15.2929C9.67662 15.6611 9.9751 15.9596 10.3433 15.9596H14.3433V19.9595C14.3433 20.3277 14.6418 20.6262 15.01 20.6262C15.3782 20.6262 15.6767 20.3277 15.6767 19.9595V15.9596H19.6766C20.0448 15.9596 20.3433 15.6611 20.3433 15.2929C20.3433 14.9247 20.0448 14.6262 19.6766 14.6262H15.6767V10.6261Z" fill="black"/>
</g>
</g>
</g>
<defs>
<filter id="filter0_d_1_447" x="0.00999451" y="3.34033" width="30" height="30" filterUnits="userSpaceOnUse" color-interpolation-filters="sRGB">
<feFlood flood-opacity="0" result="BackgroundImageFix"/>
<feColorMatrix in="SourceAlpha" type="matrix" values="0 0 0 0 0 0 0 0 0 0 0 0 0 0 0 0 0 0 127 0" result="hardAlpha"/>
<feOffset dy="3"/>
<feGaussianBlur stdDeviation="2.5"/>
<feComposite in2="hardAlpha" operator="out"/>
<feColorMatrix type="matrix" values="0 0 0 0 0 0 0 0 0 0 0 0 0 0 0 0 0 0 0.3 0"/>
<feBlend mode="normal" in2="BackgroundImageFix" result="effect1_dropShadow_1_447"/>
<feBlend mode="normal" in="SourceGraphic" in2="effect1_dropShadow_1_447" result="shape"/>
</filter>
<clipPath id="clip0_1_447">
<rect width="12" height="12.4" fill="white" transform="translate(9.00999 9.14014)"/>
</clipPath>
<clipPath id="clip1_1_447">
<rect width="12" height="12" fill="white" transform="translate(9.00999 9.34033)"/>
</clipPath>
</defs>
</svg>
