<svg width="31" height="34" viewBox="0 0 31 34" fill="none" xmlns="http://www.w3.org/2000/svg">
<g filter="url(#filter0_d_1_426)">
<rect x="5.10999" y="5.25049" width="20" height="20" rx="10" fill="white" fill-opacity="0.9" shape-rendering="crispEdges"/>
<g clip-path="url(#clip0_1_426)">
<g clip-path="url(#clip1_1_426)">
<path fill-rule="evenodd" clip-rule="evenodd" d="M15.7767 10.5363C15.7767 10.1681 15.4782 9.86963 15.11 9.86963C14.7418 9.86963 14.4433 10.1681 14.4433 10.5363V14.5364H10.4433C10.0751 14.5364 9.77661 14.8349 9.77661 15.203C9.77661 15.5712 10.0751 15.8697 10.4433 15.8697H14.4433V19.8696C14.4433 20.2378 14.7418 20.5363 15.11 20.5363C15.4782 20.5363 15.7767 20.2378 15.7767 19.8696V15.8697H19.7766C20.1448 15.8697 20.4433 15.5712 20.4433 15.203C20.4433 14.8349 20.1448 14.5364 19.7766 14.5364H15.7767V10.5363Z" fill="black"/>
</g>
</g>
</g>
<defs>
<filter id="filter0_d_1_426" x="0.109985" y="3.25049" width="30" height="30" filterUnits="userSpaceOnUse" color-interpolation-filters="sRGB">
<feFlood flood-opacity="0" result="BackgroundImageFix"/>
<feColorMatrix in="SourceAlpha" type="matrix" values="0 0 0 0 0 0 0 0 0 0 0 0 0 0 0 0 0 0 127 0" result="hardAlpha"/>
<feOffset dy="3"/>
<feGaussianBlur stdDeviation="2.5"/>
<feComposite in2="hardAlpha" operator="out"/>
<feColorMatrix type="matrix" values="0 0 0 0 0 0 0 0 0 0 0 0 0 0 0 0 0 0 0.3 0"/>
<feBlend mode="normal" in2="BackgroundImageFix" result="effect1_dropShadow_1_426"/>
<feBlend mode="normal" in="SourceGraphic" in2="effect1_dropShadow_1_426" result="shape"/>
</filter>
<clipPath id="clip0_1_426">
<rect width="12" height="12.4" fill="white" transform="translate(9.10999 9.05029)"/>
</clipPath>
<clipPath id="clip1_1_426">
<rect width="12" height="12" fill="white" transform="translate(9.10999 9.25049)"/>
</clipPath>
</defs>
</svg>
