<svg width="31" height="34" viewBox="0 0 31 34" fill="none" xmlns="http://www.w3.org/2000/svg">
<g filter="url(#filter0_d_1_432)">
<rect x="5.44" y="5.44043" width="20" height="20" rx="10" fill="white" fill-opacity="0.9" shape-rendering="crispEdges"/>
<g clip-path="url(#clip0_1_432)">
<path fill-rule="evenodd" clip-rule="evenodd" d="M16.1067 10.7262C16.1067 10.358 15.8082 10.0596 15.44 10.0596C15.0718 10.0596 14.7733 10.358 14.7733 10.7262V14.7263H10.7733C10.4051 14.7263 10.1066 15.0248 10.1066 15.393C10.1066 15.7612 10.4051 16.0596 10.7733 16.0596H14.7733V20.0596C14.7733 20.4278 15.0718 20.7263 15.44 20.7263C15.8082 20.7263 16.1067 20.4278 16.1067 20.0596V16.0596H20.1066C20.4748 16.0596 20.7733 15.7612 20.7733 15.393C20.7733 15.0248 20.4748 14.7263 20.1066 14.7263H16.1067V10.7262Z" fill="black"/>
</g>
</g>
<defs>
<filter id="filter0_d_1_432" x="0.440002" y="3.44043" width="30" height="30" filterUnits="userSpaceOnUse" color-interpolation-filters="sRGB">
<feFlood flood-opacity="0" result="BackgroundImageFix"/>
<feColorMatrix in="SourceAlpha" type="matrix" values="0 0 0 0 0 0 0 0 0 0 0 0 0 0 0 0 0 0 127 0" result="hardAlpha"/>
<feOffset dy="3"/>
<feGaussianBlur stdDeviation="2.5"/>
<feComposite in2="hardAlpha" operator="out"/>
<feColorMatrix type="matrix" values="0 0 0 0 0 0 0 0 0 0 0 0 0 0 0 0 0 0 0.3 0"/>
<feBlend mode="normal" in2="BackgroundImageFix" result="effect1_dropShadow_1_432"/>
<feBlend mode="normal" in="SourceGraphic" in2="effect1_dropShadow_1_432" result="shape"/>
</filter>
<clipPath id="clip0_1_432">
<rect width="12" height="12.4" fill="white" transform="translate(9.44 9.24023)"/>
</clipPath>
</defs>
</svg>
