<svg width="21" height="21" viewBox="0 0 21 21" fill="none" xmlns="http://www.w3.org/2000/svg">
<g clip-path="url(#clip0_1_120)">
<g clip-path="url(#clip1_1_120)">
<path d="M8.25 16.74V17.74H9.25V16.74H8.25ZM9.25 16.74V17.74H10.25V16.74H9.25ZM16.077 13.454L16.962 12.619C16.8825 11.995 16.8271 11.3682 16.796 10.74H15.795C15.837 11.57 15.918 12.53 16.077 13.454Z" fill="black"/>
<path d="M13.25 17.74H19.25V16.74C17.849 16.74 17.233 14.683 16.962 12.62L16.077 13.454C16.24 14.401 16.497 15.394 16.929 16.177C17.035 16.369 17.159 16.56 17.303 16.74H10.25V17.74H12.25C12.25 18.2704 12.0393 18.7791 11.6642 19.1542C11.2891 19.5293 10.7804 19.74 10.25 19.74L11.121 20.612C11.737 20.4249 12.2765 20.0448 12.6598 19.5276C13.0432 19.0105 13.2501 18.3837 13.25 17.74ZM11.121 20.612L10.25 19.74V20.74C10.545 20.7404 10.8385 20.6973 11.121 20.612Z" fill="black"/>
<path fill-rule="evenodd" clip-rule="evenodd" d="M7.25 17.74C7.25 18.5356 7.56607 19.2987 8.12868 19.8613C8.69129 20.4239 9.45435 20.74 10.25 20.74V19.74C9.71957 19.74 9.21086 19.5293 8.83579 19.1542C8.46071 18.7791 8.25 18.2704 8.25 17.74V16.74H3.2C3.342 16.563 3.465 16.374 3.57 16.185C4.003 15.405 4.26 14.415 4.423 13.469C4.75 11.571 4.75 9.50399 4.75 8.75199V8.73999C4.75 6.90399 5.33 5.40699 6.274 4.38099C7.21 3.36199 8.562 2.73999 10.25 2.73999V1.73999C6.35 1.73999 3.75 4.64499 3.75 8.73999C3.75 10.231 3.75 16.74 1.25 16.74V17.74H7.25ZM15.75 4.23999V0.73999H16.75V4.23999H20.25V5.23999H16.75V8.73999H15.75V5.23999H12.25V4.23999H15.75Z" fill="black"/>
</g>
</g>
<defs>
<clipPath id="clip0_1_120">
<rect width="20" height="20" fill="white" transform="translate(0.25 0.23999)"/>
</clipPath>
<clipPath id="clip1_1_120">
<rect width="20" height="20" fill="white" transform="translate(0.25 0.23999)"/>
</clipPath>
</defs>
</svg>
