<svg width="21" height="21" viewBox="0 0 21 21" fill="none" xmlns="http://www.w3.org/2000/svg">
<g clip-path="url(#clip0_1_112)">
<g clip-path="url(#clip1_1_112)">
<path d="M8.14999 16.74V17.74H9.14999V16.74H8.14999ZM9.14999 16.74V17.74H10.15V16.74H9.14999ZM15.977 13.454L16.862 12.619C16.7825 11.995 16.7271 11.3682 16.696 10.74H15.695C15.737 11.57 15.818 12.53 15.977 13.454Z" fill="black"/>
<path d="M13.15 17.74H19.15V16.74C17.749 16.74 17.133 14.683 16.862 12.62L15.977 13.454C16.14 14.401 16.397 15.394 16.829 16.177C16.935 16.369 17.059 16.56 17.203 16.74H10.15V17.74H12.15C12.15 18.2704 11.9393 18.7791 11.5642 19.1542C11.1891 19.5293 10.6804 19.74 10.15 19.74L11.021 20.612C11.637 20.4249 12.1765 20.0448 12.5598 19.5276C12.9432 19.0105 13.1501 18.3837 13.15 17.74ZM11.021 20.612L10.15 19.74V20.74C10.445 20.7404 10.7385 20.6973 11.021 20.612Z" fill="black"/>
<path fill-rule="evenodd" clip-rule="evenodd" d="M7.14999 17.74C7.14999 18.5356 7.46606 19.2987 8.02867 19.8613C8.59128 20.4239 9.35434 20.74 10.15 20.74V19.74C9.61956 19.74 9.11085 19.5293 8.73578 19.1542C8.36071 18.7791 8.14999 18.2704 8.14999 17.74V16.74H3.09999C3.24199 16.563 3.36499 16.374 3.46999 16.185C3.90299 15.405 4.15999 14.415 4.32299 13.469C4.64999 11.571 4.64999 9.50399 4.64999 8.75199V8.73999C4.64999 6.90399 5.22999 5.40699 6.17399 4.38099C7.10999 3.36199 8.46199 2.73999 10.15 2.73999V1.73999C6.24999 1.73999 3.64999 4.64499 3.64999 8.73999C3.64999 10.231 3.64999 16.74 1.14999 16.74V17.74H7.14999ZM15.65 4.23999V0.73999H16.65V4.23999H20.15V5.23999H16.65V8.73999H15.65V5.23999H12.15V4.23999H15.65Z" fill="black"/>
</g>
</g>
<defs>
<clipPath id="clip0_1_112">
<rect width="20" height="20" fill="white" transform="translate(0.149994 0.23999)"/>
</clipPath>
<clipPath id="clip1_1_112">
<rect width="20" height="20" fill="white" transform="translate(0.149994 0.23999)"/>
</clipPath>
</defs>
</svg>
