<svg width="21" height="21" viewBox="0 0 21 21" fill="none" xmlns="http://www.w3.org/2000/svg">
<g clip-path="url(#clip0_1_104)">
<g clip-path="url(#clip1_1_104)">
<path d="M8.37 16.74V17.74H9.37V16.74H8.37ZM9.37 16.74V17.74H10.37V16.74H9.37ZM16.197 13.454L17.082 12.619C17.0025 11.995 16.9471 11.3682 16.916 10.74H15.915C15.957 11.57 16.038 12.53 16.197 13.454Z" fill="black"/>
<path d="M13.37 17.74H19.37V16.74C17.969 16.74 17.353 14.683 17.082 12.62L16.197 13.454C16.36 14.401 16.617 15.394 17.049 16.177C17.155 16.369 17.279 16.56 17.423 16.74H10.37V17.74H12.37C12.37 18.2704 12.1593 18.7791 11.7842 19.1542C11.4091 19.5293 10.9004 19.74 10.37 19.74L11.241 20.612C11.857 20.4249 12.3965 20.0448 12.7798 19.5276C13.1632 19.0105 13.3701 18.3837 13.37 17.74ZM11.241 20.612L10.37 19.74V20.74C10.665 20.7404 10.9585 20.6973 11.241 20.612Z" fill="black"/>
<path fill-rule="evenodd" clip-rule="evenodd" d="M7.37 17.74C7.37 18.5356 7.68607 19.2987 8.24867 19.8613C8.81128 20.4239 9.57435 20.74 10.37 20.74V19.74C9.83956 19.74 9.33085 19.5293 8.95578 19.1542C8.58071 18.7791 8.37 18.2704 8.37 17.74V16.74H3.32C3.462 16.563 3.585 16.374 3.69 16.185C4.123 15.405 4.37999 14.415 4.54299 13.469C4.86999 11.571 4.87 9.50399 4.87 8.75199V8.73999C4.87 6.90399 5.45 5.40699 6.394 4.38099C7.33 3.36199 8.682 2.73999 10.37 2.73999V1.73999C6.47 1.73999 3.87 4.64499 3.87 8.73999C3.87 10.231 3.87 16.74 1.37 16.74V17.74H7.37ZM15.87 4.23999V0.73999H16.87V4.23999H20.37V5.23999H16.87V8.73999H15.87V5.23999H12.37V4.23999H15.87Z" fill="black"/>
</g>
</g>
<defs>
<clipPath id="clip0_1_104">
<rect width="20" height="20" fill="white" transform="translate(0.369995 0.23999)"/>
</clipPath>
<clipPath id="clip1_1_104">
<rect width="20" height="20" fill="white" transform="translate(0.369995 0.23999)"/>
</clipPath>
</defs>
</svg>
