<svg width="21" height="21" viewBox="0 0 21 21" fill="none" xmlns="http://www.w3.org/2000/svg">
<g clip-path="url(#clip0_1_88)">
<g clip-path="url(#clip1_1_88)">
<path d="M8.19 16.74V17.74H9.19V16.74H8.19ZM9.19 16.74V17.74H10.19V16.74H9.19ZM16.017 13.454L16.902 12.619C16.8225 11.995 16.7671 11.3682 16.736 10.74H15.735C15.777 11.57 15.858 12.53 16.017 13.454Z" fill="black"/>
<path d="M13.19 17.74H19.19V16.74C17.789 16.74 17.173 14.683 16.902 12.62L16.017 13.454C16.18 14.401 16.437 15.394 16.869 16.177C16.975 16.369 17.099 16.56 17.243 16.74H10.19V17.74H12.19C12.19 18.2704 11.9793 18.7791 11.6042 19.1542C11.2291 19.5293 10.7204 19.74 10.19 19.74L11.061 20.612C11.677 20.4249 12.2165 20.0448 12.5998 19.5276C12.9832 19.0105 13.1901 18.3837 13.19 17.74ZM11.061 20.612L10.19 19.74V20.74C10.4851 20.7404 10.7785 20.6973 11.061 20.612Z" fill="black"/>
<path fill-rule="evenodd" clip-rule="evenodd" d="M7.19 17.74C7.19 18.5356 7.50607 19.2987 8.06868 19.8613C8.63129 20.4239 9.39435 20.74 10.19 20.74V19.74C9.65957 19.74 9.15086 19.5293 8.77579 19.1542C8.40072 18.7791 8.19 18.2704 8.19 17.74V16.74H3.14C3.282 16.563 3.405 16.374 3.51 16.185C3.943 15.405 4.2 14.415 4.363 13.469C4.69 11.571 4.69 9.50399 4.69 8.75199V8.73999C4.69 6.90399 5.27 5.40699 6.214 4.38099C7.15 3.36199 8.502 2.73999 10.19 2.73999V1.73999C6.29 1.73999 3.69 4.64499 3.69 8.73999C3.69 10.231 3.69 16.74 1.19 16.74V17.74H7.19ZM15.69 4.23999V0.73999H16.69V4.23999H20.19V5.23999H16.69V8.73999H15.69V5.23999H12.19V4.23999H15.69Z" fill="black"/>
</g>
</g>
<defs>
<clipPath id="clip0_1_88">
<rect width="20" height="20" fill="white" transform="translate(0.190002 0.23999)"/>
</clipPath>
<clipPath id="clip1_1_88">
<rect width="20" height="20" fill="white" transform="translate(0.190002 0.23999)"/>
</clipPath>
</defs>
</svg>
