<svg width="21" height="21" viewBox="0 0 21 21" fill="none" xmlns="http://www.w3.org/2000/svg">
<g clip-path="url(#clip0_1_96)">
<g clip-path="url(#clip1_1_96)">
<path d="M8.53998 16.74V17.74H9.53998V16.74H8.53998ZM9.53998 16.74V17.74H10.54V16.74H9.53998ZM16.367 13.454L17.252 12.619C17.1725 11.995 17.1171 11.3682 17.086 10.74H16.085C16.127 11.57 16.208 12.53 16.367 13.454Z" fill="black"/>
<path d="M13.54 17.74H19.54V16.74C18.139 16.74 17.523 14.683 17.252 12.62L16.367 13.454C16.53 14.401 16.787 15.394 17.219 16.177C17.325 16.369 17.449 16.56 17.593 16.74H10.54V17.74H12.54C12.54 18.2704 12.3293 18.7791 11.9542 19.1542C11.5791 19.5293 11.0704 19.74 10.54 19.74L11.411 20.612C12.027 20.4249 12.5665 20.0448 12.9498 19.5276C13.3332 19.0105 13.5401 18.3837 13.54 17.74ZM11.411 20.612L10.54 19.74V20.74C10.835 20.7404 11.1285 20.6973 11.411 20.612Z" fill="black"/>
<path fill-rule="evenodd" clip-rule="evenodd" d="M7.53998 17.74C7.53998 18.5356 7.85605 19.2987 8.41866 19.8613C8.98127 20.4239 9.74433 20.74 10.54 20.74V19.74C10.0095 19.74 9.50084 19.5293 9.12576 19.1542C8.75069 18.7791 8.53998 18.2704 8.53998 17.74V16.74H3.48998C3.63198 16.563 3.75498 16.374 3.85998 16.185C4.29298 15.405 4.54998 14.415 4.71298 13.469C5.03998 11.571 5.03998 9.50399 5.03998 8.75199V8.73999C5.03998 6.90399 5.61998 5.40699 6.56398 4.38099C7.49998 3.36199 8.85198 2.73999 10.54 2.73999V1.73999C6.63998 1.73999 4.03998 4.64499 4.03998 8.73999C4.03998 10.231 4.03998 16.74 1.53998 16.74V17.74H7.53998ZM16.04 4.23999V0.73999H17.04V4.23999H20.54V5.23999H17.04V8.73999H16.04V5.23999H12.54V4.23999H16.04Z" fill="black"/>
</g>
</g>
<defs>
<clipPath id="clip0_1_96">
<rect width="20" height="20" fill="white" transform="translate(0.539978 0.23999)"/>
</clipPath>
<clipPath id="clip1_1_96">
<rect width="20" height="20" fill="white" transform="translate(0.539978 0.23999)"/>
</clipPath>
</defs>
</svg>
