<svg width="127" height="23" viewBox="0 0 127 23" fill="none" xmlns="http://www.w3.org/2000/svg">
<path d="M11.9374 17.3317L11.7683 17.2297L11.5992 17.3317L5.58881 20.9593L7.1838 14.1223L7.22868 13.9299L7.07938 13.8006L1.76885 9.20002L8.76118 8.60681L8.9578 8.59012L9.03484 8.40842L11.7683 1.95898L14.5017 8.40842L14.5788 8.59012L14.7754 8.60681L21.7677 9.20002L16.4572 13.8006L16.3079 13.9299L16.3528 14.1223L17.9478 20.9593L11.9374 17.3317Z" fill="url(#paint0_linear_1_481)" stroke="#F45197" stroke-width="0.654545"/>
<path d="M37.9374 17.3317L37.7683 17.2297L37.5992 17.3317L31.5888 20.9593L33.1838 14.1223L33.2287 13.9299L33.0794 13.8006L27.7689 9.20002L34.7612 8.60681L34.9578 8.59012L35.0348 8.40842L37.7683 1.95898L40.5017 8.40842L40.5788 8.59012L40.7754 8.60681L47.7677 9.20002L42.4572 13.8006L42.3079 13.9299L42.3528 14.1223L43.9478 20.9593L37.9374 17.3317Z" fill="url(#paint1_linear_1_481)" stroke="#F45197" stroke-width="0.654545"/>
<path d="M63.9374 17.3317L63.7683 17.2297L63.5992 17.3317L57.5888 20.9593L59.1838 14.1223L59.2287 13.9299L59.0794 13.8006L53.7689 9.20002L60.7612 8.60681L60.9578 8.59012L61.0348 8.40842L63.7683 1.95898L66.5017 8.40842L66.5788 8.59012L66.7754 8.60681L73.7677 9.20002L68.4572 13.8006L68.3079 13.9299L68.3528 14.1223L69.9478 20.9593L63.9374 17.3317Z" fill="url(#paint2_linear_1_481)" stroke="#F45197" stroke-width="0.654545"/>
<path d="M89.9374 17.3317L89.7683 17.2297L89.5992 17.3317L83.5888 20.9593L85.1838 14.1223L85.2287 13.9299L85.0794 13.8006L79.7688 9.20002L86.7612 8.60681L86.9578 8.59012L87.0348 8.40842L89.7683 1.95898L92.5017 8.40842L92.5788 8.59012L92.7754 8.60681L99.7677 9.20002L94.4572 13.8006L94.3079 13.9299L94.3528 14.1223L95.9478 20.9593L89.9374 17.3317Z" fill="url(#paint3_linear_1_481)" stroke="#F45197" stroke-width="0.654545"/>
<path d="M115.937 17.3317L115.768 17.2297L115.599 17.3317L109.589 20.9593L111.184 14.1223L111.229 13.9299L111.079 13.8006L105.769 9.20002L112.761 8.60681L112.958 8.59012L113.035 8.40842L115.768 1.95898L118.502 8.40842L118.579 8.59012L118.775 8.60681L125.768 9.20002L120.457 13.8006L120.308 13.9299L120.353 14.1223L121.948 20.9593L115.937 17.3317Z" fill="url(#paint4_linear_1_481)" stroke="#F45197" stroke-width="0.654545"/>
<defs>
<linearGradient id="paint0_linear_1_481" x1="1.76885" y1="1.95898" x2="21.7677" y2="1.95898" gradientUnits="userSpaceOnUse">
<stop offset="1" stop-color="white"/>
</linearGradient>
<linearGradient id="paint1_linear_1_481" x1="27.7689" y1="1.95898" x2="47.7677" y2="1.95898" gradientUnits="userSpaceOnUse">
<stop offset="1" stop-color="white"/>
</linearGradient>
<linearGradient id="paint2_linear_1_481" x1="53.7689" y1="1.95898" x2="73.7677" y2="1.95898" gradientUnits="userSpaceOnUse">
<stop offset="1" stop-color="white"/>
</linearGradient>
<linearGradient id="paint3_linear_1_481" x1="79.7688" y1="1.95898" x2="99.7677" y2="1.95898" gradientUnits="userSpaceOnUse">
<stop offset="1" stop-color="white"/>
</linearGradient>
<linearGradient id="paint4_linear_1_481" x1="105.769" y1="1.95898" x2="125.768" y2="1.95898" gradientUnits="userSpaceOnUse">
<stop offset="0.51" stop-color="white"/>
</linearGradient>
</defs>
</svg>
