<svg width="127" height="23" viewBox="0 0 127 23" fill="none" xmlns="http://www.w3.org/2000/svg">
<path d="M12.0474 17.5817L11.8783 17.4797L11.7092 17.5817L5.69881 21.2093L7.2938 14.3723L7.33868 14.1799L7.18938 14.0506L1.87885 9.45002L8.87118 8.85681L9.06781 8.84012L9.14485 8.65842L11.8783 2.20898L14.6117 8.65842L14.6888 8.84012L14.8854 8.85681L21.8777 9.45002L16.5672 14.0506L16.4179 14.1799L16.4628 14.3723L18.0578 21.2093L12.0474 17.5817Z" fill="url(#paint0_linear_1_744)" stroke="#F45197" stroke-width="0.654545"/>
<path d="M38.0474 17.5817L37.8783 17.4797L37.7092 17.5817L31.6988 21.2093L33.2938 14.3723L33.3387 14.1799L33.1894 14.0506L27.8789 9.45002L34.8712 8.85681L35.0678 8.84012L35.1448 8.65842L37.8783 2.20898L40.6117 8.65842L40.6888 8.84012L40.8854 8.85681L47.8777 9.45002L42.5672 14.0506L42.4179 14.1799L42.4628 14.3723L44.0578 21.2093L38.0474 17.5817Z" fill="url(#paint1_linear_1_744)" stroke="#F45197" stroke-width="0.654545"/>
<path d="M64.0474 17.5817L63.8783 17.4797L63.7092 17.5817L57.6988 21.2093L59.2938 14.3723L59.3387 14.1799L59.1894 14.0506L53.8789 9.45002L60.8712 8.85681L61.0678 8.84012L61.1448 8.65842L63.8783 2.20898L66.6117 8.65842L66.6888 8.84012L66.8854 8.85681L73.8777 9.45002L68.5672 14.0506L68.4179 14.1799L68.4628 14.3723L70.0578 21.2093L64.0474 17.5817Z" fill="url(#paint2_linear_1_744)" stroke="#F45197" stroke-width="0.654545"/>
<path d="M90.0474 17.5817L89.8783 17.4797L89.7092 17.5817L83.6988 21.2093L85.2938 14.3723L85.3387 14.1799L85.1894 14.0506L79.8788 9.45002L86.8712 8.85681L87.0678 8.84012L87.1448 8.65842L89.8783 2.20898L92.6117 8.65842L92.6888 8.84012L92.8854 8.85681L99.8777 9.45002L94.5672 14.0506L94.4179 14.1799L94.4628 14.3723L96.0578 21.2093L90.0474 17.5817Z" fill="url(#paint3_linear_1_744)" stroke="#F45197" stroke-width="0.654545"/>
<path d="M116.047 17.5817L115.878 17.4797L115.709 17.5817L109.699 21.2093L111.294 14.3723L111.339 14.1799L111.189 14.0506L105.879 9.45002L112.871 8.85681L113.068 8.84012L113.145 8.65842L115.878 2.20898L118.612 8.65842L118.689 8.84012L118.885 8.85681L125.878 9.45002L120.567 14.0506L120.418 14.1799L120.463 14.3723L122.058 21.2093L116.047 17.5817Z" fill="url(#paint4_linear_1_744)" stroke="#F45197" stroke-width="0.654545"/>
<defs>
<linearGradient id="paint0_linear_1_744" x1="1.87885" y1="2.20898" x2="21.8777" y2="2.20898" gradientUnits="userSpaceOnUse">
<stop offset="1" stop-color="white"/>
</linearGradient>
<linearGradient id="paint1_linear_1_744" x1="27.8789" y1="2.20898" x2="47.8777" y2="2.20898" gradientUnits="userSpaceOnUse">
<stop offset="1" stop-color="white"/>
</linearGradient>
<linearGradient id="paint2_linear_1_744" x1="53.8789" y1="2.20898" x2="73.8777" y2="2.20898" gradientUnits="userSpaceOnUse">
<stop offset="1" stop-color="white"/>
</linearGradient>
<linearGradient id="paint3_linear_1_744" x1="79.8788" y1="2.20898" x2="99.8777" y2="2.20898" gradientUnits="userSpaceOnUse">
<stop offset="1" stop-color="white"/>
</linearGradient>
<linearGradient id="paint4_linear_1_744" x1="105.879" y1="2.20898" x2="125.878" y2="2.20898" gradientUnits="userSpaceOnUse">
<stop offset="1" stop-color="white"/>
</linearGradient>
</defs>
</svg>
