<svg width="342" height="21" viewBox="0 0 342 21" fill="none" xmlns="http://www.w3.org/2000/svg">
<path fill-rule="evenodd" clip-rule="evenodd" d="M41.86 0.25C39.4157 0.25 39.1093 0.260365 38.1493 0.304165C37.1914 0.347857 36.5371 0.500005 35.9647 0.722504C35.3728 0.952469 34.8709 1.26021 34.3705 1.76055C33.8702 2.26092 33.5625 2.76283 33.3325 3.35466C33.11 3.92712 32.9578 4.58137 32.9142 5.53931C32.8704 6.49926 32.86 6.80575 32.86 9.25002C32.86 11.6943 32.8704 12.0007 32.9142 12.9607C32.9578 13.9186 33.11 14.5729 33.3325 15.1453C33.5625 15.7372 33.8702 16.2391 34.3705 16.7394C34.8709 17.2398 35.3728 17.5475 35.9647 17.7775C36.5371 18 37.1914 18.1521 38.1493 18.1958C39.1093 18.2396 39.4157 18.25 41.86 18.25C44.3043 18.25 44.6107 18.2396 45.5707 18.1958C46.5286 18.1521 47.1829 18 47.7553 17.7775C48.3472 17.5475 48.8491 17.2398 49.3494 16.7394C49.8498 16.2391 50.1575 15.7372 50.3875 15.1453C50.61 14.5729 50.7622 13.9186 50.8058 12.9607C50.8496 12.0007 50.86 11.6943 50.86 9.25002C50.86 6.80575 50.8496 6.49926 50.8058 5.53931C50.7622 4.58137 50.61 3.92712 50.3875 3.35466C50.1575 2.76283 49.8498 2.26092 49.3494 1.76055C48.8491 1.26021 48.3472 0.952469 47.7553 0.722504C47.1829 0.500005 46.5286 0.347857 45.5707 0.304165C44.6107 0.260365 44.3043 0.25 41.86 0.25ZM41.86 1.87162C44.2631 1.87162 44.5478 1.8808 45.4968 1.9241C46.3743 1.96411 46.8508 2.11073 47.1679 2.23398C47.588 2.39725 47.8878 2.59227 48.2028 2.90723C48.5177 3.22215 48.7127 3.52196 48.876 3.94206C48.9993 4.25919 49.1459 4.73574 49.1859 5.61323C49.2292 6.56224 49.2384 6.84691 49.2384 9.25002C49.2384 11.6531 49.2292 11.9378 49.1859 12.8868C49.1459 13.7643 48.9993 14.2408 48.876 14.5579C48.7127 14.978 48.5177 15.2779 48.2028 15.5928C47.8878 15.9077 47.588 16.1028 47.1679 16.266C46.8508 16.3893 46.3743 16.5359 45.4968 16.5759C44.5479 16.6192 44.2633 16.6284 41.86 16.6284C39.4567 16.6284 39.1721 16.6192 38.2232 16.5759C37.3457 16.5359 36.8692 16.3893 36.552 16.266C36.1319 16.1028 35.8321 15.9077 35.5172 15.5928C35.2023 15.2779 35.0073 14.978 34.844 14.5579C34.7207 14.2408 34.5741 13.7643 34.5341 12.8868C34.4908 11.9378 34.4816 11.6531 34.4816 9.25002C34.4816 6.84691 34.4908 6.56224 34.5341 5.61323C34.5741 4.73574 34.7207 4.25919 34.844 3.94206C35.0073 3.52196 35.2023 3.22215 35.5172 2.90723C35.8321 2.59227 36.1319 2.39725 36.552 2.23398C36.8692 2.11073 37.3457 1.96411 38.2232 1.9241C39.1722 1.8808 39.4569 1.87162 41.86 1.87162ZM41.86 4.62838C39.3075 4.62838 37.2384 6.69754 37.2384 9.25002C37.2384 11.8025 39.3075 13.8716 41.86 13.8716C44.4125 13.8716 46.4816 11.8025 46.4816 9.25002C46.4816 6.69754 44.4125 4.62838 41.86 4.62838ZM41.86 12.25C40.2031 12.25 38.86 10.9069 38.86 9.25002C38.86 7.59314 40.2031 6.25 41.86 6.25C43.5169 6.25 44.86 7.59314 44.86 9.25002C44.86 10.9069 43.5169 12.25 41.86 12.25ZM47.7442 4.44579C47.7442 5.04227 47.2607 5.52577 46.6642 5.52577C46.0678 5.52577 45.5842 5.04227 45.5842 4.44579C45.5842 3.84932 46.0678 3.36577 46.6642 3.36577C47.2607 3.36577 47.7442 3.84932 47.7442 4.44579Z" fill="black"/>
<path d="M92.36 2.09961C87.7211 2.09961 83.96 5.86071 83.96 10.4996C83.96 14.7108 87.0624 18.1884 91.1042 18.796V12.7256H89.0259V10.5178H91.1042V9.04851C91.1042 6.61601 92.2893 5.54851 94.3109 5.54851C95.279 5.54851 95.7914 5.62061 96.0336 5.65281V7.57991H94.6546C93.7964 7.57991 93.4968 8.39401 93.4968 9.31101V10.5178H96.0119L95.671 12.7256H93.4968V18.8135C97.5967 18.2577 100.76 14.7521 100.76 10.4996C100.76 5.86071 96.9989 2.09961 92.36 2.09961Z" fill="black"/>
<path fill-rule="evenodd" clip-rule="evenodd" d="M146.378 0.251953C146.675 2.80638 148.101 4.32932 150.58 4.49134V7.3644C149.143 7.50481 147.885 7.03497 146.422 6.14929V11.5228C146.422 18.349 138.98 20.4822 135.988 15.5893C134.065 12.4409 135.243 6.91616 141.41 6.69474V9.72441C140.94 9.80002 140.438 9.91883 139.979 10.0754C138.607 10.5399 137.829 11.4094 138.045 12.9431C138.461 15.881 143.851 16.7504 143.403 11.0097V0.257354H146.378V0.251953Z" fill="black"/>
<path d="M202.442 4.77776C202.455 4.96921 202.455 5.16066 202.455 5.35387C202.455 11.2412 197.973 18.031 189.778 18.031V18.0275C187.357 18.031 184.986 17.3376 182.948 16.0301C183.3 16.0724 183.654 16.0936 184.009 16.0945C186.015 16.0962 187.964 15.4231 189.542 14.1835C187.636 14.1473 185.964 12.9042 185.38 11.0894C186.048 11.2182 186.736 11.1918 187.391 11.0127C185.313 10.5927 183.817 8.76645 183.817 6.6455C183.817 6.62609 183.817 6.60756 183.817 6.58904C184.437 6.934 185.13 7.12545 185.839 7.14662C183.882 5.83823 183.278 3.23381 184.46 1.19756C186.723 3.98108 190.06 5.67325 193.643 5.85235C193.284 4.30487 193.774 2.68328 194.932 1.59546C196.726 -0.0914222 199.549 -0.00496089 201.236 1.78867C202.233 1.59193 203.19 1.22579 204.065 0.707021C203.732 1.73838 203.036 2.61446 202.106 3.17117C202.99 3.06706 203.852 2.83062 204.665 2.46977C204.067 3.36615 203.313 4.14695 202.442 4.77776Z" fill="black"/>
<path fill-rule="evenodd" clip-rule="evenodd" d="M244.811 12.5705L244.811 5.3804L251.676 8.98784L244.811 12.5705ZM259.886 4.13448C259.886 4.13448 259.637 2.37115 258.876 1.59465C257.909 0.575036 256.826 0.570228 256.33 0.511051C252.774 0.251949 247.441 0.251953 247.441 0.251953H247.429C247.429 0.251953 242.096 0.251949 238.54 0.511051C238.043 0.570228 236.961 0.575036 235.993 1.59465C235.232 2.37115 234.984 4.13448 234.984 4.13448C234.984 4.13448 234.73 6.20569 234.73 8.2761V10.2178C234.73 12.289 234.984 14.3594 234.984 14.3594C234.984 14.3594 235.232 16.1227 235.993 16.8992C236.961 17.9188 238.23 17.8868 238.796 17.9932C240.828 18.1899 247.435 18.2507 247.435 18.2507C247.435 18.2507 252.774 18.2427 256.33 17.9836C256.826 17.9236 257.909 17.9188 258.876 16.8992C259.637 16.1227 259.886 14.3594 259.886 14.3594C259.886 14.3594 260.14 12.289 260.14 10.2178V8.2761C260.14 6.20569 259.886 4.13448 259.886 4.13448Z" fill="black"/>
<path d="M305.379 2.09455C304.14 0.905104 302.425 0.25 300.551 0.25C297.688 0.25 295.926 1.4237 294.953 2.40825C293.754 3.6216 293.066 5.23271 293.066 6.82853C293.066 8.8322 293.904 10.3701 295.308 10.9422C295.402 10.9808 295.497 11.0003 295.59 11.0003C295.886 11.0003 296.121 10.8065 296.202 10.4958C296.249 10.3175 296.359 9.87765 296.407 9.68671C296.509 9.30966 296.426 9.12829 296.204 8.86571C295.798 8.3854 295.609 7.81745 295.609 7.07828C295.609 4.88273 297.243 2.54933 300.273 2.54933C302.678 2.54933 304.171 3.91579 304.171 6.11539C304.171 7.50343 303.872 8.78889 303.329 9.73512C302.952 10.3926 302.288 11.1764 301.269 11.1764C300.829 11.1764 300.433 10.9954 300.184 10.6799C299.948 10.3817 299.87 9.99644 299.965 9.59492C300.072 9.14126 300.218 8.66806 300.36 8.2106C300.617 7.37507 300.861 6.58592 300.861 5.9563C300.861 4.87939 300.199 4.15577 299.214 4.15577C297.962 4.15577 296.981 5.42752 296.981 7.05104C296.981 7.84726 297.192 8.44281 297.288 8.67147C297.131 9.33979 296.193 13.3132 296.015 14.0624C295.912 14.4998 295.293 17.9544 296.318 18.2299C297.47 18.5393 298.5 15.1748 298.605 14.7946C298.689 14.4854 298.987 13.3162 299.169 12.5975C299.725 13.1331 300.62 13.4952 301.491 13.4952C303.134 13.4952 304.611 12.7562 305.65 11.4144C306.658 10.1129 307.214 8.29888 307.214 6.30678C307.214 4.74942 306.545 3.21407 305.379 2.09455Z" fill="black"/>
</svg>
