<svg width="121" height="41" viewBox="0 0 121 41" fill="none" xmlns="http://www.w3.org/2000/svg">
<g clip-path="url(#clip0_1_551)">
<g clip-path="url(#clip1_1_551)">
<g clip-path="url(#clip2_1_551)">
<path d="M110.603 0.430306H10.0026C9.63594 0.430306 9.27364 0.430306 8.90791 0.432306C8.60176 0.434306 8.29805 0.440116 7.98896 0.445006C7.31747 0.452908 6.64756 0.511982 5.98506 0.621716C5.32348 0.733838 4.68263 0.945222 4.08418 1.24872C3.48646 1.55478 2.9403 1.95247 2.46553 2.42738C1.98826 2.90094 1.59042 3.44832 1.28731 4.04847C0.983357 4.64741 0.772597 5.28924 0.662307 5.95179C0.550967 6.61349 0.491055 7.28283 0.483107 7.95379C0.473827 8.26039 0.472847 8.56801 0.467957 8.87465V31.9889C0.472847 32.2994 0.473827 32.6002 0.483107 32.9108C0.491057 33.5817 0.55097 34.251 0.662307 34.9127C0.772292 35.5756 0.983065 36.2178 1.28731 36.817C1.59028 37.4152 1.98818 37.9604 2.46553 38.4313C2.9385 38.9083 3.48501 39.3063 4.08418 39.61C4.68262 39.9143 5.32341 40.127 5.98506 40.2408C6.64768 40.3497 7.31751 40.4088 7.98896 40.4176C8.29805 40.4244 8.60176 40.4283 8.90791 40.4283C9.27363 40.4303 9.63596 40.4303 10.0026 40.4303H110.603C110.962 40.4303 111.327 40.4303 111.687 40.4283C111.991 40.4283 112.304 40.4244 112.609 40.4176C113.279 40.4092 113.947 40.3501 114.609 40.2408C115.272 40.1262 115.915 39.9136 116.517 39.61C117.115 39.3061 117.661 38.9082 118.134 38.4313C118.61 37.9585 119.009 37.4138 119.316 36.817C119.618 36.2174 119.826 35.5752 119.935 34.9127C120.046 34.2509 120.108 33.5818 120.12 32.9108C120.124 32.6002 120.124 32.2994 120.124 31.9889C120.132 31.6256 120.132 31.2643 120.132 30.8951V9.96644C120.132 9.60023 120.132 9.23695 120.124 8.87465C120.124 8.56801 120.124 8.26039 120.12 7.95375C120.108 7.28273 120.046 6.61354 119.935 5.95175C119.826 5.28959 119.617 4.64781 119.316 4.04843C118.698 2.8455 117.72 1.86633 116.517 1.24863C115.915 0.945873 115.272 0.734546 114.609 0.621626C113.947 0.511409 113.279 0.452314 112.609 0.444866C112.304 0.439986 111.991 0.434126 111.687 0.432176C111.327 0.430176 110.962 0.430306 110.603 0.430306Z" fill="black"/>
<path d="M8.91276 39.5552C8.60808 39.5552 8.31076 39.5513 8.00847 39.5445C7.38225 39.5363 6.7575 39.4818 6.13933 39.3814C5.56292 39.2821 5.00454 39.0974 4.48259 38.8335C3.96543 38.5717 3.49374 38.2284 3.08559 37.8169C2.67153 37.4102 2.32681 36.9384 2.06508 36.4204C1.80047 35.899 1.61735 35.3401 1.52208 34.7632C1.41921 34.1433 1.36355 33.5165 1.35558 32.8882C1.34924 32.6773 1.34094 31.9751 1.34094 31.9751V8.87452C1.34094 8.87452 1.34978 8.18311 1.35563 7.97998C1.36326 7.35266 1.41859 6.72683 1.52116 6.10791C1.6166 5.52943 1.79987 4.96892 2.06462 4.44581C2.32539 3.92812 2.6682 3.45604 3.07976 3.04786C3.49087 2.6358 3.96406 2.29078 4.4821 2.02539C5.00285 1.76227 5.56018 1.57891 6.13542 1.48145C6.75562 1.38001 7.38254 1.32517 8.01093 1.31739L8.91325 1.30518H111.682L112.595 1.31788C113.218 1.32528 113.839 1.37963 114.453 1.48047C115.034 1.57915 115.598 1.76379 116.124 2.02832C117.162 2.56316 118.006 3.40934 118.539 4.44825C118.8 4.96775 118.98 5.52368 119.074 6.09717C119.178 6.72117 119.236 7.35191 119.248 7.98438C119.251 8.26758 119.251 8.57178 119.251 8.87452C119.259 9.24952 119.259 9.60645 119.259 9.96631V30.895C119.259 31.2583 119.259 31.6128 119.251 31.9702C119.251 32.2954 119.251 32.5933 119.247 32.8999C119.236 33.521 119.178 34.1405 119.076 34.7534C118.983 35.3344 118.801 35.8977 118.536 36.4234C118.273 36.9358 117.93 37.4034 117.521 37.8091C117.112 38.2229 116.64 38.5681 116.121 38.8316C115.596 39.0976 115.034 39.2829 114.453 39.3814C113.835 39.4823 113.21 39.5369 112.584 39.5445C112.291 39.5513 111.985 39.5552 111.687 39.5552L110.603 39.5572L8.91276 39.5552Z" fill="white"/>
<path d="M25.4647 20.3194C25.4759 19.4514 25.7064 18.6004 26.1349 17.8455C26.5633 17.0906 27.1758 16.4563 27.9153 16.0017C27.4455 15.3308 26.8258 14.7786 26.1053 14.3892C25.3848 13.9997 24.5835 13.7835 23.7649 13.7579C22.0186 13.5746 20.3257 14.8028 19.4359 14.8028C18.5288 14.8028 17.1587 13.7761 15.6834 13.8065C14.7291 13.8373 13.7991 14.1148 12.9839 14.6119C12.1688 15.1091 11.4963 15.8089 11.032 16.6432C9.02092 20.1252 10.521 25.2425 12.4475 28.0572C13.4114 29.4354 14.5379 30.9749 16.0119 30.9203C17.4543 30.8605 17.993 30.0005 19.7341 30.0005C21.4591 30.0005 21.9645 30.9203 23.4684 30.8856C25.0162 30.8605 25.9913 29.5012 26.9214 28.11C27.6139 27.1279 28.1469 26.0426 28.5004 24.8941C27.6012 24.5138 26.8338 23.8772 26.294 23.0636C25.7542 22.2501 25.4657 21.2957 25.4647 20.3194Z" fill="black"/>
<path d="M22.6241 11.9067C23.468 10.8937 23.8838 9.59153 23.7831 8.27686C22.4938 8.41227 21.3028 9.02847 20.4475 10.0027C20.0293 10.4786 19.7091 11.0323 19.505 11.6321C19.3009 12.2318 19.2171 12.866 19.2582 13.4982C19.9031 13.5048 20.541 13.365 21.1241 13.0894C21.7071 12.8137 22.22 12.4094 22.6241 11.9067Z" fill="black"/>
<path d="M42.7697 27.5694H38.0363L36.8996 30.9258H34.8947L39.3781 18.5078H41.4611L45.9445 30.9258H43.9055L42.7697 27.5694ZM38.5266 26.0205H42.2786L40.429 20.5733H40.3772L38.5266 26.0205Z" fill="black"/>
<path d="M55.6272 26.3996C55.6272 29.2131 54.1213 31.0207 51.8488 31.0207C51.2732 31.0508 50.7007 30.9182 50.1969 30.6381C49.6931 30.358 49.2784 29.9416 49.0002 29.4367H48.9572V33.9211H47.0988V21.8723H48.8976V23.3781H48.9318C49.2228 22.8757 49.6445 22.4615 50.1521 22.1796C50.6598 21.8978 51.2343 21.7588 51.8146 21.7775C54.1125 21.7776 55.6272 23.594 55.6272 26.3996ZM53.717 26.3996C53.717 24.5666 52.7697 23.3615 51.3244 23.3615C49.9045 23.3615 48.9494 24.592 48.9494 26.3996C48.9494 28.2238 49.9045 29.4455 51.3244 29.4455C52.7697 29.4455 53.717 28.2492 53.717 26.3996Z" fill="black"/>
<path d="M65.5925 26.3996C65.5925 29.2131 64.0861 31.0207 61.8137 31.0207C61.238 31.0508 60.6655 30.9182 60.1617 30.6381C59.6579 30.358 59.2432 29.9416 58.9651 29.4367H58.9221V33.9211H57.0637V21.8723H58.8625V23.3781H58.8967C59.1876 22.8757 59.6094 22.4615 60.117 22.1796C60.6246 21.8978 61.1992 21.7588 61.7795 21.7775C64.0774 21.7776 65.5925 23.594 65.5925 26.3996ZM63.6819 26.3996C63.6819 24.5666 62.7346 23.3615 61.2893 23.3615C59.8694 23.3615 58.9143 24.592 58.9143 26.3996C58.9143 28.2238 59.8694 29.4455 61.2893 29.4455C62.7346 29.4455 63.6819 28.2492 63.6819 26.3996Z" fill="black"/>
<path d="M72.1774 27.4659C72.3151 28.6973 73.5114 29.5059 75.1462 29.5059C76.7126 29.5059 77.8396 28.6973 77.8396 27.5869C77.8396 26.6231 77.1599 26.0459 75.5505 25.6504L73.9411 25.2627C71.6609 24.7119 70.6023 23.6455 70.6023 21.915C70.6023 19.7725 72.4694 18.3008 75.1198 18.3008C77.7448 18.3008 79.5437 19.7725 79.6042 21.915H77.7282C77.6159 20.6758 76.5915 19.9277 75.0944 19.9277C73.5974 19.9277 72.5729 20.6846 72.5729 21.7861C72.5729 22.6641 73.2272 23.1807 74.8278 23.5761L76.196 23.9121C78.7438 24.5146 79.8015 25.5381 79.8015 27.3545C79.8015 29.6777 77.9518 31.1328 75.0085 31.1328C72.2545 31.1328 70.3952 29.7119 70.2751 27.4658L72.1774 27.4659Z" fill="black"/>
<path d="M83.8142 19.7295V21.8721H85.5359V23.3438H83.8142V28.335C83.8142 29.1104 84.1589 29.4717 84.9157 29.4717C85.1201 29.4681 85.3242 29.4538 85.5271 29.4287V30.8916C85.1868 30.9552 84.8409 30.9839 84.4948 30.9775C82.6618 30.9775 81.947 30.289 81.947 28.5332V23.3438H80.6306V21.8721H81.947V19.7295H83.8142Z" fill="black"/>
<path d="M86.532 26.3994C86.532 23.5508 88.2097 21.7607 90.8259 21.7607C93.4509 21.7607 95.1208 23.5507 95.1208 26.3994C95.1208 29.2559 93.4597 31.0381 90.8259 31.0381C88.1931 31.0381 86.532 29.2559 86.532 26.3994ZM93.2273 26.3994C93.2273 24.4453 92.3318 23.292 90.8259 23.292C89.3201 23.292 88.4246 24.4541 88.4246 26.3994C88.4246 28.3613 89.3201 29.5059 90.8259 29.5059C92.3318 29.5059 93.2273 28.3613 93.2273 26.3994Z" fill="black"/>
<path d="M96.653 21.8722H98.4255V23.4132H98.4685C98.5884 22.9319 98.8704 22.5066 99.2669 22.2087C99.6635 21.9108 100.151 21.7585 100.646 21.7775C100.86 21.7767 101.074 21.8 101.283 21.8468V23.5851C101.013 23.5025 100.731 23.4645 100.448 23.4728C100.178 23.4618 99.9088 23.5094 99.659 23.6123C99.4091 23.7152 99.1845 23.8709 99.0005 24.0688C98.8166 24.2667 98.6776 24.5021 98.5932 24.7587C98.5087 25.0154 98.4808 25.2873 98.5114 25.5558V30.9259H96.653L96.653 21.8722Z" fill="black"/>
<path d="M109.851 28.2666C109.601 29.9102 108.001 31.0381 105.953 31.0381C103.319 31.0381 101.684 29.2734 101.684 26.4424C101.684 23.6025 103.328 21.7607 105.875 21.7607C108.38 21.7607 109.955 23.4814 109.955 26.2266V26.8633H103.56V26.9756C103.531 27.3088 103.572 27.6444 103.683 27.9603C103.793 28.2761 103.969 28.5649 104.199 28.8075C104.43 29.05 104.709 29.2408 105.019 29.3671C105.328 29.4934 105.662 29.5523 105.996 29.54C106.435 29.5812 106.876 29.4795 107.252 29.25C107.629 29.0206 107.922 28.6757 108.087 28.2666L109.851 28.2666ZM103.569 25.5645H108.095C108.112 25.2649 108.067 24.965 107.962 24.6838C107.857 24.4026 107.696 24.1461 107.487 23.9303C107.279 23.7146 107.028 23.5442 106.75 23.43C106.473 23.3158 106.175 23.2602 105.875 23.2666C105.572 23.2648 105.272 23.3229 104.992 23.4377C104.712 23.5524 104.457 23.7215 104.243 23.9351C104.029 24.1488 103.859 24.4027 103.743 24.6824C103.627 24.962 103.568 25.2618 103.569 25.5645Z" fill="black"/>
<path d="M38.2942 9.16107C38.6838 9.13311 39.0747 9.19197 39.4388 9.3334C39.803 9.47483 40.1311 9.69531 40.3997 9.97894C40.6683 10.2626 40.8706 10.6023 40.992 10.9735C41.1134 11.3448 41.1509 11.7384 41.1018 12.1259C41.1018 14.0322 40.0715 15.1279 38.2942 15.1279H36.1389V9.16107H38.2942ZM37.0656 14.2841H38.1906C38.469 14.3007 38.7477 14.2551 39.0062 14.1504C39.2647 14.0458 39.4967 13.8849 39.6852 13.6793C39.8737 13.4738 40.014 13.2287 40.0958 12.9621C40.1777 12.6955 40.1991 12.414 40.1584 12.1381C40.1961 11.8632 40.1726 11.5835 40.0894 11.3188C40.0063 11.0541 39.8657 10.8111 39.6776 10.6072C39.4896 10.4033 39.2587 10.2435 39.0016 10.1392C38.7446 10.035 38.4676 9.98891 38.1906 10.0043H37.0656V14.2841Z" fill="black"/>
<path d="M42.1487 12.8745C42.1203 12.5785 42.1542 12.28 42.248 11.9979C42.3419 11.7158 42.4936 11.4565 42.6936 11.2365C42.8935 11.0165 43.1372 10.8408 43.4091 10.7205C43.6809 10.6002 43.9749 10.5381 44.2722 10.5381C44.5695 10.5381 44.8635 10.6002 45.1353 10.7205C45.4072 10.8408 45.6509 11.0165 45.8508 11.2365C46.0507 11.4565 46.2025 11.7158 46.2963 11.9979C46.3902 12.28 46.424 12.5785 46.3957 12.8745C46.4246 13.1707 46.3911 13.4697 46.2975 13.7522C46.2039 14.0347 46.0523 14.2945 45.8523 14.5149C45.6523 14.7354 45.4084 14.9115 45.1363 15.032C44.8641 15.1526 44.5698 15.2148 44.2722 15.2148C43.9746 15.2148 43.6802 15.1526 43.4081 15.032C43.136 14.9115 42.8921 14.7354 42.6921 14.5149C42.4921 14.2945 42.3404 14.0347 42.2469 13.7522C42.1533 13.4697 42.1198 13.1707 42.1487 12.8745ZM45.4817 12.8745C45.4817 11.8984 45.0432 11.3276 44.2737 11.3276C43.5012 11.3276 43.0667 11.8984 43.0667 12.8745C43.0667 13.8584 43.5012 14.4248 44.2737 14.4248C45.0432 14.4248 45.4817 13.8544 45.4817 12.8745Z" fill="black"/>
<path d="M52.0412 15.1279H51.1194L50.1887 11.8115H50.1184L49.1916 15.1279H48.2785L47.0373 10.625H47.9387L48.7453 14.061H48.8117L49.7375 10.625H50.5901L51.5158 14.061H51.5862L52.3889 10.625H53.2776L52.0412 15.1279Z" fill="black"/>
<path d="M54.3215 10.625H55.177V11.3404H55.2434C55.356 11.0835 55.546 10.8681 55.7869 10.7243C56.0278 10.5805 56.3075 10.5154 56.5871 10.5381C56.8062 10.5217 57.0262 10.5547 57.2308 10.6348C57.4354 10.7149 57.6194 10.84 57.7691 11.0008C57.9187 11.1617 58.0303 11.3541 58.0955 11.564C58.1607 11.7738 58.1779 11.9956 58.1457 12.2129V15.1279H57.2571V12.4361C57.2571 11.7125 56.9426 11.3526 56.2854 11.3526C56.1366 11.3457 55.9881 11.371 55.8501 11.4268C55.712 11.4826 55.5877 11.5677 55.4855 11.676C55.3834 11.7844 55.3059 11.9136 55.2584 12.0547C55.2109 12.1959 55.1944 12.3456 55.2102 12.4937V15.128H54.3215L54.3215 10.625Z" fill="black"/>
<path d="M59.5617 8.86719H60.4504V15.1279H59.5617V8.86719Z" fill="black"/>
<path d="M61.6857 12.8745C61.6575 12.5786 61.6913 12.28 61.7852 11.9979C61.8791 11.7159 62.0308 11.4565 62.2308 11.2365C62.4308 11.0165 62.6745 10.8408 62.9464 10.7205C63.2182 10.6002 63.5122 10.5381 63.8095 10.5381C64.1068 10.5381 64.4008 10.6002 64.6727 10.7205C64.9446 10.8408 65.1883 11.0165 65.3882 11.2365C65.5882 11.4565 65.74 11.7159 65.8338 11.9979C65.9277 12.28 65.9616 12.5786 65.9333 12.8745C65.9621 13.1708 65.9286 13.4698 65.835 13.7523C65.7414 14.0348 65.5897 14.2946 65.3897 14.515C65.1897 14.7354 64.9458 14.9116 64.6736 15.0321C64.4015 15.1526 64.1072 15.2149 63.8095 15.2149C63.5119 15.2149 63.2175 15.1526 62.9454 15.0321C62.6733 14.9116 62.4294 14.7354 62.2294 14.515C62.0293 14.2946 61.8777 14.0348 61.784 13.7523C61.6904 13.4698 61.6569 13.1708 61.6857 12.8745ZM65.0187 12.8745C65.0187 11.8985 64.5803 11.3277 63.8107 11.3277C63.0383 11.3277 62.6037 11.8985 62.6037 12.8746C62.6037 13.8584 63.0383 14.4248 63.8107 14.4248C64.5803 14.4248 65.0187 13.8545 65.0187 12.8745Z" fill="black"/>
<path d="M66.8689 13.8545C66.8689 13.0439 67.4724 12.5767 68.5437 12.5102L69.7634 12.4399V12.0513C69.7634 11.5757 69.4489 11.3071 68.8415 11.3071C68.3454 11.3071 68.0017 11.4893 67.903 11.8076H67.0427C67.1335 11.0342 67.8611 10.5381 68.8825 10.5381C70.0114 10.5381 70.6482 11.1001 70.6482 12.0513V15.1279H69.7927V14.4951H69.7224C69.5797 14.7221 69.3793 14.9072 69.1416 15.0314C68.904 15.1556 68.6377 15.2145 68.3698 15.2021C68.1808 15.2218 67.9898 15.2016 67.809 15.1429C67.6282 15.0842 67.4618 14.9883 67.3204 14.8613C67.1789 14.7343 67.0657 14.5792 66.9879 14.4057C66.9102 14.2323 66.8696 14.0445 66.8689 13.8545ZM69.7634 13.4697V13.0933L68.6638 13.1636C68.0437 13.2051 67.7624 13.416 67.7624 13.813C67.7624 14.2182 68.114 14.4541 68.5974 14.4541C68.7391 14.4684 68.8821 14.4541 69.0181 14.412C69.1541 14.3699 69.2803 14.3009 69.3891 14.2091C69.4979 14.1172 69.5871 14.0045 69.6514 13.8774C69.7157 13.7504 69.7538 13.6118 69.7634 13.4697Z" fill="black"/>
<path d="M71.8161 12.8745C71.8161 11.4517 72.5476 10.5503 73.6853 10.5503C73.9667 10.5373 74.246 10.6047 74.4905 10.7446C74.735 10.8845 74.9347 11.0911 75.0661 11.3403H75.1325V8.86719H76.0212V15.1279H75.1697V14.4165H75.0993C74.9577 14.664 74.7511 14.868 74.5019 15.0065C74.2526 15.145 73.9702 15.2126 73.6853 15.2021C72.5398 15.2022 71.8161 14.3008 71.8161 12.8745ZM72.7341 12.8745C72.7341 13.8296 73.1843 14.4043 73.9373 14.4043C74.6863 14.4043 75.1492 13.8213 75.1492 12.8784C75.1492 11.94 74.6814 11.3486 73.9373 11.3486C73.1892 11.3486 72.7341 11.9273 72.7341 12.8745Z" fill="black"/>
<path d="M79.698 12.8745C79.6697 12.5785 79.7035 12.28 79.7974 11.9979C79.8912 11.7158 80.043 11.4565 80.2429 11.2365C80.4428 11.0165 80.6865 10.8408 80.9584 10.7205C81.2302 10.6002 81.5242 10.5381 81.8215 10.5381C82.1188 10.5381 82.4128 10.6002 82.6846 10.7205C82.9565 10.8408 83.2002 11.0165 83.4001 11.2365C83.6001 11.4565 83.7518 11.7158 83.8457 11.9979C83.9395 12.28 83.9734 12.5785 83.945 12.8745C83.9739 13.1707 83.9404 13.4697 83.8468 13.7522C83.7533 14.0347 83.6016 14.2945 83.4016 14.5149C83.2016 14.7354 82.9577 14.9115 82.6856 15.032C82.4135 15.1526 82.1191 15.2148 81.8215 15.2148C81.5239 15.2148 81.2295 15.1526 80.9574 15.032C80.6853 14.9115 80.4414 14.7354 80.2414 14.5149C80.0414 14.2945 79.8898 14.0347 79.7962 13.7522C79.7026 13.4697 79.6691 13.1707 79.698 12.8745ZM83.031 12.8745C83.031 11.8984 82.5925 11.3276 81.823 11.3276C81.0505 11.3276 80.616 11.8984 80.616 12.8745C80.616 13.8584 81.0505 14.4248 81.823 14.4248C82.5925 14.4248 83.031 13.8544 83.031 12.8745Z" fill="black"/>
<path d="M85.1374 10.625H85.9929V11.3404H86.0593C86.172 11.0835 86.362 10.8681 86.6028 10.7243C86.8437 10.5805 87.1234 10.5154 87.4031 10.5381C87.6222 10.5217 87.8421 10.5547 88.0467 10.6348C88.2513 10.7149 88.4353 10.84 88.585 11.0008C88.7347 11.1617 88.8462 11.3541 88.9114 11.564C88.9766 11.7738 88.9938 11.9956 88.9616 12.2129V15.1279H88.073V12.4361C88.073 11.7125 87.7585 11.3526 87.1013 11.3526C86.9525 11.3457 86.804 11.371 86.666 11.4268C86.5279 11.4826 86.4036 11.5677 86.3014 11.676C86.1993 11.7844 86.1218 11.9136 86.0743 12.0547C86.0268 12.1959 86.0103 12.3456 86.0261 12.4937V15.128H85.1374V10.625Z" fill="black"/>
<path d="M93.9831 9.50391V10.6455H94.9587V11.394H93.9831V13.7095C93.9831 14.1812 94.1775 14.3877 94.6198 14.3877C94.7331 14.3873 94.8462 14.3805 94.9587 14.3672V15.1074C94.7991 15.136 94.6374 15.1512 94.4753 15.1528C93.487 15.1528 93.0935 14.8052 93.0935 13.937V11.394H92.3786V10.6455H93.0935V9.50391H93.9831Z" fill="black"/>
<path d="M96.1726 8.86719H97.0534V11.3486H97.1237C97.2419 11.0893 97.4371 10.8727 97.6828 10.7284C97.9285 10.584 98.2127 10.5189 98.4967 10.542C98.7147 10.5301 98.9326 10.5665 99.1349 10.6486C99.3372 10.7306 99.5188 10.8563 99.667 11.0166C99.8151 11.177 99.926 11.368 99.9918 11.5761C100.058 11.7843 100.077 12.0044 100.048 12.2207V15.1279H99.158V12.4399C99.158 11.7207 98.823 11.3564 98.1951 11.3564C98.0423 11.3439 97.8887 11.3649 97.7449 11.418C97.6011 11.471 97.4707 11.5548 97.3627 11.6636C97.2547 11.7723 97.1718 11.9033 97.1197 12.0475C97.0677 12.1916 97.0477 12.3454 97.0613 12.498V15.1279H96.1726L96.1726 8.86719Z" fill="black"/>
<path d="M105.229 13.9122C105.108 14.3237 104.847 14.6797 104.49 14.9179C104.134 15.156 103.704 15.2612 103.278 15.2149C102.981 15.2227 102.687 15.1659 102.414 15.0484C102.142 14.9309 101.898 14.7554 101.7 14.5343C101.502 14.3132 101.355 14.0516 101.268 13.7678C101.181 13.484 101.157 13.1847 101.198 12.8907C101.158 12.5958 101.183 12.2959 101.269 12.0112C101.356 11.7265 101.502 11.4638 101.699 11.2407C101.896 11.0176 102.139 10.8395 102.41 10.7182C102.682 10.597 102.977 10.5356 103.274 10.5382C104.527 10.5382 105.283 11.3942 105.283 12.8082V13.1183H102.103V13.1681C102.089 13.3333 102.11 13.4996 102.164 13.6564C102.218 13.8131 102.305 13.9568 102.418 14.0783C102.53 14.1997 102.667 14.2963 102.82 14.3617C102.972 14.4271 103.137 14.4599 103.302 14.4581C103.515 14.4836 103.73 14.4453 103.921 14.3481C104.112 14.2509 104.269 14.0991 104.374 13.9122L105.229 13.9122ZM102.103 12.461H104.378C104.389 12.3099 104.368 12.1581 104.317 12.0154C104.266 11.8726 104.186 11.7422 104.082 11.6323C103.977 11.5225 103.851 11.4356 103.711 11.3775C103.571 11.3193 103.421 11.291 103.269 11.2945C103.116 11.2926 102.963 11.3214 102.821 11.3794C102.678 11.4373 102.549 11.5232 102.44 11.6319C102.332 11.7406 102.246 11.87 102.188 12.0124C102.13 12.1548 102.101 12.3073 102.103 12.461Z" fill="black"/>
</g>
</g>
</g>
<defs>
<clipPath id="clip0_1_551">
<rect width="120" height="40" fill="white" transform="translate(0.299988 0.430176)"/>
</clipPath>
<clipPath id="clip1_1_551">
<rect width="120" height="40" fill="white" transform="translate(0.299988 0.430176)"/>
</clipPath>
<clipPath id="clip2_1_551">
<rect width="119.664" height="40" fill="white" transform="translate(0.467957 0.430176)"/>
</clipPath>
</defs>
</svg>
