<svg width="361" height="29" viewBox="0 0 361 29" fill="none" xmlns="http://www.w3.org/2000/svg">
<g clip-path="url(#clip0_1_591)">
<g clip-path="url(#clip1_1_591)">
<path fill-rule="evenodd" clip-rule="evenodd" d="M13.7999 4.86941C17.0441 4.86941 17.4283 4.8818 18.7096 4.94026C19.8942 4.99432 20.5375 5.19221 20.9657 5.3586C21.4934 5.55338 21.9708 5.86395 22.3626 6.26748C22.7662 6.6594 23.0767 7.13677 23.2716 7.66451C23.438 8.09264 23.6358 8.73597 23.6898 9.92058C23.7484 11.2018 23.7607 11.586 23.7607 14.8304C23.7607 18.0746 23.7484 18.4588 23.6898 19.7401C23.6358 20.9247 23.4379 21.568 23.2716 21.9962C23.0694 22.5202 22.7599 22.9961 22.3627 23.3932C21.9655 23.7904 21.4897 24.0999 20.9657 24.3021C20.5375 24.4685 19.8942 24.6664 18.7096 24.7204C17.4287 24.7789 17.0444 24.7912 13.7999 24.7912C10.5554 24.7912 10.1713 24.7789 8.89016 24.7204C7.70557 24.6664 7.06229 24.4684 6.63411 24.3021C6.10638 24.1073 5.62901 23.7968 5.2371 23.3932C4.83357 23.0012 4.523 22.5239 4.32822 21.9962C4.16183 21.5681 3.9639 20.9247 3.90988 19.7401C3.85142 18.459 3.83904 18.0746 3.83904 14.8304C3.83904 11.586 3.85142 11.2019 3.90988 9.92058C3.96395 8.73597 4.16183 8.09268 4.32822 7.66451C4.52302 7.13674 4.83362 6.65936 5.23719 6.26744C5.6291 5.8639 6.10647 5.55333 6.63421 5.35855C7.06233 5.19216 7.70566 4.99423 8.89026 4.94021C10.1715 4.88176 10.5556 4.86941 13.7999 4.86941ZM13.7999 2.68018C10.5002 2.68018 10.0863 2.69416 8.79062 2.75329C7.49735 2.81232 6.61418 3.01769 5.84137 3.31806C5.03067 3.62315 4.29627 4.10139 3.68938 4.71946C3.07118 5.32632 2.59279 6.06072 2.2876 6.87146C1.98747 7.64434 1.78211 8.52752 1.72332 9.82079C1.66395 11.1165 1.64996 11.5304 1.64996 14.8302C1.64996 18.13 1.66395 18.5439 1.72332 19.8396C1.78235 21.1328 1.98771 22.0161 2.28808 22.7889C2.59316 23.5996 3.07142 24.334 3.68948 24.9409C4.29635 25.559 5.03075 26.0372 5.84145 26.3423C6.61433 26.6427 7.4975 26.848 8.79072 26.9071C10.0866 26.9661 10.5004 26.9802 13.8001 26.9802C17.0998 26.9802 17.5138 26.9661 18.8094 26.9071C20.1027 26.848 20.9858 26.6427 21.7587 26.3423C22.5658 26.0301 23.2988 25.5528 23.9107 24.9409C24.5226 24.329 24.9999 23.596 25.3121 22.7889C25.6125 22.016 25.8178 21.1328 25.8768 19.8396C25.9359 18.5436 25.95 18.1299 25.95 14.8302C25.95 11.5305 25.9359 11.1165 25.8768 9.82079C25.8178 8.52752 25.6125 7.64434 25.3121 6.87151C25.007 6.0608 24.5288 5.3264 23.9107 4.71951C23.3037 4.10132 22.5693 3.62296 21.7586 3.31782C20.9857 3.01769 20.1025 2.81232 18.8092 2.75353C17.5135 2.69416 17.0996 2.68018 13.7999 2.68018ZM13.7999 8.59094C12.5658 8.59094 11.3595 8.95685 10.3335 9.64243C9.30749 10.328 8.5078 11.3024 8.03557 12.4425C7.56335 13.5826 7.43979 14.8371 7.68053 16.0473C7.92127 17.2577 8.51549 18.3693 9.38805 19.242C10.2606 20.1145 11.3723 20.7087 12.5826 20.9495C13.7928 21.1902 15.0474 21.0666 16.1874 20.5945C17.3275 20.1222 18.3019 19.3225 18.9875 18.2964C19.673 17.2704 20.039 16.0642 20.039 14.8302C20.039 13.1754 19.3816 11.5884 18.2115 10.4184C17.0415 9.24828 15.4545 8.59094 13.7999 8.59094ZM13.7999 18.8801C12.9988 18.8801 12.2158 18.6426 11.5498 18.1975C10.8838 17.7525 10.3647 17.12 10.0582 16.38C9.75166 15.64 9.67146 14.8256 9.82773 14.04C9.98401 13.2543 10.3697 12.5328 10.9361 11.9664C11.5025 11.4 12.2241 11.0143 13.0097 10.858C13.7954 10.7017 14.6096 10.7819 15.3498 11.0885C16.0898 11.395 16.7222 11.9141 17.1673 12.5801C17.6123 13.2461 17.8497 14.0291 17.8497 14.8302C17.8497 15.9042 17.423 16.9344 16.6636 17.6939C15.904 18.4535 14.8739 18.8801 13.7999 18.8801ZM21.7436 8.34454C21.7436 9.14976 21.0908 9.80252 20.2856 9.80252C19.4803 9.80252 18.8276 9.14976 18.8276 8.34454C18.8276 7.53932 19.4803 6.88656 20.2856 6.88656C21.0908 6.88656 21.7436 7.53932 21.7436 8.34454Z" fill="white"/>
</g>
</g>
<g clip-path="url(#clip2_1_591)">
<g clip-path="url(#clip3_1_591)">
<path d="M62.4404 10.1803C61.5665 9.99341 60.7752 9.53226 60.1819 8.86412C59.5885 8.19596 59.224 7.35575 59.1416 6.46596V6.08008H56.1273V18.0431C56.1254 18.5727 55.9576 19.0884 55.6475 19.5178C55.3375 19.9471 54.9006 20.2686 54.3985 20.4368C53.8963 20.6051 53.354 20.6119 52.8478 20.456C52.3416 20.3002 51.897 19.9898 51.5764 19.5682C51.2508 19.1396 51.0701 18.6185 51.0607 18.0803C51.0513 17.5421 51.2135 17.0149 51.5238 16.5752C51.8342 16.1354 52.2766 15.806 52.7868 15.6345C53.297 15.4632 53.8486 15.4587 54.3615 15.6219V12.5595C53.2177 12.4013 52.0532 12.6047 51.0307 13.1411C50.0082 13.6774 49.1789 14.5199 48.6588 15.5508C48.1388 16.5817 47.9539 17.7493 48.1302 18.8905C48.3064 20.0315 48.8349 21.089 49.6417 21.915C50.4112 22.7022 51.3978 23.2424 52.4756 23.4664C53.5534 23.6905 54.6735 23.5883 55.693 23.1729C56.7124 22.7575 57.5849 22.0477 58.1992 21.1342C58.8134 20.2207 59.1415 19.1448 59.1416 18.044V11.9312C60.3599 12.8021 61.8204 13.2691 63.318 13.2665V10.2713C63.0231 10.2717 62.7289 10.2412 62.4404 10.1803Z" fill="white"/>
</g>
</g>
<g clip-path="url(#clip4_1_591)">
<g clip-path="url(#clip5_1_591)">
<path fill-rule="evenodd" clip-rule="evenodd" d="M97.5579 2.71675C97.4439 2.74493 97.1512 2.79414 96.9072 2.82624C96.4057 2.89211 96.0895 2.95697 95.5763 3.09921C95.3811 3.15331 95.1479 3.2121 95.0581 3.22994C94.9682 3.24771 94.8801 3.28599 94.8623 3.31489C94.8445 3.34383 94.789 3.3675 94.7389 3.3675C94.6888 3.3675 94.5506 3.41035 94.4318 3.46272C94.3131 3.5151 94.1626 3.58007 94.0976 3.60711C93.4707 3.86772 92.3395 4.47162 92.3034 4.56489C92.2925 4.5929 92.2588 4.61583 92.2285 4.61583C92.181 4.61583 91.3706 5.1776 91.2879 5.26783C91.2717 5.28561 91.1519 5.37964 91.0218 5.47684C90.7509 5.67919 89.336 7.10533 89.336 7.17607C89.336 7.20187 89.3021 7.25828 89.2606 7.3015C89.1187 7.44934 88.5671 8.24008 88.5671 8.29555C88.5671 8.32603 88.5442 8.35986 88.5164 8.3708C88.4236 8.40706 87.8226 9.54395 87.5633 10.1739C87.5364 10.2393 87.4718 10.3905 87.4197 10.5099C87.3676 10.6292 87.3249 10.7681 87.3249 10.8184C87.3249 10.8688 87.3014 10.9246 87.2726 10.9425C87.2438 10.9603 87.2057 11.0489 87.188 11.1392C87.1703 11.2295 87.1118 11.4639 87.058 11.6601C86.7529 12.7718 86.6488 13.5911 86.65 14.8701C86.6512 16.1786 86.7608 17.0565 87.058 18.1396C87.1118 18.3357 87.1703 18.5701 87.188 18.6604C87.2057 18.7507 87.2438 18.8393 87.2726 18.8572C87.3014 18.875 87.3249 18.9308 87.3249 18.9812C87.3249 19.0316 87.3676 19.1704 87.4197 19.2898C87.4718 19.4092 87.5364 19.5604 87.5633 19.6257C87.8226 20.2557 88.4236 21.3926 88.5164 21.4289C88.5442 21.4398 88.5671 21.4736 88.5671 21.5041C88.5671 21.5595 89.1187 22.3503 89.2606 22.4982C89.3021 22.5414 89.336 22.5997 89.336 22.6278C89.336 22.6953 91.0421 24.4111 91.1092 24.4111C91.1378 24.4111 91.1964 24.4451 91.2394 24.4868C91.3648 24.6084 92.1695 25.1838 92.214 25.1838C92.2364 25.1838 92.2966 25.2214 92.348 25.2674C92.5307 25.4309 93.5057 25.9464 94.0976 26.1925C94.1626 26.2195 94.3131 26.2845 94.4318 26.3369C94.5506 26.3893 94.6888 26.4322 94.7389 26.4322C94.789 26.4322 94.8445 26.4558 94.8623 26.4848C94.8801 26.5136 94.9682 26.552 95.0581 26.5697C95.1479 26.5875 95.3811 26.6463 95.5763 26.7004C95.9518 26.8046 96.3381 26.8928 96.6558 26.9472L96.848 26.9802V22.753V18.5259H95.3741C94.5635 18.5259 93.8581 18.5097 93.8067 18.4899C93.7242 18.4581 93.7131 18.2423 93.7131 16.6768V14.8998H95.2806H96.848L96.8523 13.2502C96.8547 12.3429 96.8793 11.4669 96.9071 11.3034C96.9348 11.1399 96.9763 10.8925 96.9993 10.7535C97.0222 10.6146 97.0613 10.5009 97.0859 10.5009C97.1107 10.5009 97.1448 10.4139 97.1618 10.3077C97.2044 10.0422 97.3407 9.66866 97.3949 9.66866C97.4194 9.66866 97.4395 9.6406 97.4395 9.60636C97.4395 9.47535 97.8555 8.89896 98.1642 8.60216C98.5123 8.26766 98.9618 7.94541 99.0809 7.945C99.1216 7.94487 99.1549 7.91801 99.1549 7.88531C99.1549 7.85262 99.1841 7.82586 99.2199 7.82586C99.2556 7.82586 99.3688 7.78985 99.4713 7.74586C100.072 7.4878 101.052 7.32653 101.778 7.36617C102.726 7.41801 103.854 7.53471 103.96 7.59207C104.017 7.62257 104.103 7.64754 104.152 7.64754C104.205 7.64754 104.243 7.70318 104.246 7.78128C104.248 7.85482 104.254 8.53569 104.26 9.29434L104.271 10.6736L103.384 10.6986C102.445 10.725 102.037 10.7805 101.697 10.9281C101.316 11.0935 100.87 11.6294 100.87 11.9219C100.87 11.9904 100.844 12.0465 100.811 12.0465C100.773 12.0465 100.752 12.5616 100.752 13.4732V14.8998H102.426H104.1L104.051 15.42C104.024 15.7061 103.976 16.0337 103.944 16.1482C103.913 16.2626 103.887 16.4698 103.887 16.6088C103.887 16.7478 103.864 16.8615 103.836 16.8615C103.809 16.8615 103.77 17.0688 103.75 17.3222C103.708 17.8708 103.592 18.4198 103.505 18.4805C103.471 18.5045 102.838 18.5245 102.098 18.5251L100.752 18.5259V22.753V26.9802L100.974 26.9416C101.096 26.9204 101.296 26.8879 101.418 26.8695C101.54 26.8509 101.655 26.8118 101.673 26.7825C101.691 26.7533 101.767 26.7294 101.843 26.7294C101.992 26.7294 102.551 26.5739 102.718 26.4861C102.774 26.4564 102.85 26.4322 102.886 26.4322C102.923 26.4322 103.049 26.3893 103.168 26.3369C103.287 26.2845 103.437 26.2195 103.502 26.1925C104.094 25.9464 105.069 25.4309 105.252 25.2674C105.303 25.2214 105.364 25.1838 105.386 25.1838C105.431 25.1838 106.235 24.6084 106.361 24.4868C106.404 24.4451 106.462 24.4111 106.491 24.4111C106.558 24.4111 108.264 22.6953 108.264 22.6278C108.264 22.5997 108.298 22.5414 108.339 22.4982C108.46 22.372 109.033 21.5634 109.033 21.5186C109.033 21.4961 109.07 21.4357 109.116 21.384C109.279 21.2003 109.792 20.2206 110.037 19.6257C110.064 19.5604 110.128 19.4092 110.18 19.2898C110.232 19.1704 110.275 19.0316 110.275 18.9812C110.275 18.9308 110.299 18.875 110.327 18.8572C110.356 18.8393 110.394 18.7507 110.412 18.6604C110.43 18.5701 110.488 18.3357 110.542 18.1396C110.839 17.0565 110.949 16.1786 110.95 14.8701C110.951 13.5911 110.847 12.7718 110.542 11.6601C110.488 11.4639 110.43 11.2295 110.412 11.1392C110.394 11.0489 110.356 10.9603 110.327 10.9425C110.299 10.9246 110.275 10.8688 110.275 10.8184C110.275 10.7681 110.232 10.6292 110.18 10.5099C110.128 10.3905 110.064 10.2393 110.037 10.1739C109.792 9.57908 109.279 8.59931 109.116 8.41562C109.07 8.36402 109.033 8.30345 109.033 8.28098C109.033 8.23621 108.46 7.42758 108.339 7.3015C108.298 7.25828 108.264 7.20252 108.264 7.17756C108.264 7.10711 106.906 5.73864 106.608 5.50804C106.461 5.39504 106.328 5.28744 106.312 5.26902C106.235 5.18187 105.42 4.61583 105.371 4.61583C105.341 4.61583 105.308 4.5929 105.297 4.56489C105.261 4.47162 104.129 3.86772 103.502 3.60711C103.437 3.58007 103.287 3.5151 103.168 3.46272C103.049 3.41035 102.911 3.3675 102.861 3.3675C102.811 3.3675 102.755 3.34383 102.738 3.31489C102.72 3.28599 102.632 3.24771 102.542 3.22994C102.452 3.2121 102.219 3.15331 102.024 3.09921C101.014 2.81947 100.131 2.70332 98.8592 2.68305C98.2573 2.67348 97.6717 2.68863 97.5579 2.71675Z" fill="white"/>
</g>
</g>
<g clip-path="url(#clip6_1_591)">
<g clip-path="url(#clip7_1_591)">
<g clip-path="url(#clip8_1_591)">
<path d="M147.94 13.064L156.314 3.33008H154.329L147.058 11.7819L141.251 3.33008H134.553L143.335 16.1107L134.553 26.3183H136.537L144.216 17.3928L150.349 26.3183H157.047L147.939 13.064H147.94ZM145.222 16.2233L144.332 14.9507L137.253 4.82394H140.301L146.014 12.9965L146.904 14.2692L154.33 24.8923H151.282L145.222 16.2238V16.2233Z" fill="white"/>
</g>
</g>
</g>
<g clip-path="url(#clip9_1_591)">
<g clip-path="url(#clip10_1_591)">
<g clip-path="url(#clip11_1_591)">
<path fill-rule="evenodd" clip-rule="evenodd" d="M190.233 19.9663C191.119 19.9948 191.92 21.1672 194.265 21.1672C198.668 21.1957 201.699 17.8218 202.642 13.3899C205.93 -1.9645 183.542 -3.194 181.255 9.44408C180.712 12.4177 181.598 15.8489 183.914 16.964C185.687 17.8218 185.801 15.3629 185.258 14.3049C182.856 9.61563 185.744 5.38388 189.518 4.18298C193.064 3.03926 195.58 3.98282 197.496 5.95574C199.955 8.50051 198.839 15.42 195.923 17.6217C194.894 18.3937 193.006 18.5652 192.034 17.6502C190.033 15.7917 193.121 11.8459 192.663 8.958C192.206 6.0987 187.688 6.5276 187.459 10.7308C187.345 12.8752 187.974 13.5042 187.488 15.6487C186.716 19.0799 184.371 26.0852 186.03 28.8301C188.46 27.6863 189.661 20.8241 190.233 19.9663Z" fill="white"/>
</g>
</g>
</g>
<g clip-path="url(#clip12_1_591)">
<g clip-path="url(#clip13_1_591)">
<g clip-path="url(#clip14_1_591)">
<path d="M251.717 25.6851H230.004C227.099 25.6851 224.759 23.1158 224.759 19.9556V9.70413C224.759 6.53106 227.111 3.97461 230.004 3.97461H251.717C254.622 3.97461 256.962 6.5439 256.962 9.70413V19.9556C256.974 23.1287 254.622 25.6851 251.717 25.6851Z" fill="white"/>
<path d="M246.557 14.6694L237.423 9.40234V19.9365L246.557 14.6694Z" fill="black"/>
</g>
</g>
</g>
<defs>
<clipPath id="clip0_1_591">
<rect width="27" height="28" fill="white" transform="translate(0.299988 0.830078)"/>
</clipPath>
<clipPath id="clip1_1_591">
<rect width="27" height="28" fill="white" transform="translate(0.299988 0.830078)"/>
</clipPath>
<clipPath id="clip2_1_591">
<rect width="21" height="23" fill="white" transform="translate(45.3 3.33008)"/>
</clipPath>
<clipPath id="clip3_1_591">
<rect width="21" height="23" fill="white" transform="translate(45.3 3.33008)"/>
</clipPath>
<clipPath id="clip4_1_591">
<rect width="29" height="27" fill="white" transform="translate(84.3 1.33008)"/>
</clipPath>
<clipPath id="clip5_1_591">
<rect width="29" height="27" fill="white" transform="translate(84.3 1.33008)"/>
</clipPath>
<clipPath id="clip6_1_591">
<rect width="29" height="23" fill="white" transform="translate(131.3 3.33008)"/>
</clipPath>
<clipPath id="clip7_1_591">
<rect width="29" height="23" fill="white" transform="translate(131.3 3.33008)"/>
</clipPath>
<clipPath id="clip8_1_591">
<rect width="22.4939" height="23" fill="white" transform="translate(134.553 3.33008)"/>
</clipPath>
<clipPath id="clip9_1_591">
<rect width="28" height="28" fill="white" transform="translate(178.3 0.830078)"/>
</clipPath>
<clipPath id="clip10_1_591">
<rect width="28" height="28" fill="white" transform="translate(178.3 0.830078)"/>
</clipPath>
<clipPath id="clip11_1_591">
<rect width="22.4" height="28" fill="white" transform="translate(181.1 0.830078)"/>
</clipPath>
<clipPath id="clip12_1_591">
<rect width="33" height="23" fill="white" transform="translate(224.3 3.33008)"/>
</clipPath>
<clipPath id="clip13_1_591">
<rect width="33" height="23" fill="white" transform="translate(224.3 3.33008)"/>
</clipPath>
<clipPath id="clip14_1_591">
<rect width="33" height="21.7105" fill="white" transform="translate(224.3 3.97461)"/>
</clipPath>
</defs>
</svg>
