<svg width="41" height="41" viewBox="0 0 41 41" fill="none" xmlns="http://www.w3.org/2000/svg">
<rect x="0.899963" y="0.909912" width="40" height="40" rx="20" fill="white" fill-opacity="0.5"/>
<g clip-path="url(#clip0_1_171)">
<path fill-rule="evenodd" clip-rule="evenodd" d="M27.5075 16.3617H14.1741V28.7425H27.5075V16.3617ZM13.2216 15.4092V29.6933H28.4583V15.41L13.2216 15.4092Z" fill="black"/>
<path d="M23.6975 19.2184V15.4092C23.7039 15.0299 23.6348 14.6531 23.4942 14.3008C23.3535 13.9485 23.1441 13.6277 22.8781 13.3572C22.6122 13.0866 22.295 12.8718 21.9452 12.7251C21.5953 12.5784 21.2197 12.5029 20.8404 12.5029C20.461 12.5029 20.0855 12.5784 19.7356 12.7251C19.3857 12.8718 19.0686 13.0866 18.8026 13.3572C18.5367 13.6277 18.3273 13.9485 18.1866 14.3008C18.0459 14.6531 17.9768 15.0299 17.9833 15.4092V19.2184H17.0308V15.4092C17.0308 14.3988 17.4322 13.4298 18.1466 12.7154C18.861 12.001 19.83 11.5996 20.8404 11.5996C21.8507 11.5996 22.8197 12.001 23.5342 12.7154C24.2486 13.4298 24.65 14.3988 24.65 15.4092V19.2184H23.6975Z" fill="black"/>
<path fill-rule="evenodd" clip-rule="evenodd" d="M20.5075 22.6942V18.3608H21.1741V22.6942H25.5075V23.3608H21.1741V27.6942H20.5075V23.3608H16.1741V22.6942H20.5075Z" fill="black"/>
</g>
<defs>
<clipPath id="clip0_1_171">
<rect width="20" height="20" fill="white" transform="translate(10.9 10.9099)"/>
</clipPath>
</defs>
</svg>
