<svg width="41" height="41" viewBox="0 0 41 41" fill="none" xmlns="http://www.w3.org/2000/svg">
<rect x="0.0999756" y="0.909912" width="40" height="40" rx="20" fill="white" fill-opacity="0.5"/>
<g clip-path="url(#clip0_1_158)">
<path fill-rule="evenodd" clip-rule="evenodd" d="M26.7075 16.3617H13.3741V28.7425H26.7075V16.3617ZM12.4216 15.4092V29.6933H27.6583V15.41L12.4216 15.4092Z" fill="black"/>
<path d="M22.8975 19.2184V15.4092C22.9039 15.0299 22.8348 14.6531 22.6942 14.3008C22.5535 13.9485 22.3441 13.6277 22.0781 13.3572C21.8122 13.0866 21.495 12.8718 21.1452 12.7251C20.7953 12.5784 20.4197 12.5029 20.0404 12.5029C19.661 12.5029 19.2855 12.5784 18.9356 12.7251C18.5858 12.8718 18.2686 13.0866 18.0027 13.3572C17.7367 13.6277 17.5273 13.9485 17.3866 14.3008C17.2459 14.6531 17.1768 15.0299 17.1833 15.4092V19.2184H16.2308V15.4092C16.2308 14.3988 16.6322 13.4298 17.3466 12.7154C18.061 12.001 19.03 11.5996 20.0404 11.5996C21.0508 11.5996 22.0197 12.001 22.7342 12.7154C23.4486 13.4298 23.85 14.3988 23.85 15.4092V19.2184H22.8975Z" fill="black"/>
<path fill-rule="evenodd" clip-rule="evenodd" d="M19.7075 22.6942V18.3608H20.3741V22.6942H24.7075V23.3608H20.3741V27.6942H19.7075V23.3608H15.3741V22.6942H19.7075Z" fill="black"/>
</g>
<defs>
<clipPath id="clip0_1_158">
<rect width="20" height="20" fill="white" transform="translate(10.1 10.9099)"/>
</clipPath>
</defs>
</svg>
