<svg width="69" height="51" viewBox="0 0 69 51" fill="none" xmlns="http://www.w3.org/2000/svg">
<g clip-path="url(#clip0_1_213)">
<g clip-path="url(#clip1_1_213)">
<g clip-path="url(#clip2_1_213)">
<path d="M44.6781 9.85421L43.0287 9.32421L50.1929 2.21936L51.2836 3.31005L44.6781 9.85421Z" fill="black"/>
<path d="M17.8671 37.0479L16.7764 35.9593L24.0572 28.6764L24.3724 30.5426L17.8671 37.0479Z" fill="black"/>
<path d="M42.953 26.1185C42.288 26.0039 41.625 25.9834 40.9579 26.0468C41.848 25.3838 42.4946 24.7024 42.9755 23.9228C43.8043 22.5804 44.1992 21.0825 44.1849 19.3451C44.1788 18.6412 43.8289 18.2278 43.1433 18.1153C42.3841 17.9925 41.6618 17.9618 40.9599 18.0211C41.4633 17.6467 41.8889 17.262 42.2634 16.8425C43.1413 15.8602 43.7061 14.7368 43.9434 13.5049C44.0519 12.936 44.0969 12.3692 44.1399 11.8187C44.1522 11.6714 44.1624 11.5241 44.1767 11.3767C44.2361 10.7035 43.7961 10.1735 43.1065 10.0875C41.7457 9.91973 40.6018 9.97703 39.505 10.2676C38.7478 10.4681 38.0684 10.7628 37.4627 11.1434C38.0541 9.91564 38.3365 8.5712 38.3324 7.05896C38.3549 6.21792 38.1523 5.15383 37.7922 4.20638C37.2601 2.81078 36.4048 1.58912 35.2486 0.572099C34.8291 0.20376 34.2705 0.205807 33.8591 0.576192C32.8728 1.46839 32.1484 2.41175 31.6409 3.46152C31.1682 4.44171 30.8981 5.49761 30.8162 6.69267C30.7221 8.04938 30.892 9.27514 31.334 10.4415C31.4261 10.683 31.5304 10.9163 31.643 11.1475C30.6546 10.5091 29.6212 10.1387 28.5673 10.0446C27.9023 9.98521 27.2474 10.022 26.6131 10.0568C26.4064 10.0691 26.2018 10.0793 25.9951 10.0875C25.6841 10.0998 25.4037 10.2267 25.2073 10.4477C25.0006 10.6789 24.9024 10.992 24.9269 11.3297C24.9392 11.4974 24.9494 11.6652 24.9597 11.833C24.9883 12.318 25.017 12.8214 25.1131 13.3269C25.4712 15.2074 26.4964 16.7893 28.1581 18.0375C27.4173 17.97 26.697 18.0293 25.8723 18.1398C25.285 18.2196 24.9024 18.6739 24.9208 19.2755C24.9576 20.4665 25.0681 21.7393 25.6227 22.9692C26.1649 24.1745 27.0183 25.2099 28.154 26.053C27.3641 25.9752 26.6151 26.0162 25.8825 26.1778C25.2441 26.319 24.8962 26.7835 24.9474 27.4199C24.9617 27.6061 24.976 27.7903 24.9883 27.9765C25.0129 28.3224 25.0354 28.6805 25.0783 29.0386C25.2216 30.2623 25.7066 31.4287 26.523 32.501C27.3866 33.6367 28.5448 34.3877 29.4575 34.9156C30.5052 35.5214 31.6716 35.9736 33.0283 36.301C33.3005 36.3665 33.72 36.4545 33.9594 36.4852C34.0576 36.4995 34.1559 36.52 34.25 36.5363C34.3523 36.5547 34.4812 36.5711 34.5201 36.5711C34.5569 36.5752 34.5958 36.5773 34.6367 36.5773C34.7391 36.5773 34.8332 36.565 34.9171 36.5445C34.9498 36.5404 34.9826 36.5404 35.0133 36.5322C35.2281 36.4811 35.441 36.4299 35.6497 36.3829C36.1285 36.2724 36.5808 36.1659 37.0432 36.0391C37.9968 35.7751 38.9688 35.3351 40.1025 34.6558C41.363 33.8986 42.3002 33.0228 42.9694 31.9751C43.747 30.7575 44.146 29.3333 44.1911 27.6225C44.2156 26.6607 43.9046 26.2801 42.953 26.1144V26.1185ZM34.5631 20.5238C35.224 20.5238 35.8072 20.4113 36.1654 20.2394C35.6415 20.8021 35.2159 21.459 34.8966 22.212C34.7657 22.5231 34.6511 22.8382 34.5487 23.1533C34.4853 22.9528 34.4198 22.7502 34.3441 22.5517C34.0044 21.6391 33.5113 20.8553 32.8749 20.1984C33.2207 20.3949 33.8448 20.5259 34.559 20.5259L34.5631 20.5238ZM41.6516 19.5334C41.9749 19.5334 42.3043 19.5559 42.642 19.6009C42.6174 20.9351 42.2982 22.0872 41.6638 23.1145C41.2402 23.802 40.6304 24.4098 39.7444 25.0216C38.5964 25.8177 37.3011 26.3886 35.7827 26.7692C35.7192 26.7856 35.6558 26.7999 35.5944 26.8122V26.5994C35.5944 26.5994 35.5944 26.583 35.5944 26.5728C35.5515 25.3163 35.797 24.0517 36.3209 22.8096C36.9389 21.3464 38.0255 20.3785 39.64 19.8485C40.2867 19.6357 40.9538 19.5293 41.6536 19.5293L41.6516 19.5334ZM39.9019 11.7614C40.4606 11.6141 41.0418 11.5404 41.6782 11.5404C41.9749 11.5404 42.2859 11.5568 42.6113 11.5875C42.6092 11.6243 42.6051 11.6612 42.6031 11.7C42.5622 12.23 42.5212 12.7314 42.4292 13.2164C42.245 14.17 41.803 15.0458 41.1134 15.8172C40.61 16.382 39.9736 16.8854 39.1141 17.3991C38.2403 17.9229 37.2622 18.3322 36.1285 18.6494C35.9525 18.6985 35.7704 18.7394 35.5821 18.7783C35.5596 17.2128 35.8011 15.9175 36.327 14.7573C37.0371 13.1918 38.2055 12.2116 39.9019 11.7614ZM32.3571 6.80317C32.4247 5.80865 32.6457 4.93487 33.0324 4.1368C33.3926 3.38989 33.896 2.70028 34.5631 2.03932C35.3632 2.82306 35.9648 3.73572 36.3536 4.75684C36.6994 5.66541 36.8079 6.52692 36.7936 7.02827C36.7936 7.03645 36.7936 7.04464 36.7936 7.05487C36.8018 9.24444 36.0937 11.0125 34.5692 12.5943C33.7343 11.7512 33.147 10.8672 32.7807 9.89927C32.4185 8.94568 32.2814 7.93274 32.3592 6.80317H32.3571ZM26.6295 13.0424C26.5517 12.6352 26.5271 12.2034 26.5005 11.7471C26.4985 11.7021 26.4944 11.6571 26.4924 11.612C26.5599 11.608 26.6295 11.6039 26.699 11.5998C27.3047 11.567 27.8777 11.5343 28.4323 11.5834C29.3531 11.6652 30.2699 12.0356 31.1539 12.6843C31.9499 13.2675 32.527 14.0676 32.9199 15.1276C33.3332 16.2408 33.5276 17.3806 33.5154 18.6125V18.7537C33.0795 18.6576 32.6682 18.5634 32.2732 18.4325C31.1948 18.0784 30.2085 17.5935 29.3388 16.9898C27.8204 15.9359 26.9344 14.6427 26.6295 13.0404V13.0424ZM27.0305 22.3409C26.6417 21.4774 26.5251 20.5361 26.4801 19.6214C27.141 19.5457 27.7222 19.5231 28.3034 19.6091C29.1587 19.738 29.879 19.9652 30.5052 20.3048C31.6573 20.929 32.441 21.8396 32.9035 23.0858C33.3353 24.2461 33.542 25.4248 33.5174 26.5891C33.5174 26.5953 33.5174 26.5994 33.5174 26.6055V26.7979C33.1184 26.6996 32.7418 26.6034 32.3715 26.4889C31.2235 26.1307 30.1471 25.5946 29.171 24.8948C28.1867 24.1867 27.4869 23.3518 27.0326 22.343L27.0305 22.3409ZM33.3885 34.8072C32.1791 34.5166 31.1457 34.1155 30.2289 33.5855C29.392 33.1005 28.4425 32.4846 27.7508 31.5719C27.096 30.7104 26.7215 29.8244 26.611 28.8646C26.5742 28.5413 26.5517 28.218 26.5292 27.8763C26.523 27.7944 26.519 27.7126 26.5128 27.6307C27.1963 27.5202 27.9125 27.5407 28.6922 27.6941C29.656 27.8824 30.4663 28.2282 31.1723 28.7521C31.9376 29.321 32.5004 30.0822 32.8933 31.0829C33.3312 32.1961 33.542 33.428 33.5358 34.8399C33.4867 34.8297 33.4376 34.8195 33.3905 34.8092L33.3885 34.8072ZM32.969 28.3142C33.3271 28.484 33.9082 28.5966 34.5651 28.5966C35.222 28.5966 35.7765 28.4902 36.1367 28.3265C35.5965 28.926 35.1504 29.6361 34.8148 30.4628C34.7186 30.6982 34.6347 30.9355 34.5569 31.1749C34.4874 30.9539 34.4116 30.735 34.3277 30.5201C33.9921 29.6668 33.5358 28.9322 32.971 28.3142H32.969ZM41.67 31.1504C41.1338 31.9914 40.3624 32.7076 39.3106 33.3379C38.2997 33.9436 37.4484 34.3324 36.634 34.5575C36.2943 34.6517 35.9525 34.7335 35.5965 34.8174C35.5924 34.4798 35.5944 34.1524 35.6108 33.8331C35.664 32.8836 35.8768 31.9444 36.2431 31.044C36.8202 29.6238 37.7287 28.6723 39.02 28.13C39.9408 27.7433 40.8187 27.5529 41.6843 27.5529C42.0076 27.5529 42.3289 27.5795 42.6502 27.6328C42.6072 29.0345 42.2859 30.1845 41.67 31.1504Z" fill="black"/>
<path d="M19.7354 45.2107V48.6485H19.1071V44.1179H19.7681L22.0723 47.5946V44.1179H22.7005V48.6485H22.0518L19.7333 45.2107H19.7354Z" fill="black"/>
<path d="M25.5367 44.0259C26.9119 44.0259 27.8675 45.0286 27.8675 46.3771C27.8675 47.7256 26.9118 48.7345 25.5429 48.7345C24.1739 48.7345 23.2244 47.7522 23.2244 46.3833C23.2244 45.0143 24.2005 44.0259 25.5347 44.0259H25.5367ZM25.5429 48.137C26.5374 48.137 27.1922 47.4044 27.1922 46.3812C27.1922 45.358 26.5251 44.6193 25.5429 44.6193C24.5606 44.6193 23.8997 45.3601 23.8997 46.3812C23.8997 47.4023 24.5749 48.137 25.5429 48.137Z" fill="black"/>
<path d="M33.4212 48.6485H32.793V48.315C32.5372 48.5319 32.0993 48.7345 31.5284 48.7345C30.1798 48.7345 29.2181 47.7788 29.2181 46.3833C29.2181 44.9877 30.1737 44.0259 31.5366 44.0259C32.4472 44.0259 33.0038 44.4249 33.2923 44.8239L32.8135 45.2168C32.5781 44.9283 32.1852 44.6214 31.5304 44.6214C30.5686 44.6214 29.8934 45.3478 29.8934 46.3833C29.8934 47.4187 30.5871 48.139 31.557 48.139C32.1075 48.139 32.527 47.9364 32.7889 47.6683V46.8703H31.9642V46.3198H33.4253V48.6506L33.4212 48.6485Z" fill="black"/>
<path d="M34.0883 48.6485V44.1179H34.7309V48.053H36.0467V48.6485H34.0883Z" fill="black"/>
<path d="M36.3823 46.9398V44.1179H37.0228V46.9398C37.0228 47.6601 37.3502 48.139 38.1032 48.139C38.8113 48.139 39.1775 47.6417 39.1775 46.9337V44.1179H39.8119V46.9398C39.8119 47.9814 39.196 48.7344 38.0971 48.7344C36.9307 48.7344 36.3823 48.0203 36.3823 46.9398Z" fill="black"/>
<path d="M41.8234 44.7134V48.6485H41.1809V44.7134H40.2519V44.1179H42.7525V44.7134H41.8234Z" fill="black"/>
<path d="M43.217 48.6485V44.1179H45.1876V44.7134H43.8575V46.0231H45.1528V46.6124H43.8575V48.053H45.206V48.6485H43.215H43.217Z" fill="black"/>
<path d="M46.4195 45.2107V48.6485H45.7913V44.1179H46.4522L48.7564 47.5946V44.1179H49.3846V48.6485H48.7359L46.4175 45.2107H46.4195Z" fill="black"/>
</g>
</g>
</g>
<defs>
<clipPath id="clip0_1_213">
<rect width="68.02" height="50" fill="white" transform="translate(0.0200043 0.299927)"/>
</clipPath>
<clipPath id="clip1_1_213">
<rect width="68.02" height="50" fill="white" transform="translate(0.0200043 0.299927)"/>
</clipPath>
<clipPath id="clip2_1_213">
<rect width="34.5072" height="50" fill="white" transform="translate(16.7764 0.299927)"/>
</clipPath>
</defs>
</svg>
