<svg width="69" height="51" viewBox="0 0 69 51" fill="none" xmlns="http://www.w3.org/2000/svg">
<g clip-path="url(#clip0_1_153)">
<g clip-path="url(#clip1_1_153)">
<g clip-path="url(#clip2_1_153)">
<path d="M51.1659 23.1822V12.1847C52.0034 11.8823 52.6042 11.0805 52.6042 10.1376C52.6042 8.93396 51.6294 7.95914 50.4258 7.95914C49.9285 7.95914 49.4709 8.12824 49.1048 8.40875L39.0742 2.61756C39.0762 2.5718 39.0822 2.52605 39.0822 2.48029C39.0822 1.27669 38.1074 0.30188 36.9038 0.30188C35.7002 0.30188 34.7253 1.27669 34.7253 2.48029C34.7253 2.52605 34.7293 2.5718 34.7333 2.61955L24.645 8.44456C24.2789 8.16405 23.8214 7.99694 23.326 7.99694C22.1224 7.99694 21.1476 8.97176 21.1476 10.1754C21.1476 11.1382 21.7742 11.9539 22.6416 12.2424V23.2001C21.7742 23.4865 21.1476 24.3042 21.1476 25.2671C21.1476 26.4707 22.1224 27.4455 23.326 27.4455C23.7418 27.4455 24.1297 27.3261 24.46 27.1252L34.6776 33.0238C34.7293 34.1816 35.6803 35.1047 36.852 35.1047C38.0238 35.1047 38.9389 34.2155 39.0225 33.0895L49.3535 27.1252C49.6718 27.3062 50.0399 27.4117 50.4318 27.4117C51.6354 27.4117 52.6102 26.4368 52.6102 25.2332C52.6102 24.2903 52.0094 23.4905 51.1719 23.1861L51.1659 23.1822ZM36.9018 4.65671C37.5145 4.65671 38.0676 4.40207 38.4635 3.99623L48.2991 9.67402C48.2673 9.82323 48.2494 9.9784 48.2494 10.1376C48.2494 11.0726 48.8403 11.8683 49.6679 12.1767V23.1881C48.8403 23.4965 48.2494 24.2923 48.2494 25.2273C48.2494 25.4819 48.2952 25.7246 48.3747 25.9494L38.5828 31.6034C38.1849 31.0801 37.5583 30.7399 36.85 30.7399C36.1418 30.7399 35.549 31.0602 35.1491 31.5576L25.397 25.9276C25.4646 25.7167 25.5024 25.4919 25.5024 25.2591C25.5024 24.344 24.9374 23.5621 24.1377 23.2398V12.1886C24.9374 11.8664 25.5024 11.0845 25.5024 10.1694C25.5024 10.0102 25.4845 9.85307 25.4507 9.70386L35.3401 3.99424C35.736 4.40207 36.289 4.65472 36.9018 4.65472V4.65671Z" fill="black"/>
<path d="M51.0842 29.6978L40.1467 36.0508L40.9001 37.3479L51.8376 30.9949L51.0842 29.6978Z" fill="black"/>
<path d="M18.8538 11.3292H17.3538V24.899H18.8538V11.3292Z" fill="black"/>
<path d="M36.388 6.48732L35.6413 7.78833L46.612 14.084L47.3586 12.783L36.388 6.48732Z" fill="black"/>
<path d="M17.6323 45.3521V48.6944H17.0215V44.2898H17.6641L19.9042 47.6698V44.2898H20.5149V48.6944H19.8843L17.6303 45.3521H17.6323Z" fill="black"/>
<path d="M23.2723 44.2003C24.6092 44.2003 25.5382 45.1751 25.5382 46.4862C25.5382 47.7972 24.6092 48.778 23.2782 48.778C21.9473 48.778 21.0242 47.823 21.0242 46.4921C21.0242 45.1612 21.9732 44.2003 23.2703 44.2003H23.2723ZM23.2782 48.1971C24.2451 48.1971 24.8817 47.4848 24.8817 46.4901C24.8817 45.4954 24.2332 44.7772 23.2782 44.7772C22.3233 44.7772 21.6807 45.4974 21.6807 46.4901C21.6807 47.4829 22.3373 48.1971 23.2782 48.1971Z" fill="black"/>
<path d="M28.1682 46.7209H27.653V48.6944H27.0283V44.2898H28.1682C28.9899 44.2898 29.4614 44.6976 29.4614 45.4874C29.4614 46.2772 28.9322 46.7229 28.1682 46.7229V46.7209ZM27.653 44.8369V46.1738H28.1364C28.582 46.1738 28.8108 45.9072 28.8108 45.4934C28.8108 45.0796 28.582 44.8369 28.1364 44.8369H27.653Z" fill="black"/>
<path d="M31.9501 47.2442H30.2949L29.7478 48.6964H29.1311L30.7863 44.2919H31.4408L33.1716 48.6964H32.5151L31.9481 47.2442H31.9501ZM30.4919 46.709H31.7392L31.1086 45.0856L30.4919 46.709Z" fill="black"/>
<path d="M35.2466 46.5876L36.3547 48.6944H35.6862L34.6478 46.701H34.1265V48.6944H33.5019V44.2898H34.6418C35.4634 44.2898 35.9349 44.6976 35.9349 45.4874C35.9349 46.0285 35.6743 46.4105 35.2466 46.5896V46.5876ZM34.1265 44.8369V46.1738H34.61C35.0556 46.1738 35.2844 45.9072 35.2844 45.4934C35.2844 45.0796 35.0556 44.8369 34.61 44.8369H34.1265Z" fill="black"/>
<path d="M39.2771 47.2442H37.6219L37.0748 48.6964H36.4581L38.1133 44.2919H38.7678L40.4986 48.6964H39.8421L39.2751 47.2442H39.2771ZM37.8189 46.709H39.0663L38.4356 45.0856L37.8189 46.709Z" fill="black"/>
<path d="M42.0404 48.6944H40.8309V44.2898H41.9648C42.7865 44.2898 43.244 44.6917 43.244 45.4476C43.244 45.8674 43.053 46.2056 42.7407 46.3707C43.1286 46.5358 43.3654 46.88 43.3654 47.4211C43.3654 48.2229 42.8183 48.6944 42.0404 48.6944ZM41.4476 44.8369V46.1618H41.931C42.3647 46.1618 42.5995 45.9132 42.5995 45.4934C42.5995 45.0736 42.3766 44.8369 41.931 44.8369H41.4476ZM41.4476 46.689V48.1473H41.9688C42.4582 48.1473 42.7129 47.8489 42.7129 47.4032C42.7129 46.9576 42.4642 46.691 41.9688 46.691H41.4476V46.689Z" fill="black"/>
<path d="M43.8727 48.6944V44.2898H45.7885V44.8687H44.4954V46.1419H45.7567V46.7149H44.4954V48.1154H45.8064V48.6944H43.8707H43.8727Z" fill="black"/>
<path d="M46.9861 45.3521V48.6944H46.3754V44.2898H47.018L49.258 47.6698V44.2898H49.8688V48.6944H49.2381L46.9841 45.3521H46.9861Z" fill="black"/>
<path d="M51.5379 45.951C51.7985 46.0724 52.0731 46.1619 52.3536 46.3071C52.8251 46.5359 53.1056 46.9 53.1056 47.4789C53.1056 48.2428 52.5644 48.77 51.7488 48.77C50.7242 48.77 50.3801 48.1075 50.392 47.3754H50.9968C50.9968 47.8469 51.1997 48.2289 51.7488 48.2289C52.1626 48.2289 52.469 47.9862 52.469 47.5346C52.469 47.1845 52.2839 46.9875 51.9975 46.8463C51.711 46.6931 51.4126 46.6115 51.1181 46.4524C50.7242 46.2355 50.4935 45.8794 50.4935 45.3582C50.4935 44.7156 50.9709 44.2063 51.7349 44.2063C52.6639 44.2063 52.9882 44.8051 52.9703 45.4477H52.3973C52.3854 45.0399 52.1685 44.7415 51.7349 44.7415C51.327 44.7415 51.1102 44.9961 51.1102 45.3403C51.1102 45.6387 51.2634 45.8177 51.5359 45.951H51.5379Z" fill="black"/>
</g>
</g>
</g>
<defs>
<clipPath id="clip0_1_153">
<rect width="68.02" height="50" fill="white" transform="translate(0.969994 0.299927)"/>
</clipPath>
<clipPath id="clip1_1_153">
<rect width="68.02" height="50" fill="white" transform="translate(0.969994 0.299927)"/>
</clipPath>
<clipPath id="clip2_1_153">
<rect width="36.6053" height="50" fill="white" transform="translate(16.6774 0.299927)"/>
</clipPath>
</defs>
</svg>
