<svg width="69" height="51" viewBox="0 0 69 51" fill="none" xmlns="http://www.w3.org/2000/svg">
<g clip-path="url(#clip0_1_139)">
<g clip-path="url(#clip1_1_139)">
<g clip-path="url(#clip2_1_139)">
<path d="M15.6259 31.4548C15.2665 31.4548 14.9748 31.776 14.9748 32.1718C14.9748 32.5677 15.2665 32.8889 15.6259 32.8889C15.9853 32.8889 16.2769 32.5677 16.2769 32.1718C16.2769 31.776 15.9853 31.4548 15.6259 31.4548Z" fill="black"/>
<path d="M24.428 16.632C22.6051 21.5278 18.1971 26.3681 12.8637 29.3646C13.2353 28.1146 13.6415 27.1181 14.1311 26.2622C15.829 23.2934 17.9419 20.3577 20.4071 17.5347C21.4505 16.3472 22.5269 15.4219 23.6085 14.7865C24.0686 14.5157 24.3342 14.4601 24.4748 14.4601C24.6155 14.4601 24.6762 14.5157 24.711 14.566C24.9037 14.8438 24.7926 15.6563 24.428 16.6337M25.6606 13.9219C25.3325 13.4479 24.7057 13.3611 23.862 13.6962C21.4436 14.6632 19.4922 16.9722 17.8863 19.0625C18.1155 18.1528 18.2769 17.2222 18.3464 16.3038C18.4349 15.1302 18.0495 13.75 16.6849 14.6563C14.7509 15.9393 13.7509 18.5486 13.0391 20.6407C12.2578 22.9393 11.6849 25.4809 11.7075 27.9219C11.711 28.3386 12.2144 28.3594 12.211 27.9375C12.1936 26.0573 12.5825 24.1702 13.0616 22.3594C13.638 20.1754 14.4748 17.908 15.9401 16.1545C16.2301 15.8073 17.0512 14.8264 17.6189 15.007C18.0321 15.1372 17.8446 16.3091 17.8169 16.6007C17.704 17.8056 17.4106 19.0573 17.0113 20.2118C14.1745 23.9827 12.5096 27.0139 11.6241 30.0174C11.1797 30.2379 10.7283 30.4427 10.2821 30.6285C9.93144 30.7743 9.95227 31.0226 9.96616 31.0955C10.0061 31.2969 10.2214 31.4479 10.4679 31.4479C10.5495 31.4479 10.6294 31.4306 10.704 31.3993C10.9141 31.3125 11.1241 31.2205 11.3342 31.1268C11.1745 31.8177 11.0564 32.5157 10.9818 33.2066C10.8967 33.967 10.6415 36.283 12.0182 36.8629C12.2422 36.9566 12.4939 37.0052 12.7682 37.0052C14.0426 37.0052 15.6398 35.9601 16.5842 34.9896C17.9297 33.6111 18.9297 31.4809 18.1328 29.8282C17.8794 29.3073 17.4453 29.0313 16.8794 29.0313C15.928 29.0313 14.7787 29.7969 14.0235 30.5139C13.8377 30.691 13.862 30.8525 13.895 30.9323C13.9557 31.0851 14.1328 31.1788 14.3551 31.1788C14.5408 31.1788 14.7144 31.1146 14.8342 31.0018C15.4662 30.4028 16.0946 30.0591 16.5564 30.0591C16.9922 30.0591 17.2578 30.3785 17.3446 31.0087C17.5148 32.283 16.5686 33.7847 15.5547 34.7066C14.6589 35.5261 13.7283 36.0139 13.0651 36.0139C12.5304 36.0139 12.2023 35.6945 12.0669 35.0382C11.7891 33.7205 12.1606 32.0347 12.5426 30.5417C18.4905 27.4757 23.4887 22.0729 25.5998 16.4219C25.9054 15.6077 26.0807 14.5243 25.6623 13.9184" fill="black"/>
<path d="M30.2857 24.5522H27.7353V24.1841C27.9506 24.1841 28.1086 24.1685 28.2076 24.139C28.3065 24.1077 28.3551 24.0365 28.3551 23.9219C28.3551 23.8421 28.3395 23.7605 28.3083 23.6789L28.0531 23.04H26.2961L26.1642 23.3907C26.0895 23.5886 26.0531 23.7292 26.0531 23.8178C26.0531 23.9775 26.1156 24.0782 26.2388 24.1216C26.3621 24.165 26.5062 24.1858 26.6728 24.1858V24.5539H24.8083V24.1858C24.9576 24.1858 25.0843 24.1581 25.1867 24.1025C25.2909 24.0469 25.3899 23.941 25.4853 23.7848C25.5791 23.6285 25.6815 23.4081 25.7909 23.1233L27.3517 19.0348H27.7301L29.3794 23.2501C29.4992 23.5487 29.586 23.7501 29.6433 23.8542C29.7006 23.9584 29.777 24.04 29.8742 24.0973C29.9732 24.1546 30.1103 24.1824 30.2892 24.1824V24.5504L30.2857 24.5522ZM27.9072 22.6476L27.1607 20.7587L26.4506 22.6476H27.9072ZM36.6867 19.507C36.4281 19.507 36.244 19.5331 36.1312 19.5851C36.0201 19.6372 35.9506 19.7136 35.9228 19.8143C35.8951 19.915 35.8829 20.0799 35.8829 20.3091V24.6008H35.5149L31.9732 20.3924V23.3751C31.9732 23.6008 31.9871 23.7657 32.0149 23.8681C32.0426 23.9706 32.1138 24.0487 32.2284 24.1042C32.343 24.1598 32.5288 24.1858 32.784 24.1858V24.5539H30.7718V24.1858C31.0114 24.1858 31.185 24.1581 31.2926 24.1042C31.4003 24.0504 31.4663 23.9706 31.4923 23.8681C31.5183 23.7657 31.5305 23.6008 31.5305 23.3751V20.6129C31.5305 20.389 31.5253 20.2223 31.5131 20.1094C31.501 19.9983 31.4732 19.8994 31.4281 19.816C31.3829 19.7327 31.3083 19.665 31.2058 19.6129C31.1034 19.5608 30.961 19.5261 30.7805 19.507V19.139H32.3569L35.4385 22.7796V20.3091C35.4385 20.1077 35.4246 19.9515 35.3968 19.8438C35.369 19.7362 35.2996 19.6528 35.1885 19.5938C35.0774 19.5348 34.9038 19.5053 34.6642 19.5053V19.1372H36.685V19.5053L36.6867 19.507ZM39.961 24.5522H37.2145V24.1841C37.4437 24.1841 37.6156 24.1615 37.7336 24.1181C37.8499 24.0747 37.9281 24.0087 37.9628 23.9202C37.9992 23.8317 38.0166 23.7067 38.0166 23.5452V20.1442C38.0166 19.9098 37.968 19.7449 37.8708 19.6494C37.7735 19.5539 37.5548 19.5053 37.2145 19.5053V19.1372H39.961V19.5053C39.7319 19.5053 39.5583 19.5278 39.4419 19.573C39.3256 19.6181 39.2475 19.6841 39.2128 19.7709C39.1781 19.8577 39.159 19.9827 39.159 20.1442V23.5452C39.159 23.6997 39.1763 23.8212 39.211 23.9081C39.2458 23.9949 39.3187 24.0643 39.4333 24.1112C39.5461 24.1581 39.7232 24.1824 39.9628 24.1824V24.5504L39.961 24.5522ZM48.0947 24.5522H45.3794V24.1841C45.6138 24.1841 45.7857 24.1615 45.8933 24.1147C46.0027 24.0678 46.0739 24.0001 46.1069 23.9115C46.1399 23.823 46.1572 23.6997 46.1572 23.5452V20.1528L44.1138 24.5522H43.8708L41.7996 20.1528V23.3751C41.7996 23.5452 41.8065 23.6754 41.8169 23.7657C41.8291 23.856 41.8603 23.9341 41.909 23.9966C41.9576 24.0608 42.0357 24.1077 42.1416 24.139C42.2475 24.1702 42.3951 24.1841 42.5843 24.1841V24.5522H40.5808V24.1841C40.7718 24.1841 40.9211 24.1685 41.0253 24.1372C41.1294 24.1042 41.2076 24.0574 41.2544 23.9931C41.3013 23.9289 41.3308 23.8525 41.3413 23.764C41.3517 23.6754 41.3569 23.5452 41.3569 23.3751V20.3091C41.3569 20.0799 41.3447 19.915 41.3204 19.8143C41.2961 19.7136 41.2301 19.6372 41.1225 19.5851C41.0149 19.5331 40.8326 19.507 40.5774 19.507V19.139H42.5565L44.3534 22.9601L46.1538 19.139H48.0895V19.507C47.7562 19.507 47.5409 19.5556 47.4454 19.6528C47.3482 19.7501 47.2996 19.915 47.2996 20.1459V23.5469C47.2996 23.6928 47.3152 23.8126 47.3482 23.9028C47.3812 23.9931 47.4541 24.0626 47.5687 24.1129C47.685 24.1615 47.8586 24.1876 48.0895 24.1876V24.5556L48.0947 24.5522ZM54.093 24.5522H51.5426V24.1841C51.7579 24.1841 51.9159 24.1685 52.0149 24.139C52.1138 24.1077 52.1624 24.0365 52.1624 23.9219C52.1624 23.8421 52.1468 23.7605 52.1156 23.6789L51.8604 23.04H50.1034L49.9715 23.3907C49.8968 23.5886 49.8604 23.7292 49.8604 23.8178C49.8604 23.9775 49.9228 24.0782 50.0461 24.1216C50.1694 24.165 50.3135 24.1858 50.4801 24.1858V24.5539H48.6156V24.1858C48.7649 24.1858 48.8916 24.1581 48.994 24.1025C49.0982 24.0469 49.1972 23.941 49.2926 23.7848C49.3864 23.6285 49.4888 23.4081 49.5982 23.1233L51.159 19.0348H51.5374L53.1867 23.2501C53.3065 23.5487 53.3933 23.7501 53.4506 23.8542C53.5079 23.9584 53.5843 24.04 53.6815 24.0973C53.7805 24.1546 53.9176 24.1824 54.0965 24.1824V24.5504L54.093 24.5522ZM51.7145 22.6476L50.968 20.7587L50.2579 22.6476H51.7145ZM59.4628 22.7431L59.4263 24.5522H54.6034V24.1841C54.935 24.1841 55.1503 24.1372 55.2458 24.04C55.3413 23.9445 55.3899 23.7796 55.3899 23.5452V20.1442C55.3899 19.9879 55.3742 19.8647 55.343 19.7778C55.3117 19.691 55.2371 19.6251 55.1208 19.5765C55.0044 19.5296 54.8326 19.5053 54.6034 19.5053V19.1372H57.3256V19.5053C57.0999 19.5053 56.9281 19.5278 56.8135 19.573C56.6972 19.6181 56.6225 19.6841 56.586 19.7709C56.5496 19.8577 56.5322 19.9827 56.5322 20.1442V23.257C56.5322 23.5018 56.5444 23.6772 56.5687 23.7831C56.593 23.889 56.6572 23.9706 56.7649 24.0244C56.8708 24.0782 57.0461 24.106 57.2874 24.106C57.593 24.106 57.8621 24.0817 58.0913 24.0365C58.3222 23.9897 58.534 23.8664 58.7301 23.665C58.9263 23.4636 59.0479 23.1563 59.0965 22.7414H59.4628V22.7431Z" fill="black"/>
<path d="M28.5781 28.0933H28.2916C28.2656 27.8399 28.21 27.6541 28.1249 27.5343C28.0399 27.4145 27.9478 27.3399 27.8489 27.3121C27.7499 27.2843 27.6371 27.2704 27.5086 27.2704H26.9913V30.2583C26.9913 30.3763 27.0034 30.4683 27.0277 30.5326C27.052 30.5985 27.1076 30.6489 27.1961 30.6853C27.2847 30.7218 27.4131 30.7392 27.585 30.7392V31.0152H25.5381V30.7392C25.7881 30.7392 25.9496 30.7027 26.0225 30.6315C26.0954 30.5586 26.1301 30.4353 26.1301 30.2583V27.2704H25.6961C25.526 27.2704 25.3836 27.2843 25.2725 27.3103C25.1614 27.3364 25.0607 27.411 24.9756 27.5326C24.8906 27.6541 24.8419 27.8416 24.8298 28.0933H24.5433V26.9353H28.5763V28.0933H28.5781ZM32.7447 29.6732L32.7117 31.0152H29.0763V30.7392C29.3281 30.7392 29.4895 30.7027 29.5607 30.6315C29.6336 30.5586 29.6683 30.4353 29.6683 30.2583V27.694C29.6683 27.5777 29.6562 27.4874 29.6336 27.4215C29.611 27.3555 29.5572 27.3051 29.4722 27.2687C29.3871 27.2322 29.2551 27.2131 29.0763 27.2131V26.9371H32.4617L32.5156 27.9961H32.2395C32.177 27.7617 32.1058 27.5933 32.0242 27.4926C31.9426 27.3919 31.8524 27.3294 31.7499 27.3051C31.6492 27.2826 31.4965 27.2704 31.2933 27.2704H30.5294V28.7114H30.9444C31.0867 28.7114 31.1926 28.6992 31.2638 28.6732C31.335 28.6471 31.3836 28.6003 31.4114 28.5308C31.4392 28.4596 31.4583 28.3503 31.4687 28.1992H31.7569V29.5569H31.4808C31.4722 29.4058 31.4531 29.2947 31.4201 29.2235C31.3888 29.1524 31.3367 29.1055 31.2673 29.0812C31.1978 29.0569 31.0919 29.0447 30.9496 29.0447H30.5277V30.0048C30.5277 30.1662 30.5312 30.2826 30.5399 30.3572C30.5485 30.4319 30.5694 30.4926 30.6041 30.543C30.6388 30.5933 30.6961 30.6281 30.776 30.6489C30.8558 30.6715 30.9687 30.6819 31.1145 30.6819H31.4426C31.5815 30.6819 31.7135 30.6645 31.8385 30.6298C31.9635 30.5951 32.0867 30.5048 32.2065 30.359C32.3281 30.2131 32.4114 29.9857 32.46 29.6749H32.743L32.7447 29.6732ZM36.4201 29.8451C36.4201 29.9718 36.3923 30.1055 36.3385 30.2461C36.2847 30.3867 36.2031 30.5221 36.0937 30.6524C35.9843 30.7826 35.8454 30.8867 35.6788 30.9683C35.5121 31.0499 35.3194 31.0899 35.1006 31.0899C34.8819 31.0899 34.6683 31.043 34.4548 30.9492C34.2413 30.8555 34.0607 30.7149 33.9114 30.5274C33.8472 30.6767 33.8055 30.8138 33.7881 30.9406H33.5121V29.5447H33.7881C33.8385 29.7461 33.9079 29.9336 33.9965 30.1107C34.085 30.2878 34.21 30.4388 34.3715 30.5673C34.5329 30.694 34.7308 30.7583 34.9652 30.7583C35.1701 30.7583 35.3333 30.7027 35.4565 30.5899C35.5798 30.477 35.6423 30.3364 35.6423 30.1645C35.6423 30.069 35.6232 29.984 35.585 29.911C35.5468 29.8381 35.4913 29.7739 35.4201 29.7166C35.3489 29.6593 35.2499 29.5985 35.1232 29.5326C34.9982 29.4666 34.8558 29.3989 34.6944 29.326C34.4478 29.2096 34.2447 29.0916 34.0867 28.9735C33.9288 28.8555 33.809 28.7409 33.7274 28.6298C33.6458 28.5187 33.5902 28.4128 33.559 28.3121C33.5277 28.2114 33.5121 28.1107 33.5121 28.0083C33.5121 27.826 33.5607 27.6454 33.6597 27.4683C33.7586 27.2912 33.9027 27.1454 34.0919 27.0326C34.2812 26.9197 34.4999 26.8624 34.7499 26.8624C34.9409 26.8624 35.1232 26.9058 35.2951 26.9909C35.4669 27.076 35.618 27.1923 35.743 27.3416C35.7794 27.2583 35.8124 27.1385 35.8419 26.9857H36.1249V28.1228H35.8419C35.6406 27.5031 35.2916 27.1923 34.7951 27.1923C34.6145 27.1923 34.4687 27.2392 34.3593 27.3346C34.2499 27.4301 34.1961 27.5534 34.1961 27.7027C34.1961 27.8208 34.2308 27.9232 34.2985 28.0117C34.3663 28.0985 34.4565 28.1732 34.5676 28.2357C34.6788 28.2982 34.8593 28.3867 35.1076 28.5031C35.4079 28.6454 35.644 28.7687 35.8124 28.8728C35.9826 28.977 36.1249 29.109 36.243 29.2669C36.3593 29.4249 36.4183 29.6176 36.4183 29.8416L36.4201 29.8451ZM41.0711 28.0933H40.7847C40.7586 27.8399 40.7031 27.6541 40.618 27.5343C40.5329 27.4145 40.4409 27.3399 40.3419 27.3121C40.243 27.2843 40.1301 27.2704 40.0017 27.2704H39.4843V30.2583C39.4843 30.3763 39.4965 30.4683 39.5208 30.5326C39.5451 30.5985 39.6006 30.6489 39.6892 30.6853C39.7777 30.7218 39.9062 30.7392 40.0781 30.7392V31.0152H38.0312V30.7392C38.2812 30.7392 38.4426 30.7027 38.5156 30.6315C38.5885 30.5586 38.6232 30.4353 38.6232 30.2583V27.2704H38.1892C38.019 27.2704 37.8767 27.2843 37.7656 27.3103C37.6544 27.3364 37.5538 27.411 37.4687 27.5326C37.3836 27.6541 37.335 27.8416 37.3228 28.0933H37.0364V26.9353H41.0694V28.0933H41.0711Z" fill="black"/>
<path d="M42.8454 30.0794H41.2169V29.4735H42.8454V30.0794Z" fill="black"/>
<path d="M46.7933 27.9944H46.5103C46.46 27.767 46.394 27.602 46.3107 27.4979C46.2274 27.3937 46.1336 27.3295 46.0312 27.3052C45.927 27.2809 45.7829 27.2687 45.5989 27.2687H44.8697V28.7097H45.2517C45.4322 28.7097 45.5538 28.6784 45.618 28.6159C45.6822 28.5534 45.7204 28.4163 45.7326 28.2027H46.0086V29.5604H45.7256C45.7152 29.4041 45.6978 29.2913 45.6701 29.2236C45.6423 29.1559 45.5972 29.109 45.5312 29.0812C45.4652 29.0552 45.368 29.043 45.2378 29.043H44.868V30.2566C44.868 30.4215 44.901 30.5413 44.9652 30.6211C45.0294 30.701 45.1857 30.7392 45.4305 30.7392H45.5138V31.0152H43.4201V30.7392C43.6683 30.7392 43.8281 30.7027 43.901 30.6298C43.9722 30.5569 44.0069 30.4319 44.0069 30.2583V27.6941C44.0069 27.5777 43.9947 27.4875 43.9704 27.4215C43.9461 27.3555 43.8923 27.3052 43.8072 27.2687C43.7222 27.2322 43.5937 27.2131 43.4201 27.2131V26.9371H46.7603L46.7899 27.9961L46.7933 27.9944ZM51.6857 31.0152H50.5937C50.5538 30.9718 50.5034 30.9076 50.4444 30.8225C50.3853 30.7375 50.3211 30.6385 50.2499 30.5256C50.1805 30.4128 50.1215 30.3191 50.0763 30.2444L49.8003 29.7878C49.6753 29.5829 49.5815 29.4441 49.519 29.3677C49.4565 29.293 49.3836 29.2444 49.302 29.2236C49.2204 29.2027 49.0833 29.1923 48.8871 29.1923H48.7343V30.2583C48.7343 30.3711 48.7465 30.4614 48.7708 30.5291C48.7951 30.5968 48.8524 30.6489 48.9409 30.6854C49.0294 30.7218 49.1597 30.7392 49.3298 30.7392V31.0152H47.2829V30.7392C47.5312 30.7392 47.6909 30.7027 47.7638 30.6316C47.8367 30.5604 47.8697 30.4354 47.8697 30.2583V27.6819C47.8697 27.5083 47.835 27.3833 47.7656 27.3104C47.6961 27.2375 47.5347 27.201 47.2829 27.201V26.918L48.2274 26.8885C48.3003 26.885 48.3819 26.8816 48.4756 26.8798C48.5694 26.8781 48.6562 26.8763 48.736 26.8763C48.7985 26.8763 48.901 26.8781 49.0468 26.8816C49.2499 26.8885 49.4392 26.9006 49.6163 26.918C49.7933 26.9354 49.9322 26.9597 50.0347 26.9875C50.1857 27.0256 50.3281 27.0881 50.4635 27.1767C50.5989 27.2652 50.71 27.3816 50.7951 27.5256C50.8801 27.6697 50.9235 27.8381 50.9235 28.0291C50.9235 28.1663 50.894 28.2982 50.835 28.4267C50.776 28.5552 50.6805 28.6697 50.5485 28.7704C50.4166 28.8711 50.2447 28.9493 50.0294 29.0083C50.1753 29.0951 50.3003 29.201 50.4027 29.3295C50.5051 29.4579 50.6649 29.6923 50.8853 30.0326C51.0121 30.227 51.1163 30.3746 51.1978 30.4736C51.2794 30.5725 51.3558 30.6402 51.4253 30.675C51.4947 30.7097 51.5815 30.7322 51.6892 30.7427V31.0187L51.6857 31.0152ZM49.9947 28.0204C49.9947 27.6958 49.8958 27.4788 49.6978 27.3729C49.4999 27.267 49.243 27.2131 48.9235 27.2131C48.8801 27.2131 48.8454 27.2131 48.8194 27.2149C48.7933 27.2149 48.7656 27.2149 48.7326 27.2149V28.8555H48.9218C49.2256 28.8555 49.4791 28.8069 49.684 28.7079C49.8888 28.609 49.993 28.3798 49.993 28.0187L49.9947 28.0204ZM55.6874 29.6732L55.6544 31.0152H52.019V30.7392C52.2708 30.7392 52.4322 30.7027 52.5034 30.6316C52.5763 30.5586 52.611 30.4354 52.611 30.2583V27.6941C52.611 27.5777 52.5989 27.4875 52.5763 27.4215C52.5538 27.3555 52.4999 27.3052 52.4149 27.2687C52.3298 27.2322 52.1978 27.2131 52.019 27.2131V26.9371H55.4044L55.4583 27.9961H55.1822C55.1197 27.7618 55.0485 27.5934 54.9669 27.4927C54.8853 27.392 54.7951 27.3295 54.6926 27.3052C54.5919 27.2826 54.4392 27.2704 54.236 27.2704H53.4722V28.7114H53.8871C54.0294 28.7114 54.1353 28.6993 54.2065 28.6732C54.2777 28.6472 54.3263 28.6003 54.3541 28.5309C54.3819 28.4597 54.401 28.3503 54.4114 28.1993H54.6996V29.5569H54.4235C54.4149 29.4059 54.3958 29.2947 54.3628 29.2236C54.3315 29.1524 54.2794 29.1055 54.21 29.0812C54.1406 29.0569 54.0347 29.0447 53.8923 29.0447H53.4704V30.0048C53.4704 30.1663 53.4739 30.2826 53.4826 30.3572C53.4913 30.4319 53.5121 30.4927 53.5468 30.543C53.5815 30.5934 53.6388 30.6281 53.7187 30.6489C53.7985 30.6715 53.9114 30.6819 54.0572 30.6819H54.3853C54.5242 30.6819 54.6562 30.6645 54.7812 30.6298C54.9062 30.5951 55.0294 30.5048 55.1492 30.359C55.2708 30.2131 55.3541 29.9857 55.4027 29.675H55.6857L55.6874 29.6732ZM59.9131 29.6732L59.8801 31.0152H56.2447V30.7392C56.4965 30.7392 56.6579 30.7027 56.7291 30.6316C56.802 30.5586 56.8367 30.4354 56.8367 30.2583V27.6941C56.8367 27.5777 56.8246 27.4875 56.802 27.4215C56.7794 27.3555 56.7256 27.3052 56.6406 27.2687C56.5555 27.2322 56.4235 27.2131 56.2447 27.2131V26.9371H59.6301L59.684 27.9961H59.4079C59.3454 27.7618 59.2742 27.5934 59.1926 27.4927C59.111 27.392 59.0208 27.3295 58.9183 27.3052C58.8176 27.2826 58.6649 27.2704 58.4617 27.2704H57.6978V28.7114H58.1128C58.2551 28.7114 58.361 28.6993 58.4322 28.6732C58.5034 28.6472 58.552 28.6003 58.5798 28.5309C58.6076 28.4597 58.6267 28.3503 58.6371 28.1993H58.9253V29.5569H58.6492C58.6406 29.4059 58.6215 29.2947 58.5885 29.2236C58.5572 29.1524 58.5051 29.1055 58.4357 29.0812C58.3663 29.0569 58.2603 29.0447 58.118 29.0447H57.6961V30.0048C57.6961 30.1663 57.6996 30.2826 57.7083 30.3572C57.7169 30.4319 57.7378 30.4927 57.7725 30.543C57.8072 30.5934 57.8645 30.6281 57.9444 30.6489C58.0242 30.6715 58.1371 30.6819 58.2829 30.6819H58.611C58.7499 30.6819 58.8819 30.6645 59.0069 30.6298C59.1319 30.5951 59.2551 30.5048 59.3749 30.359C59.4965 30.2131 59.5798 29.9857 59.6284 29.675H59.9114L59.9131 29.6732Z" fill="black"/>
<path d="M38.9908 33.4675C38.84 33.4571 37.6409 33.4675 37.6409 33.4675L36.5225 37.6265H37.4484L37.8386 36.222H37.849C38.4706 36.2766 39.8361 36.2922 40.0338 34.768C40.1743 33.6886 39.407 33.4935 38.9882 33.4675H38.9908ZM38.8348 35.2076C38.52 35.5015 38.0779 35.3974 38.0779 35.3974L38.2001 34.9319L38.3718 34.3154C38.4342 34.3076 38.8868 34.2634 39.0142 34.3649C39.1521 34.4741 39.0506 35.0047 38.8374 35.205L38.8348 35.2076ZM42.5516 33.5273C41.7609 33.2776 41.108 33.8707 40.6528 34.4351C40.2107 35.0411 39.9246 35.7096 39.9116 36.4925C39.9324 36.9346 40.0416 37.4288 40.5046 37.6031C41.2407 37.7825 41.7843 37.2077 42.1874 36.6979C42.2108 36.6641 42.2863 36.5549 42.3487 36.4482V36.4456L42.2524 36.3832C42.164 36.5055 42.0808 36.6199 41.9715 36.7343C41.7062 36.9814 41.3785 37.1817 40.991 37.0933C40.6034 37.0048 40.5306 36.3104 40.5904 36.0191C40.6502 35.7278 40.7075 35.5483 40.7205 35.5457C40.9077 35.5067 42.3877 35.1868 42.7778 34.6093C42.9183 34.3753 43.0327 34.0267 42.8611 33.7692C42.7882 33.6574 42.6712 33.5664 42.549 33.5273H42.5516ZM41.4644 35.1321C41.017 35.2752 40.8609 35.3116 40.8141 35.3142L40.8271 35.2752C40.8895 35.0957 41.5086 33.3999 42.1406 33.6106C42.8169 33.8369 42.3253 34.859 41.4644 35.1295V35.1321ZM46.8406 33.4597L44.8586 37.6317H45.8912L46.1929 36.9658H47.1241V37.6317H48.0292V33.4597H46.8406ZM47.1241 36.1335H46.5727L47.1215 34.9267L47.1267 34.9111V36.1361L47.1241 36.1335ZM44.9731 34.3571L44.0653 37.6317H43.0588L43.9353 34.3571H43.1082L43.3631 33.4623H46.1045L45.8652 34.3571H44.9705H44.9731Z" fill="black"/>
<path d="M36.5225 35.3694V35.6836H24.3697V35.3694H36.5225Z" fill="black"/>
<path d="M60.0329 35.3694V35.6836H48.7482V35.3694H60.0329Z" fill="black"/>
</g>
</g>
</g>
<defs>
<clipPath id="clip0_1_139">
<rect width="68.02" height="50" fill="white" transform="translate(0.949997 0.299927)"/>
</clipPath>
<clipPath id="clip1_1_139">
<rect width="68.02" height="50" fill="white" transform="translate(0.949997 0.299927)"/>
</clipPath>
<clipPath id="clip2_1_139">
<rect width="50" height="50" fill="white" transform="translate(9.96 0.299927)"/>
</clipPath>
</defs>
</svg>
