<svg width="69" height="51" viewBox="0 0 69 51" fill="none" xmlns="http://www.w3.org/2000/svg">
<g clip-path="url(#clip0_1_192)">
<g clip-path="url(#clip1_1_192)">
<g clip-path="url(#clip2_1_192)">
<path d="M21.2322 43.8055L19.2655 40.8888V43.8055H18.7322V39.9611H19.2933L21.2489 42.9111V39.9611H21.7822V43.8055H21.2322Z" fill="black"/>
<path d="M22.2267 41.8833C22.2267 41.3055 22.4118 40.8277 22.7822 40.45C23.1526 40.0722 23.6211 39.8833 24.1878 39.8833C24.7655 39.8833 25.2396 40.0713 25.61 40.4472C25.9804 40.8231 26.1655 41.3 26.1655 41.8777C26.1655 42.4518 25.9813 42.9287 25.6128 43.3083C25.2442 43.6879 24.7711 43.8777 24.1933 43.8777C23.6155 43.8777 23.1433 43.6907 22.7767 43.3166C22.41 42.9426 22.2267 42.4648 22.2267 41.8833ZM23.1822 40.8111C22.9267 41.0889 22.7989 41.4463 22.7989 41.8833C22.7989 42.3203 22.9285 42.6777 23.1878 42.9555C23.447 43.2333 23.7822 43.3722 24.1933 43.3722C24.6118 43.3722 24.9498 43.2333 25.2072 42.9555C25.4646 42.6777 25.5933 42.3203 25.5933 41.8833C25.5933 41.4463 25.4637 41.0879 25.2044 40.8083C24.9452 40.5287 24.6081 40.3889 24.1933 40.3889C23.7785 40.3889 23.4415 40.5296 23.1822 40.8111Z" fill="black"/>
<path d="M30.3933 39.9611V43.8055H29.8489V42.0722H28.01V43.8055H27.4655V39.9611H28.01V41.5555H29.8489V39.9611H30.3933Z" fill="black"/>
<path d="M33.6378 43.8055L33.1433 42.5388H31.6989L31.2211 43.8055H30.6822L32.1266 39.9611H32.6989L34.21 43.8055H33.6378ZM32.41 40.6555L31.8711 42.0722H32.96L32.41 40.6555ZM36.6211 41.0055C36.6211 41.2388 36.5683 41.4379 36.4628 41.6027C36.3572 41.7675 36.21 41.8888 36.0211 41.9666L36.9878 43.8055H36.4044L35.4989 42.0666H35.0433V43.8055H34.4989V39.9611H35.4933C35.8563 39.9611 36.135 40.0499 36.3294 40.2277C36.5239 40.4055 36.6211 40.6648 36.6211 41.0055ZM35.4655 40.4388H35.0433V41.6055H35.4655C35.6544 41.6055 35.7998 41.5527 35.9016 41.4472C36.0035 41.3416 36.0544 41.1962 36.0544 41.0111C36.0544 40.8296 36.0044 40.6888 35.9044 40.5888C35.8044 40.4888 35.6581 40.4388 35.4655 40.4388Z" fill="black"/>
<path d="M40.8211 40.6777L39.56 43.8055H39.0322L37.76 40.6777V43.8055H37.2489V39.9611H38.0378L39.31 43.1499L40.5822 39.9611H41.3544V43.8055H40.8211V40.6777Z" fill="black"/>
<path d="M43.6044 42.0777H42.4989V43.8055H41.9544V39.9611H43.6378V40.4666H42.4989V41.5777H43.6044V42.0777Z" fill="black"/>
<path d="M45.5544 43.8777C45.073 43.8777 44.71 43.7425 44.4655 43.4722C44.2211 43.2018 44.0989 42.8296 44.0989 42.3555V39.9611H44.6433V42.3555C44.6433 42.674 44.7192 42.9231 44.8711 43.1027C45.023 43.2824 45.2526 43.3722 45.56 43.3722C45.8526 43.3722 46.0776 43.2787 46.235 43.0916C46.3924 42.9046 46.4711 42.6574 46.4711 42.3499V39.9611H47.01V42.3555C47.01 42.8074 46.8813 43.174 46.6239 43.4555C46.3665 43.737 46.01 43.8777 45.5544 43.8777Z" fill="black"/>
<path d="M49.2489 43.8055H47.5878V39.9611H48.1322V43.2999H49.2489V43.8055Z" fill="black"/>
<path d="M24.51 46.4333C24.51 46.6667 24.6341 46.8445 24.8822 46.9667C24.9341 46.9926 25.0424 47.0389 25.2072 47.1056C25.372 47.1722 25.5007 47.2296 25.5933 47.2778C26.0304 47.4889 26.2489 47.8296 26.2489 48.3C26.2489 48.6333 26.1405 48.9046 25.9239 49.1139C25.7072 49.3232 25.4211 49.4278 25.0655 49.4278C24.647 49.4278 24.3433 49.3139 24.1544 49.0861C23.9655 48.8583 23.8748 48.5667 23.8822 48.2111H24.41C24.41 48.4333 24.4628 48.613 24.5683 48.75C24.6739 48.887 24.8396 48.9556 25.0655 48.9556C25.2507 48.9556 25.4017 48.9028 25.5183 48.7972C25.635 48.6917 25.6933 48.5426 25.6933 48.35C25.6933 48.0833 25.5563 47.8833 25.2822 47.75C25.2007 47.7056 25.0748 47.6491 24.9044 47.5806C24.7341 47.512 24.6044 47.4537 24.5155 47.4056C24.1526 47.2056 23.9711 46.8871 23.9711 46.45C23.9711 46.1611 24.0702 45.9213 24.2683 45.7306C24.4665 45.5398 24.7285 45.4445 25.0544 45.4445C25.4322 45.4445 25.7081 45.5472 25.8822 45.7528C26.0563 45.9583 26.1396 46.2167 26.1322 46.5278H25.6322C25.6248 46.3426 25.572 46.1935 25.4739 46.0806C25.3757 45.9676 25.2359 45.9111 25.0544 45.9111C24.8804 45.9111 24.7461 45.9593 24.6517 46.0556C24.5572 46.1519 24.51 46.2778 24.51 46.4333ZM28.11 49.4333C27.6285 49.4333 27.2655 49.2982 27.0211 49.0278C26.7767 48.7574 26.6544 48.3852 26.6544 47.9111V45.5167H27.1989V47.9111C27.1989 48.2296 27.2748 48.4787 27.4267 48.6583C27.5785 48.838 27.8081 48.9278 28.1155 48.9278C28.4081 48.9278 28.6331 48.8343 28.7905 48.6472C28.948 48.4602 29.0267 48.213 29.0267 47.9056V45.5167H29.5655V47.9111C29.5655 48.363 29.4368 48.7296 29.1794 49.0111C28.922 49.2926 28.5655 49.4333 28.11 49.4333Z" fill="black"/>
<path d="M31.8044 49.361H30.1433V45.5166H30.6878V48.8555H31.8044V49.361Z" fill="black"/>
<path d="M33.8433 47.6333H32.7378V49.361H32.1933V45.5166H33.8767V46.0222H32.7378V47.1333H33.8433V47.6333Z" fill="black"/>
<path d="M36.7544 49.361L36.26 48.0944H34.8155L34.3378 49.361H33.7989L35.2433 45.5166H35.8155L37.3267 49.361H36.7544ZM35.5267 46.211L34.9878 47.6277H36.0767L35.5267 46.211Z" fill="black"/>
<path d="M39.1433 46.0222H38.3544V49.361H37.81V46.0222H37.0211V45.5166H39.1433V46.0222Z" fill="black"/>
<path d="M41.2267 49.361H39.5378V45.5166H41.21V46.0222H40.0822V47.1333H41.1822V47.6333H40.0822V48.8555H41.2267V49.361Z" fill="black"/>
<path d="M42.1767 46.4333C42.1767 46.6667 42.3007 46.8445 42.5489 46.9667C42.6007 46.9926 42.7091 47.0389 42.8739 47.1056C43.0387 47.1722 43.1674 47.2296 43.26 47.2778C43.697 47.4889 43.9155 47.8296 43.9155 48.3C43.9155 48.6333 43.8072 48.9046 43.5905 49.1139C43.3739 49.3232 43.0878 49.4278 42.7322 49.4278C42.3137 49.4278 42.01 49.3139 41.8211 49.0861C41.6322 48.8583 41.5415 48.5667 41.5489 48.2111H42.0767C42.0767 48.4333 42.1294 48.613 42.235 48.75C42.3405 48.887 42.5063 48.9556 42.7322 48.9556C42.9174 48.9556 43.0683 48.9028 43.185 48.7972C43.3017 48.6917 43.36 48.5426 43.36 48.35C43.36 48.0833 43.223 47.8833 42.9489 47.75C42.8674 47.7056 42.7415 47.6491 42.5711 47.5806C42.4007 47.512 42.2711 47.4537 42.1822 47.4056C41.8193 47.2056 41.6378 46.8871 41.6378 46.45C41.6378 46.1611 41.7368 45.9213 41.935 45.7306C42.1331 45.5398 42.3952 45.4445 42.7211 45.4445C43.0989 45.4445 43.3748 45.5472 43.5489 45.7528C43.723 45.9583 43.8063 46.2167 43.7989 46.5278H43.2989C43.2915 46.3426 43.2387 46.1935 43.1405 46.0806C43.0424 45.9676 42.9026 45.9111 42.7211 45.9111C42.547 45.9111 42.4128 45.9593 42.3183 46.0556C42.2239 46.1519 42.1767 46.2778 42.1767 46.4333Z" fill="black"/>
<path d="M47.1315 15.4488C47.3019 15.4844 47.4802 15.5042 47.6605 15.5042C49.0671 15.5042 50.2062 14.3651 50.2062 12.9584C50.2062 12.0234 49.7011 11.2091 48.9502 10.7673C48.9245 10.0838 48.7224 9.55093 48.4589 9.14475C47.0602 6.98534 43.3614 7.14779 39.0762 8.60593C38.8901 7.87288 38.684 7.17354 38.4562 6.51977C36.8733 1.95325 34.896 0.994385 33.5172 0.994385C30.9397 0.994385 29.0656 4.19986 27.9621 8.60197C27.241 8.35829 26.5396 8.15024 25.8621 7.98385C25.0755 7.79163 24.3723 7.66489 23.7363 7.58961C23.3342 6.71194 22.4505 6.09977 21.4224 6.09977C20.0158 6.09977 18.8766 7.23892 18.8766 8.64552C18.8766 8.66336 18.8786 8.6792 18.8786 8.69704C18.7439 8.83767 18.6329 8.98434 18.5378 9.12892C17.0124 11.4865 19.1341 15.2091 22.7715 18.8167C21.9176 19.6666 21.1549 20.5185 20.5031 21.3545C17.5294 25.1682 17.7989 27.3475 18.5477 28.5044C19.0767 29.3207 20.1683 30.129 22.4149 30.129C23.352 30.129 24.4892 29.9883 25.872 29.6495C26.5455 29.4851 27.2449 29.277 27.9621 29.0354C28.1305 29.697 28.3167 30.3291 28.5188 30.9273C27.9562 31.3949 27.5976 32.0982 27.5976 32.8867C27.5976 34.2933 28.7367 35.4325 30.1433 35.4325C30.3969 35.4325 30.6426 35.3948 30.8744 35.3254C31.8253 36.3378 32.7604 36.6271 33.5172 36.6271C36.0907 36.6271 37.9648 33.4295 39.0683 29.0334C39.7736 29.2711 40.4611 29.4732 41.1248 29.6357C42.5056 29.9744 43.6448 30.1151 44.5818 30.1151C46.8285 30.1151 47.9201 29.3068 48.449 28.4906C49.1979 27.3336 49.4673 25.1523 46.4936 21.3386C45.8458 20.5086 45.091 19.6646 44.2451 18.8226C45.0949 17.9767 45.8537 17.1288 46.5035 16.2947C46.7314 16.0015 46.9374 15.7202 47.1296 15.4468L47.1315 15.4488ZM44.5878 9.13489C45.8359 9.13489 46.7135 9.436 47.0959 10.0284C47.1771 10.1532 47.2365 10.2938 47.2762 10.4463C46.0538 10.6326 45.1148 11.6846 45.1148 12.9604C45.1148 13.5984 45.3505 14.1788 45.7388 14.6266C45.0573 15.5874 44.1658 16.6275 43.0762 17.7092C42.1609 16.8771 41.1644 16.053 40.1025 15.2486C39.9737 13.4676 39.7478 11.7658 39.4328 10.1908C41.4794 9.48357 43.2485 9.13489 44.5858 9.13489H44.5878ZM36.269 23.0999C35.3517 23.6942 34.4285 24.247 33.5112 24.7581C32.5841 24.243 31.653 23.6843 30.7278 23.086C29.9492 22.5809 29.2083 22.0717 28.5029 21.5586C28.4534 20.673 28.4257 19.7577 28.4257 18.8127C28.4257 17.8677 28.4514 16.9702 28.501 16.0926C29.2201 15.5676 29.965 15.0525 30.7357 14.5533C31.6767 13.9431 32.6039 13.3923 33.5112 12.8871C34.4246 13.3963 35.3438 13.947 36.2571 14.5374C37.0417 15.0446 37.8004 15.5696 38.5294 16.1025C38.577 16.9762 38.6047 17.8776 38.6047 18.8107C38.6047 19.7438 38.577 20.6631 38.5275 21.5427C37.8123 22.0657 37.0594 22.5848 36.267 23.0979L36.269 23.0999ZM38.363 23.6546C38.2442 24.7938 38.0877 25.8695 37.8975 26.868C37.0218 26.5134 36.1264 26.1093 35.217 25.6556C35.8628 25.2772 36.5087 24.8809 37.1526 24.4649C37.5627 24.1994 37.9648 23.928 38.363 23.6546ZM31.8094 25.6556C30.9041 26.1073 30.0106 26.5134 29.1369 26.868C28.9467 25.8715 28.7902 24.7997 28.6713 23.6645C29.0596 23.932 29.4499 24.1954 29.8442 24.451C30.496 24.873 31.1517 25.2752 31.8075 25.6575L31.8094 25.6556ZM26.8249 20.2728C26.2226 19.7894 25.656 19.306 25.1231 18.8266C25.662 18.3392 26.2305 17.8558 26.8249 17.3764C26.811 17.8558 26.8031 18.3352 26.8031 18.8107C26.8031 19.2862 26.811 19.7875 26.8249 20.2709V20.2728ZM28.6694 13.9847C28.7862 12.8475 28.9428 11.7737 29.1329 10.7752C30.0066 11.1299 30.9041 11.538 31.8114 11.9917C31.1497 12.376 30.496 12.7762 29.8541 13.1923C29.4519 13.4518 29.0576 13.7173 28.6694 13.9847ZM35.213 11.9917C36.1402 11.5281 37.0377 11.12 37.8975 10.7713C38.0877 11.7737 38.2462 12.8515 38.363 13.9966C37.9628 13.7192 37.5547 13.4458 37.1407 13.1784C36.5008 12.7643 35.8569 12.37 35.213 11.9936V11.9917ZM40.2094 17.3942C40.7959 17.8677 41.3585 18.3471 41.8895 18.8286C41.3644 19.302 40.8038 19.7815 40.2075 20.2609C40.2214 19.7775 40.2312 19.2961 40.2312 18.8147C40.2312 18.3333 40.2233 17.8638 40.2094 17.3942ZM33.5172 2.61891C34.9833 2.61891 36.5503 5.08741 37.5528 9.17052C36.2294 9.69753 34.8703 10.3295 33.5212 11.0407C32.1502 10.3136 30.7951 9.68364 29.4836 9.1626C30.486 5.08345 32.0512 2.61891 33.5172 2.61891ZM19.7047 10.5217C20.1584 10.9357 20.7587 11.1913 21.4224 11.1913C22.6189 11.1913 23.6194 10.3652 23.8928 9.25177C24.3881 9.32309 24.9171 9.42607 25.4778 9.56281C26.1612 9.73121 26.8744 9.94517 27.6075 10.1987C27.2925 11.7896 27.0705 13.4934 26.9398 15.2308C25.868 16.0391 24.8616 16.8712 23.9404 17.7092C20.9172 14.7157 19.4036 12.0194 19.7067 10.5217H19.7047ZM25.4857 28.0745C22.6308 28.7738 20.5467 28.6054 19.9127 27.6248C19.2768 26.6441 19.9781 24.6729 21.7849 22.357C22.405 21.5605 23.1341 20.7483 23.9523 19.938C24.8834 20.782 25.8859 21.612 26.9359 22.4065C27.0646 24.1796 27.2925 25.8754 27.6055 27.4445C26.8764 27.6961 26.1672 27.9081 25.4876 28.0745H25.4857ZM33.5172 35.0025C33.0833 35.0025 32.6415 34.7846 32.2076 34.3745C32.5088 33.9565 32.6891 33.4434 32.6891 32.8887C32.6891 31.482 31.5499 30.3429 30.1433 30.3429C30.1037 30.3429 30.0641 30.3469 30.0264 30.3488C29.8343 29.7704 29.6539 29.1443 29.4896 28.4747C30.7971 27.9557 32.1483 27.3296 33.5152 26.6045C34.8842 27.3296 36.2393 27.9557 37.5488 28.4747C36.5464 32.544 34.9833 35.0025 33.5192 35.0025H33.5172ZM47.086 27.6089C46.4501 28.5896 44.3678 28.758 41.513 28.0586C40.8414 27.8943 40.1441 27.6843 39.4269 27.4386C39.7419 25.8457 39.9658 24.142 40.0965 22.4025C41.1584 21.6002 42.1569 20.776 43.0722 19.9439C43.8805 20.7483 44.6017 21.5507 45.2158 22.3391C47.0226 24.657 47.7219 26.6263 47.088 27.6089H47.086Z" fill="black"/>
</g>
</g>
</g>
<defs>
<clipPath id="clip0_1_192">
<rect width="68.02" height="50" fill="white" transform="translate(0 0.299927)"/>
</clipPath>
<clipPath id="clip1_1_192">
<rect width="68.02" height="50" fill="white" transform="translate(0 0.299927)"/>
</clipPath>
<clipPath id="clip2_1_192">
<rect width="50" height="50" fill="white" transform="translate(9.00999 0.299927)"/>
</clipPath>
</defs>
</svg>
