<svg width="69" height="51" viewBox="0 0 69 51" fill="none" xmlns="http://www.w3.org/2000/svg">
<g clip-path="url(#clip0_1_172)">
<g clip-path="url(#clip1_1_172)">
<g clip-path="url(#clip2_1_172)">
<path d="M48.5795 36.2566L39.9891 20.8771V11.1726H29.9944V20.8771L21.4039 36.2566C21.0734 36.8477 21.0822 37.549 21.4232 38.1313C21.766 38.7155 22.3746 39.0635 23.0514 39.0635H46.9339C47.6107 39.0635 48.2193 38.7155 48.562 38.1313C48.9048 37.5472 48.9118 36.8477 48.5813 36.2566H48.5795ZM47.4235 37.465C47.3746 37.549 47.2277 37.7466 46.9321 37.7466H23.0479C22.7541 37.7466 22.6072 37.5507 22.5564 37.465C22.5075 37.3811 22.4078 37.1572 22.5512 36.9001L31.3095 21.2216V12.493H38.6687V21.2216L43.5201 29.9064H36.9933V31.2251H44.2563L45.8933 34.1562H36.9933V35.4748H46.6295L47.427 36.9019C47.5704 37.159 47.4708 37.3828 47.4218 37.4668L47.4235 37.465Z" fill="black"/>
<path d="M35.9755 8.09461C36.8196 8.09461 37.504 7.41028 37.504 6.5661C37.504 5.72193 36.8196 5.0376 35.9755 5.0376C35.1313 5.0376 34.447 5.72193 34.447 6.5661C34.447 7.41028 35.1313 8.09461 35.9755 8.09461Z" fill="black"/>
<path d="M35.9335 2.82529C36.6309 2.82529 37.1962 2.25996 37.1962 1.56261C37.1962 0.865247 36.6309 0.299927 35.9335 0.299927C35.2361 0.299927 34.6708 0.865247 34.6708 1.56261C34.6708 2.25996 35.2361 2.82529 35.9335 2.82529Z" fill="black"/>
<path d="M17.4008 45.9523V48.8904H16.8639V45.0184H17.4288L19.398 47.9898V45.0184H19.9349V48.8904H19.3805L17.3991 45.9523H17.4008Z" fill="black"/>
<path d="M22.3588 44.9397C23.5341 44.9397 24.3508 45.7966 24.3508 46.9491C24.3508 48.1016 23.5341 48.9638 22.3641 48.9638C21.1941 48.9638 20.3826 48.1244 20.3826 46.9544C20.3826 45.7844 21.2168 44.9397 22.3571 44.9397H22.3588ZM22.3641 48.4532C23.214 48.4532 23.7737 47.8271 23.7737 46.9526C23.7737 46.0782 23.2035 45.4469 22.3641 45.4469C21.5246 45.4469 20.9597 46.08 20.9597 46.9526C20.9597 47.8253 21.5369 48.4532 22.3641 48.4532Z" fill="black"/>
<path d="M26.6628 47.1555H26.2098V48.8904H25.6607V45.0184H26.6628C27.3851 45.0184 27.7995 45.377 27.7995 46.0712C27.7995 46.7655 27.3343 47.1573 26.6628 47.1573V47.1555ZM26.2098 45.4994V46.6746H26.6348C27.0265 46.6746 27.2277 46.4403 27.2277 46.0765C27.2277 45.7127 27.0265 45.4994 26.6348 45.4994H26.2098Z" fill="black"/>
<path d="M31.1626 48.8904H30.6135V47.145H28.7614V48.8904H28.2123V45.0184H28.7614V46.6239H30.6135V45.0184H31.1626V48.8904Z" fill="black"/>
<path d="M32.9027 45.5273V48.8904H32.3536V45.5273H31.5596V45.0184H33.6967V45.5273H32.9027Z" fill="black"/>
<path d="M37.044 48.8904H36.4949V47.145H34.6428V48.8904H34.0937V45.0184H34.6428V46.6239H36.4949V45.0184H37.044V48.8904Z" fill="black"/>
<path d="M39.8142 47.6155H38.3592L37.8782 48.8904H37.3361L38.7911 45.0184H39.3683L40.8898 48.8904H40.3127L39.8142 47.6155ZM38.5323 47.145H39.6288L39.0745 45.718L38.5323 47.145Z" fill="black"/>
<path d="M41.1801 48.8904V45.0184H41.7292V48.3815H42.8538V48.8904H41.1801Z" fill="black"/>
<path d="M45.5505 47.6155H44.0955L43.6145 48.8904H43.0724L44.5274 45.0184H45.1045L46.6261 48.8904H46.0489L45.5505 47.6155ZM44.2686 47.145H45.3651L44.8107 45.718L44.2686 47.145Z" fill="black"/>
<path d="M47.6596 45.5273V48.8904H47.1105V45.5273H46.3165V45.0184H48.4536V45.5273H47.6596Z" fill="black"/>
<path d="M48.8524 48.8904V45.0184H50.5365V45.5273H49.3998V46.6466H50.5085V47.1503H49.3998V48.3815H50.5523V48.8904H48.8506H48.8524Z" fill="black"/>
<path d="M51.8849 46.4787C52.114 46.5854 52.3553 46.6641 52.6019 46.7917C53.0164 46.9929 53.263 47.3129 53.263 47.8218C53.263 48.4934 52.7873 48.9568 52.0703 48.9568C51.1696 48.9568 50.8671 48.3745 50.8775 47.7309H51.4092C51.4092 48.1454 51.5876 48.4811 52.0703 48.4811C52.434 48.4811 52.7034 48.2678 52.7034 47.8708C52.7034 47.563 52.5407 47.3899 52.2889 47.2657C52.037 47.131 51.7747 47.0593 51.5159 46.9194C51.1696 46.7288 50.9667 46.4157 50.9667 45.9575C50.9667 45.3927 51.3865 44.9449 52.058 44.9449C52.8747 44.9449 53.1598 45.4714 53.1441 46.0362H52.6404C52.6299 45.6777 52.4393 45.4154 52.058 45.4154C51.6995 45.4154 51.5089 45.6392 51.5089 45.9418C51.5089 46.2041 51.6435 46.3615 51.8831 46.4787H51.8849Z" fill="black"/>
</g>
</g>
</g>
<defs>
<clipPath id="clip0_1_172">
<rect width="68.02" height="50" fill="white" transform="translate(0.979996 0.299927)"/>
</clipPath>
<clipPath id="clip1_1_172">
<rect width="68.02" height="50" fill="white" transform="translate(0.979996 0.299927)"/>
</clipPath>
<clipPath id="clip2_1_172">
<rect width="36.8573" height="50" fill="white" transform="translate(16.5613 0.299927)"/>
</clipPath>
</defs>
</svg>
