<svg width="41" height="41" viewBox="0 0 41 41" fill="none" xmlns="http://www.w3.org/2000/svg">
<path d="M20.66 38.887C30.9693 38.887 39.3267 30.5297 39.3267 20.2204C39.3267 9.91106 30.9693 1.55371 20.66 1.55371C10.3507 1.55371 1.99333 9.91106 1.99333 20.2204C1.99333 30.5297 10.3507 38.887 20.66 38.887Z" fill="#CCD2E1"/>
<path d="M20.66 22.2201C24.3419 22.2201 27.3267 19.2353 27.3267 15.5534C27.3267 11.8715 24.3419 8.88672 20.66 8.88672C16.9781 8.88672 13.9933 11.8715 13.9933 15.5534C13.9933 19.2353 16.9781 22.2201 20.66 22.2201Z" fill="black"/>
<mask id="mask0_1_580" style="mask-type:luminance" maskUnits="userSpaceOnUse" x="3" y="3" width="35" height="34">
<path d="M20.66 36.887C29.8647 36.887 37.3267 29.4251 37.3267 20.2204C37.3267 11.0156 29.8647 3.55371 20.66 3.55371C11.4553 3.55371 3.99333 11.0156 3.99333 20.2204C3.99333 29.4251 11.4553 36.887 20.66 36.887Z" fill="white"/>
</mask>
<g mask="url(#mask0_1_580)">
<path d="M20.66 49.5535C27.6556 49.5535 33.3267 43.8825 33.3267 36.8869C33.3267 29.8913 27.6556 24.2202 20.66 24.2202C13.6644 24.2202 7.99333 29.8913 7.99333 36.8869C7.99333 43.8825 13.6644 49.5535 20.66 49.5535Z" fill="black"/>
</g>
</svg>
