<svg width="60" height="23" viewBox="0 0 60 23" fill="none" xmlns="http://www.w3.org/2000/svg">
<path d="M7.81905 12.02C7.81905 11.4081 8.03613 10.8865 8.47028 10.4553C8.90443 10.024 9.42453 9.80842 10.0306 9.80842C10.6425 9.80842 11.1655 10.024 11.5996 10.4553C12.0338 10.8865 12.2509 11.4081 12.2509 12.02C12.2509 12.6318 12.0338 13.1549 11.5996 13.589C11.1655 14.0232 10.6425 14.2402 10.0306 14.2402C9.42453 14.2402 8.90443 14.0232 8.47028 13.589C8.03613 13.1549 7.81905 12.6318 7.81905 12.02Z" fill="#F45197"/>
<g opacity="0.3">
<path d="M27.8191 12.02C27.8191 11.4081 28.0361 10.8865 28.4703 10.4553C28.9044 10.024 29.4245 9.80842 30.0306 9.80842C30.6425 9.80842 31.1655 10.024 31.5996 10.4553C32.0338 10.8865 32.2509 11.4081 32.2509 12.02C32.2509 12.6318 32.0338 13.1549 31.5996 13.589C31.1655 14.0232 30.6425 14.2402 30.0306 14.2402C29.4245 14.2402 28.9044 14.0232 28.4703 13.589C28.0361 13.1549 27.8191 12.6318 27.8191 12.02Z" fill="#F45197"/>
</g>
<g opacity="0.3">
<path d="M47.8191 12.02C47.8191 11.4081 48.0361 10.8865 48.4703 10.4553C48.9044 10.024 49.4245 9.80842 50.0306 9.80842C50.6425 9.80842 51.1655 10.024 51.5996 10.4553C52.0338 10.8865 52.2509 11.4081 52.2509 12.02C52.2509 12.6318 52.0338 13.1549 51.5996 13.589C51.1655 14.0232 50.6425 14.2402 50.0306 14.2402C49.4245 14.2402 48.9044 14.0232 48.4703 13.589C48.0361 13.1549 47.8191 12.6318 47.8191 12.02Z" fill="#F45197"/>
</g>
</svg>
