<svg width="382" height="23" viewBox="0 0 382 23" fill="none" xmlns="http://www.w3.org/2000/svg">
<path d="M118.819 12.4C118.819 11.7881 119.036 11.2666 119.47 10.8353C119.904 10.4041 120.425 10.1885 121.031 10.1885C121.642 10.1885 122.166 10.4041 122.6 10.8353C123.034 11.2666 123.251 11.7881 123.251 12.4C123.251 13.0119 123.034 13.5349 122.6 13.9691C122.166 14.4032 121.642 14.6203 121.031 14.6203C120.425 14.6203 119.904 14.4032 119.47 13.9691C119.036 13.5349 118.819 13.0119 118.819 12.4Z" fill="#F45197"/>
<g opacity="0.3">
<path d="M138.819 12.4C138.819 11.7881 139.036 11.2666 139.47 10.8353C139.904 10.4041 140.425 10.1885 141.031 10.1885C141.642 10.1885 142.166 10.4041 142.6 10.8353C143.034 11.2666 143.251 11.7881 143.251 12.4C143.251 13.0119 143.034 13.5349 142.6 13.9691C142.166 14.4032 141.642 14.6203 141.031 14.6203C140.425 14.6203 139.904 14.4032 139.47 13.9691C139.036 13.5349 138.819 13.0119 138.819 12.4Z" fill="#F45197"/>
</g>
<g opacity="0.3">
<path d="M158.819 12.4C158.819 11.7881 159.036 11.2666 159.47 10.8353C159.904 10.4041 160.425 10.1885 161.031 10.1885C161.642 10.1885 162.165 10.4041 162.6 10.8353C163.034 11.2666 163.251 11.7881 163.251 12.4C163.251 13.0119 163.034 13.5349 162.6 13.9691C162.165 14.4032 161.642 14.6203 161.031 14.6203C160.425 14.6203 159.904 14.4032 159.47 13.9691C159.036 13.5349 158.819 13.0119 158.819 12.4Z" fill="#F45197"/>
</g>
<g opacity="0.3">
<path d="M178.819 12.4C178.819 11.7881 179.036 11.2666 179.47 10.8353C179.904 10.4041 180.425 10.1885 181.031 10.1885C181.642 10.1885 182.165 10.4041 182.6 10.8353C183.034 11.2666 183.251 11.7881 183.251 12.4C183.251 13.0119 183.034 13.5349 182.6 13.9691C182.165 14.4032 181.642 14.6203 181.031 14.6203C180.425 14.6203 179.904 14.4032 179.47 13.9691C179.036 13.5349 178.819 13.0119 178.819 12.4Z" fill="#F45197"/>
</g>
<g opacity="0.3">
<path d="M198.819 12.4C198.819 11.7881 199.036 11.2666 199.47 10.8353C199.904 10.4041 200.425 10.1885 201.031 10.1885C201.642 10.1885 202.165 10.4041 202.6 10.8353C203.034 11.2666 203.251 11.7881 203.251 12.4C203.251 13.0119 203.034 13.5349 202.6 13.9691C202.165 14.4032 201.642 14.6203 201.031 14.6203C200.425 14.6203 199.904 14.4032 199.47 13.9691C199.036 13.5349 198.819 13.0119 198.819 12.4Z" fill="#F45197"/>
</g>
<g opacity="0.3">
<path d="M218.819 12.4C218.819 11.7881 219.036 11.2666 219.47 10.8353C219.904 10.4041 220.425 10.1885 221.031 10.1885C221.642 10.1885 222.165 10.4041 222.6 10.8353C223.034 11.2666 223.251 11.7881 223.251 12.4C223.251 13.0119 223.034 13.5349 222.6 13.9691C222.165 14.4032 221.642 14.6203 221.031 14.6203C220.425 14.6203 219.904 14.4032 219.47 13.9691C219.036 13.5349 218.819 13.0119 218.819 12.4Z" fill="#F45197"/>
</g>
<g opacity="0.3">
<path d="M238.819 12.4C238.819 11.7881 239.036 11.2666 239.47 10.8353C239.904 10.4041 240.425 10.1885 241.031 10.1885C241.642 10.1885 242.166 10.4041 242.6 10.8353C243.034 11.2666 243.251 11.7881 243.251 12.4C243.251 13.0119 243.034 13.5349 242.6 13.9691C242.166 14.4032 241.642 14.6203 241.031 14.6203C240.425 14.6203 239.904 14.4032 239.47 13.9691C239.036 13.5349 238.819 13.0119 238.819 12.4Z" fill="#F45197"/>
</g>
<g opacity="0.3">
<path d="M258.819 12.4C258.819 11.7881 259.036 11.2666 259.47 10.8353C259.904 10.4041 260.425 10.1885 261.031 10.1885C261.642 10.1885 262.166 10.4041 262.6 10.8353C263.034 11.2666 263.251 11.7881 263.251 12.4C263.251 13.0119 263.034 13.5349 262.6 13.9691C262.166 14.4032 261.642 14.6203 261.031 14.6203C260.425 14.6203 259.904 14.4032 259.47 13.9691C259.036 13.5349 258.819 13.0119 258.819 12.4Z" fill="#F45197"/>
</g>
</svg>
