<svg width="32" height="14" viewBox="0 0 32 14" fill="none" xmlns="http://www.w3.org/2000/svg">
<path d="M30.848 8.63874C30.2309 8.07512 29.5712 7.56492 28.7858 7.24171C28.6256 7.17493 28.484 7.00664 28.3852 6.85439C27.9578 6.18659 27.6105 5.45736 27.1217 4.84031C26.0452 3.47801 24.5841 2.58316 23.0668 1.79783C22.1907 1.34373 22.017 1.45325 21.7232 2.36412C21.7152 2.38549 21.6965 2.40152 21.6725 2.43892C21.6217 2.35878 21.5763 2.30536 21.5469 2.24125C21.1249 1.39448 20.3956 0.956407 19.4928 0.943051C17.452 0.916339 15.4112 1.06058 13.4238 1.52003C11.6689 1.92605 9.91657 2.10235 8.12955 1.92338C6.13951 1.72304 4.20558 1.26626 2.30369 0.662576C1.66528 0.459566 1.11768 0.609152 0.759745 1.06325C0.40982 1.50667 0.369752 2.1905 0.70365 2.70603C1.33939 3.68102 1.97246 4.66134 2.65629 5.60427C3.21724 6.37357 3.84764 7.09212 4.454 7.82937C5.87507 9.55228 7.47244 11.0802 9.46514 12.1193C12.0135 13.4469 14.7461 13.738 17.5642 13.3854C18.6861 13.2439 19.7973 13.0302 20.6734 12.2315C21.0047 11.9296 21.2932 11.577 21.6297 11.2191C21.6644 11.4275 21.6965 11.6064 21.7205 11.7854C21.798 12.3837 22.1746 12.6135 22.7116 12.357C24.3356 11.5824 25.9544 10.7971 27.5758 10.0171C27.6132 9.99837 27.6559 9.98502 27.6906 9.96098C27.9845 9.77132 28.0993 9.42407 27.9337 9.14894C27.7601 8.86045 27.501 8.73757 27.1698 8.8738C26.8813 8.99401 26.5981 9.12757 26.315 9.25845C25.169 9.78735 24.0204 10.3162 22.8398 10.8612C22.773 10.3991 22.7516 9.96632 22.6394 9.5603C22.578 9.34126 22.4017 9.09551 22.2094 8.99134C21.9556 8.85511 21.6912 8.99133 21.5042 9.23441C21.1142 9.74194 20.6761 10.2201 20.3342 10.757C19.8961 11.4462 19.2764 11.8495 18.5098 11.9564C17.3585 12.1193 16.1912 12.2876 15.0346 12.2689C13.13 12.2395 11.3029 11.8308 9.6548 10.773C8.29249 9.89954 7.06374 8.90319 5.96589 7.70382C4.45132 6.04502 3.16916 4.22594 1.9324 2.36412C1.82555 2.20385 1.76945 2.00618 1.69199 1.82721C1.72137 1.8005 1.75076 1.77379 1.78281 1.74708C2.25027 1.92605 2.70437 2.15844 3.18785 2.2733C4.47269 2.58049 5.76021 2.89302 7.06107 3.10137C8.81337 3.38184 10.5897 3.47534 12.3313 3.06397C14.5751 2.53241 16.8483 2.31871 19.1402 2.21721C19.7839 2.18782 20.2674 2.44426 20.588 3.01055C20.8257 3.4326 21.0768 3.84396 21.3172 4.26601C21.4748 4.54648 21.6751 4.74682 22.0304 4.6934C22.3937 4.63997 22.4979 4.36484 22.5753 4.063C22.6528 3.75314 22.7356 3.44595 22.8211 3.11205C24.5066 3.87601 25.7941 5.01127 26.8492 6.57124C24.771 6.07707 22.7757 5.7966 20.7456 5.77523C19.1909 5.7592 17.6363 5.76988 16.0843 5.70043C13.7471 5.59893 11.3884 5.59893 9.12056 4.91778C8.10551 4.61326 7.1145 4.2206 6.12349 3.84129C5.78158 3.7104 5.51179 3.72643 5.29542 4.02293C5.09508 4.29272 5.15385 4.68538 5.4824 4.86969C6.0941 5.20894 6.71382 5.57222 7.3736 5.78591C9.98602 6.63802 12.708 6.78226 15.4246 6.8998C18.045 7.01199 20.6681 7.0387 23.2859 7.17493C25.2145 7.27643 27.0602 7.7893 28.7778 8.68682C29.2159 8.91387 29.6246 9.21037 30.0092 9.52023C30.4072 9.84077 30.6957 9.8942 30.9762 9.60304C31.2407 9.33057 31.2086 8.96195 30.8507 8.6334L30.848 8.63874Z" fill="black"/>
</svg>
