<svg width="16" height="16" viewBox="0 0 16 16" fill="none" xmlns="http://www.w3.org/2000/svg">
<path d="M12.5093 11.2999L15.5979 14.3879L14.5776 15.4083L11.4896 12.3196C10.3406 13.2406 8.91144 13.7416 7.43884 13.7396C3.85615 13.7396 0.94846 10.8319 0.94846 7.24917C0.94846 3.66648 3.85615 0.758789 7.43884 0.758789C11.0215 0.758789 13.9292 3.66648 13.9292 7.24917C13.9313 8.72177 13.4303 10.1509 12.5093 11.2999ZM11.0626 10.7648C11.9779 9.82361 12.489 8.56199 12.4869 7.24917C12.4869 4.45975 10.2275 2.2011 7.43884 2.2011C4.64942 2.2011 2.39077 4.45975 2.39077 7.24917C2.39077 10.0379 4.64942 12.2973 7.43884 12.2973C8.75166 12.2993 10.0133 11.7882 10.9545 10.873L11.0626 10.7648Z" fill="#373330"/>
</svg>
