<svg width="15" height="14" viewBox="0 0 15 14" fill="none" xmlns="http://www.w3.org/2000/svg">
<path d="M5.39545 8.99294H1.32273C0.985183 8.99294 0.661459 8.85885 0.422777 8.62016C0.184094 8.38148 0.0500037 8.05776 0.0500037 7.72021V6.3813C0.0498322 6.21498 0.0822617 6.05024 0.145458 5.89639L2.11564 1.11476C2.16354 0.998149 2.24501 0.898394 2.34969 0.82815C2.45438 0.757906 2.57757 0.720339 2.70364 0.720215H13.4136C13.5824 0.720215 13.7443 0.78726 13.8636 0.906602C13.983 1.02594 14.05 1.1878 14.05 1.35658V7.72021C14.05 7.88898 13.983 8.05084 13.8636 8.17019C13.7443 8.28953 13.5824 8.35658 13.4136 8.35658H11.1978C11.0959 8.35656 10.9955 8.38098 10.9051 8.42782C10.8146 8.47467 10.7367 8.54255 10.6779 8.62575L7.20782 13.5423C7.16395 13.6045 7.09926 13.6488 7.02548 13.6674C6.95169 13.686 6.8737 13.6775 6.80564 13.6435L5.65127 13.0657C5.32641 12.9033 5.06688 12.6346 4.91581 12.3044C4.76474 11.9741 4.73122 11.6021 4.82082 11.2501L5.39545 8.99294ZM10.2318 7.34604V1.99294H3.13L1.32273 6.3813V7.72021H5.39545C5.58929 7.72024 5.78056 7.76454 5.95467 7.84974C6.12878 7.93493 6.28113 8.05877 6.4001 8.21181C6.51906 8.36484 6.6015 8.54304 6.64113 8.73279C6.68075 8.92253 6.67651 9.11881 6.62873 9.30666L6.05409 11.5645C6.03611 11.6349 6.04278 11.7094 6.073 11.7755C6.10321 11.8416 6.15516 11.8953 6.22018 11.9278L6.64082 12.1378L9.63809 7.89204C9.79718 7.66677 10.0008 7.48222 10.2318 7.34604ZM11.5045 7.08385H12.7773V1.99294H11.5045V7.08385Z" fill="#2C2C2C"/>
</svg>
