<svg width="32" height="14" viewBox="0 0 32 14" fill="none" xmlns="http://www.w3.org/2000/svg">
<path d="M30.848 8.83869C30.2309 8.27507 29.5712 7.76487 28.7858 7.44166C28.6256 7.37488 28.484 7.20659 28.3852 7.05434C27.9578 6.38654 27.6105 5.65731 27.1217 5.04026C26.0452 3.67796 24.5841 2.78311 23.0668 1.99778C22.1907 1.54368 22.017 1.6532 21.7232 2.56407C21.7152 2.58544 21.6965 2.60147 21.6725 2.63887C21.6217 2.55873 21.5763 2.50531 21.5469 2.4412C21.1249 1.59443 20.3956 1.15636 19.4928 1.143C17.452 1.11629 15.4112 1.26053 13.4238 1.71998C11.6689 2.126 9.91657 2.3023 8.12955 2.12333C6.13951 1.92299 4.20558 1.46622 2.30369 0.862527C1.66528 0.659517 1.11768 0.809104 0.759745 1.26321C0.40982 1.70662 0.369752 2.39045 0.70365 2.90599C1.33939 3.88097 1.97246 4.86129 2.65629 5.80422C3.21724 6.57352 3.84764 7.29207 4.454 8.02932C5.87507 9.75224 7.47244 11.2802 9.46514 12.3192C12.0135 13.6468 14.7461 13.938 17.5642 13.5854C18.6861 13.4438 19.7973 13.2301 20.6734 12.4314C21.0047 12.1296 21.2932 11.777 21.6297 11.4191C21.6644 11.6274 21.6965 11.8064 21.7205 11.9853C21.798 12.5837 22.1746 12.8134 22.7116 12.557C24.3356 11.7823 25.9544 10.997 27.5758 10.217C27.6132 10.1983 27.6559 10.185 27.6906 10.1609C27.9845 9.97127 28.0993 9.62402 27.9337 9.34889C27.7601 9.0604 27.501 8.93752 27.1698 9.07375C26.8813 9.19396 26.5981 9.32752 26.315 9.45841C25.169 9.9873 24.0204 10.5162 22.8398 11.0611C22.773 10.599 22.7516 10.1663 22.6394 9.76025C22.578 9.54121 22.4017 9.29546 22.2094 9.19129C21.9556 9.05506 21.6912 9.19129 21.5042 9.43436C21.1142 9.94189 20.6761 10.42 20.3342 10.9569C19.8961 11.6461 19.2764 12.0495 18.5098 12.1563C17.3585 12.3192 16.1912 12.4875 15.0346 12.4688C13.13 12.4394 11.3029 12.0308 9.6548 10.973C8.29249 10.0995 7.06374 9.10314 5.96589 7.90377C4.45132 6.24497 3.16916 4.42589 1.9324 2.56407C1.82555 2.4038 1.76945 2.20613 1.69199 2.02716C1.72137 2.00045 1.75076 1.97374 1.78281 1.94703C2.25027 2.126 2.70437 2.35839 3.18785 2.47325C4.47269 2.78044 5.76021 3.09297 7.06107 3.30132C8.81337 3.5818 10.5897 3.67529 12.3313 3.26392C14.5751 2.73236 16.8483 2.51866 19.1402 2.41716C19.7839 2.38777 20.2674 2.64421 20.588 3.2105C20.8257 3.63255 21.0768 4.04391 21.3172 4.46596C21.4748 4.74643 21.6751 4.94677 22.0304 4.89335C22.3937 4.83992 22.4979 4.56479 22.5753 4.26295C22.6528 3.95309 22.7356 3.6459 22.8211 3.31201C24.5066 4.07597 25.7941 5.21122 26.8492 6.77119C24.771 6.27702 22.7757 5.99655 20.7456 5.97518C19.1909 5.95915 17.6363 5.96984 16.0843 5.90038C13.7471 5.79888 11.3884 5.79888 9.12056 5.11773C8.10551 4.81321 7.1145 4.42055 6.12349 4.04124C5.78158 3.91035 5.51179 3.92638 5.29542 4.22288C5.09508 4.49267 5.15385 4.88533 5.4824 5.06965C6.0941 5.40889 6.71382 5.77217 7.3736 5.98586C9.98602 6.83797 12.708 6.98222 15.4246 7.09975C18.045 7.21194 20.6681 7.23865 23.2859 7.37488C25.2145 7.47638 27.0602 7.98925 28.7778 8.88677C29.2159 9.11382 29.6246 9.41032 30.0092 9.72018C30.4072 10.0407 30.6957 10.0941 30.9762 9.80299C31.2407 9.53053 31.2086 9.1619 30.8507 8.83335L30.848 8.83869Z" fill="black"/>
</svg>
