<svg width="24" height="25" viewBox="0 0 24 25" fill="none" xmlns="http://www.w3.org/2000/svg">
<path d="M12 0.5C5.376 0.5 0 5.876 0 12.5C0 19.124 5.376 24.5 12 24.5H19.392V21.956C22.2 19.748 24 16.34 24 12.5C24 5.876 18.624 0.5 12 0.5ZM7.68 13.58C7.08 13.58 6.6 13.1 6.6 12.5C6.6 11.9 7.08 11.42 7.68 11.42C8.28 11.42 8.76 11.9 8.76 12.5C8.76 13.1 8.28 13.58 7.68 13.58ZM12 13.58C11.4 13.58 10.92 13.1 10.92 12.5C10.92 11.9 11.4 11.42 12 11.42C12.6 11.42 13.08 11.9 13.08 12.5C13.08 13.1 12.6 13.58 12 13.58ZM16.32 13.58C15.72 13.58 15.24 13.1 15.24 12.5C15.24 11.9 15.72 11.42 16.32 11.42C16.92 11.42 17.4 11.9 17.4 12.5C17.4 13.1 16.92 13.58 16.32 13.58Z" fill="white"/>
</svg>
