<svg width="17" height="16" viewBox="0 0 17 16" fill="none" xmlns="http://www.w3.org/2000/svg">
<path d="M8.0084 12.1316H9.0917V7.34002H8.0084V12.1316ZM8.5457 6.08042C8.7115 6.08042 8.852 6.02433 8.9671 5.91214C9.0822 5.79995 9.1398 5.66093 9.1398 5.49508C9.1398 5.32924 9.0837 5.18875 8.9715 5.07362C8.8593 4.95851 8.7203 4.90096 8.5545 4.90096C8.3886 4.90096 8.2481 4.95705 8.133 5.06925C8.0179 5.18144 7.9603 5.32046 7.9603 5.48631C7.9603 5.65216 8.0164 5.79264 8.1286 5.90775C8.2408 6.02286 8.3798 6.08042 8.5457 6.08042ZM8.5572 15.9233C7.514 15.9233 6.53148 15.726 5.60971 15.3312C4.68792 14.9365 3.8811 14.3934 3.18925 13.7019C2.49739 13.0103 1.95401 12.2042 1.5591 11.2834C1.1642 10.3626 0.966751 9.37882 0.966751 8.33192C0.966751 7.28492 1.16411 6.30408 1.55883 5.38925C1.95355 4.4744 2.49668 3.67106 3.18821 2.97921C3.87975 2.28735 4.68591 1.74396 5.60669 1.34906C6.52746 0.954164 7.5113 0.756714 8.5582 0.756714C9.6051 0.756714 10.586 0.954074 11.5008 1.34879C12.4157 1.74351 13.219 2.28664 13.9109 2.97817C14.6027 3.66971 15.1461 4.47424 15.541 5.39177C15.9359 6.3093 16.1334 7.28962 16.1334 8.33292C16.1334 9.37612 15.936 10.3586 15.5413 11.2804C15.1466 12.2021 14.6034 13.009 13.9119 13.7008C13.2204 14.3927 12.4158 14.9361 11.4983 15.331C10.5808 15.7259 9.6004 15.9233 8.5572 15.9233ZM8.5501 14.84C10.3556 14.84 11.8903 14.2081 13.1542 12.9442C14.4181 11.6803 15.0501 10.1456 15.0501 8.34002C15.0501 6.53442 14.4181 4.99974 13.1542 3.73585C11.8903 2.47196 10.3556 1.84002 8.5501 1.84002C6.7445 1.84002 5.20978 2.47196 3.94589 3.73585C2.682 4.99974 2.05006 6.53442 2.05006 8.34002C2.05006 10.1456 2.682 11.6803 3.94589 12.9442C5.20978 14.2081 6.7445 14.84 8.5501 14.84Z" fill="#121212"/>
</svg>
