<svg width="15" height="14" viewBox="0 0 15 14" fill="none" xmlns="http://www.w3.org/2000/svg">
<path d="M9.42454 5.40494H13.4973C13.8348 5.40494 14.1585 5.53903 14.3972 5.77771C14.6359 6.0164 14.77 6.34012 14.77 6.67767V8.01658C14.7702 8.1829 14.7377 8.34764 14.6745 8.50149L12.705 13.2837C12.657 13.4003 12.5754 13.5 12.4705 13.5702C12.3657 13.6403 12.2425 13.6777 12.1164 13.6777H1.40637C1.23759 13.6777 1.07573 13.6106 0.956391 13.4913C0.837049 13.3719 0.770004 13.2101 0.770004 13.0413V6.67767C0.770004 6.50889 0.837049 6.34703 0.956391 6.22769C1.07573 6.10835 1.23759 6.04131 1.40637 6.04131H3.62218C3.72406 6.04134 3.82446 6.01689 3.91493 5.97005C4.0054 5.92321 4.08331 5.85533 4.14209 5.77212L7.61218 0.854946C7.65605 0.792781 7.72074 0.748393 7.79452 0.729831C7.86831 0.711268 7.9463 0.719759 8.01436 0.753764L9.16873 1.33095C9.49359 1.49332 9.75312 1.76196 9.90419 2.09223C10.0553 2.42251 10.0888 2.79453 9.99918 3.14649L9.42454 5.40494ZM4.58818 7.05185V12.4049H11.69L13.4973 8.01658V6.67767H9.42454C9.23071 6.67764 9.03944 6.63334 8.86533 6.54814C8.69122 6.46294 8.53887 6.3391 8.4199 6.18607C8.30093 6.03303 8.2185 5.85485 8.17887 5.6651C8.13925 5.47536 8.14349 5.27907 8.19127 5.09121L8.76591 2.8334C8.78389 2.76297 8.77722 2.6885 8.747 2.6224C8.71678 2.55629 8.66484 2.50252 8.59982 2.47003L8.17918 2.26003L5.18191 6.50585C5.02282 6.73112 4.81918 6.91567 4.58818 7.05185ZM3.31545 7.31403H2.04273V12.4049H3.31545V7.31403Z" fill="#2C2C2C"/>
</svg>
