<svg width="20" height="15" viewBox="0 0 20 15" fill="none" xmlns="http://www.w3.org/2000/svg">
<path fill-rule="evenodd" clip-rule="evenodd" d="M12.5285 1.07994H3.95711V2.98471H8.24282V3.93709H3.95711V4.88947H6.81425V5.84185H3.95711V6.79423H8.24282V7.74661H3.95711V10.6038C4.22975 10.3962 4.54412 10.2503 4.87858 10.1759C5.21304 10.1015 5.55965 10.1005 5.89454 10.1729C6.22943 10.2453 6.54466 10.3894 6.81851 10.5953C7.09237 10.8012 7.31836 11.064 7.48092 11.3657H12.5285V1.07994ZM3.00473 5.84185V6.79423H1.57615V7.74661H3.00473V11.3657C3.00411 11.518 3.04004 11.6682 3.10949 11.8038C3.00566 12.1389 2.97717 12.4928 3.02606 12.8402C3.07494 13.1876 3.2 13.5199 3.39229 13.8134C3.58457 14.1068 3.83933 14.3541 4.13833 14.5376C4.43734 14.7212 4.77321 14.8363 5.12191 14.8749C5.47061 14.9135 5.82353 14.8746 6.15543 14.7609C6.48732 14.6471 6.78999 14.4615 7.04178 14.2172C7.29357 13.9729 7.48826 13.676 7.61192 13.3476C7.73558 13.0193 7.78516 12.6677 7.75711 12.318H12.519C12.6289 12.321 12.7384 12.3049 12.8428 12.2704C12.8927 12.314 12.9469 12.3523 13.0047 12.3847C12.9879 12.7076 13.0371 13.0306 13.1492 13.3339C13.2613 13.6372 13.434 13.9145 13.6568 14.1489C13.8795 14.3833 14.1477 14.5698 14.445 14.6971C14.7422 14.8245 15.0623 14.8899 15.3857 14.8895C16.0171 14.8895 16.6227 14.6386 17.0693 14.1921C17.5158 13.7456 17.7666 13.14 17.7666 12.5085H18.0809C18.3335 12.5085 18.5757 12.4082 18.7544 12.2296C18.933 12.051 19.0333 11.8087 19.0333 11.5561V8.55614C19.032 8.34131 18.9582 8.13322 18.8238 7.96566L15.9 4.29899C15.8113 4.18675 15.6984 4.09593 15.5698 4.03328C15.4412 3.97062 15.3002 3.93775 15.1571 3.93709H13.4809V1.07994C13.4809 0.827357 13.3806 0.585115 13.202 0.406509C13.0234 0.227903 12.7811 0.127563 12.5285 0.127563H3.95711C3.70452 0.127563 3.46228 0.227903 3.28367 0.406509C3.10507 0.585115 3.00473 0.827357 3.00473 1.07994V2.98471H1.57615V3.93709H3.00473V4.88947H0.147583V5.84185H3.00473ZM16.8142 12.5085C16.8142 12.1296 16.6637 11.7663 16.3958 11.4984C16.1279 11.2305 15.7646 11.0799 15.3857 11.0799C15.0068 11.0799 14.6434 11.2305 14.3755 11.4984C14.1076 11.7663 13.9571 12.1296 13.9571 12.5085C13.9571 12.8874 14.1076 13.2508 14.3755 13.5187C14.6434 13.7866 15.0068 13.9371 15.3857 13.9371C16.1762 13.9371 16.8142 13.299 16.8142 12.5085ZM13.4809 11.0799C13.7303 10.7448 14.0635 10.4812 14.4471 10.3156C14.8306 10.15 15.251 10.0882 15.6659 10.1365C16.0809 10.1847 16.4759 10.3413 16.8111 10.5905C17.1465 10.8397 17.4103 11.1727 17.5762 11.5561H18.0809V8.69899H13.4809V11.0799ZM13.4809 7.74661H17.4333L15.1476 4.88947H13.4904V7.74661H13.4809ZM6.80473 12.318C6.77971 12.1317 6.71824 11.9521 6.62382 11.7895C6.52939 11.6269 6.40387 11.4845 6.25441 11.3704C6.10495 11.2563 5.93449 11.1728 5.75275 11.1246C5.57101 11.0764 5.38155 11.0645 5.1952 11.0895C5.00885 11.1145 4.82925 11.176 4.66666 11.2704C4.50406 11.3648 4.36166 11.4903 4.24757 11.6398C4.13349 11.7892 4.04996 11.9597 4.00176 12.1414C3.95355 12.3232 3.94162 12.5126 3.96663 12.699C4.01715 13.0753 4.2151 13.4162 4.51695 13.6466C4.81879 13.877 5.1998 13.9781 5.57615 13.9276C5.95251 13.877 6.29338 13.6791 6.52378 13.3772C6.75419 13.0754 6.85524 12.6944 6.80473 12.318Z" fill="black"/>
</svg>
