<svg width="21" height="19" viewBox="0 0 21 19" fill="none" xmlns="http://www.w3.org/2000/svg">
<path fill-rule="evenodd" clip-rule="evenodd" d="M5.65998 1.23704C3.71427 1.5699 1.75284 3.40847 1.75284 6.87133C1.75284 8.12133 2.28712 9.4199 3.1457 10.6913C4.00284 11.9585 5.15284 13.1599 6.31855 14.2028C7.48284 15.2442 8.64998 16.117 9.5257 16.7285C9.91169 16.9984 10.3032 17.2604 10.7 17.5142L10.8171 17.4385C12.3196 16.4711 13.7452 15.3893 15.0814 14.2028C16.2471 13.1599 17.3986 11.9599 18.2528 10.6913C19.1128 9.4199 19.6471 8.12133 19.6471 6.87133C19.6471 3.40704 17.6857 1.57133 15.74 1.23704C15.2547 1.14919 14.7567 1.15929 14.2753 1.26675C13.794 1.37421 13.339 1.57685 12.9371 1.86275C12.1243 2.44704 11.4643 3.43418 11.22 4.89133H10.18C9.93713 3.43561 9.2757 2.44704 8.46284 1.86275C8.061 1.57678 7.60601 1.37409 7.12465 1.26663C6.64329 1.15917 6.14529 1.14911 5.65998 1.23704ZM10.7 18.1228C10.6081 18.2688 10.5157 18.4145 10.4228 18.5599L10.4214 18.5585L10.4157 18.5542L10.3928 18.5399L10.3114 18.4899C10.2081 18.4259 10.1052 18.3611 10.0028 18.2956C9.63486 18.0583 9.27146 17.814 8.91284 17.5628C7.76085 16.7607 6.65704 15.8916 5.60712 14.9599C4.4057 13.8828 3.18712 12.6199 2.26712 11.2542C1.34998 9.89847 0.699982 8.40133 0.699982 6.87133C0.699982 2.99276 2.94855 0.658469 5.47712 0.225612C6.1027 0.113291 6.74441 0.127084 7.36458 0.26618C7.98475 0.405277 8.57088 0.666874 9.08855 1.03561C9.78746 1.5468 10.3425 2.2298 10.7 3.01847C11.0574 2.2298 11.6125 1.5468 12.3114 1.03561C12.8291 0.666874 13.4152 0.405277 14.0354 0.26618C14.6556 0.127084 15.2973 0.113291 15.9228 0.225612C18.4514 0.658469 20.7 2.99276 20.7 6.87133C20.7 8.3999 20.05 9.89704 19.1328 11.257C18.2128 12.6199 16.9943 13.8842 15.7928 14.9599C14.7429 15.8915 13.6391 16.7606 12.4871 17.5628C12.1285 17.814 11.7651 18.0583 11.3971 18.2956C11.2674 18.3788 11.1369 18.4607 11.0057 18.5413L10.9843 18.5556L10.9786 18.5585H10.9771C10.8842 18.414 10.7918 18.2693 10.7 18.1242M10.7 18.1242L10.9757 18.5613L10.7 18.7256L10.4228 18.5599L10.7 18.1242Z" fill="black"/>
</svg>
