<svg width="59" height="17" viewBox="0 0 59 17" fill="none" xmlns="http://www.w3.org/2000/svg">
<path fill-rule="evenodd" clip-rule="evenodd" d="M3.81899 2.73045L5.94873 8.66393L8.17984 2.73045H11.3475L5.931 16.4702H2.79828L4.40034 12.2129L0.550003 2.73045H3.81899ZM37.2741 2.5204C40.1342 2.5204 42.2195 4.76303 42.2195 7.83297C42.2195 10.9029 40.1342 13.1455 37.2741 13.1455C36.2187 13.1455 35.3298 12.8632 34.6515 12.3189L34.6076 12.283L34.5701 12.2514V16.4669H31.5179L31.518 2.73045H34.2168V3.75766L34.232 3.73998C34.8971 2.97332 35.9032 2.54904 37.1457 2.5218L37.2113 2.52073L37.2741 2.5204ZM16.9066 2.5204C20.056 2.5204 22.2885 4.71923 22.2885 7.83297C22.2885 10.933 20.0486 13.1455 16.9066 13.1455C13.7469 13.1455 11.5038 10.9361 11.5038 7.83297C11.5038 4.71614 13.7395 2.5204 16.9066 2.5204ZM27.373 0.470215V2.73045H29.8846V5.39471L27.373 5.39463V9.07226C27.373 9.89492 27.7687 10.3474 28.4888 10.3749L28.5239 10.3759L28.5595 10.3763C29.0479 10.3763 29.4178 10.2466 29.7487 9.92519L29.7796 9.8945L29.8619 9.80911H29.8846V12.7479L29.791 12.7932C29.2888 13.0359 28.979 13.1455 28.123 13.1455C25.7028 13.1455 24.3739 11.8141 24.3223 9.32845L24.3212 9.25278L24.3208 9.17729L24.3207 5.39463L23.2162 5.39471V2.73045H24.4039V0.470215H27.373ZM48.8892 2.5204C52.0387 2.5204 54.2712 4.71923 54.2712 7.83297C54.2712 10.933 52.0313 13.1455 48.8892 13.1455C45.7296 13.1455 43.4865 10.9361 43.4865 7.83297C43.4865 4.71614 45.7222 2.5204 48.8892 2.5204ZM56.759 9.76538C57.6827 9.76538 58.4315 10.522 58.4315 11.4554C58.4315 12.3889 57.6827 13.1455 56.759 13.1455C55.8353 13.1455 55.0865 12.3889 55.0865 11.4554C55.0865 10.522 55.8353 9.76538 56.759 9.76538ZM36.8168 5.28969C35.4418 5.28969 34.5079 6.3182 34.5079 7.83297C34.5079 9.34774 35.4418 10.3763 36.8168 10.3763C38.2098 10.3763 39.1465 9.35081 39.1465 7.83297C39.1465 6.31513 38.2098 5.28969 36.8168 5.28969ZM16.9066 5.28969C15.5267 5.28969 14.5769 6.32341 14.5769 7.83297C14.5769 9.34253 15.5267 10.3763 16.9066 10.3763C18.2684 10.3763 19.2155 9.33943 19.2155 7.83297C19.2155 6.3265 18.2684 5.28969 16.9066 5.28969ZM48.8892 5.28969C47.5094 5.28969 46.5595 6.32341 46.5595 7.83297C46.5595 9.34253 47.5094 10.3763 48.8892 10.3763C50.2511 10.3763 51.1982 9.33943 51.1982 7.83297C51.1982 6.3265 50.2511 5.28969 48.8892 5.28969Z" fill="#0042E4"/>
</svg>
